<svg id="Слой_1" data-name="Слой 1" xmlns="http://www.w3.org/2000/svg" viewBox="0 0 1198.96 403.19"><defs><style>.cls-1{fill:#dcdcdc;}.cls-2{fill:#ececec;}.cls-3{fill:#a8a8a8;}.cls-4{fill:#c8c8c8;}.cls-5{fill:#fff;}.cls-6{fill:#fee45a;}.cls-7{fill:#c9b14f;}.cls-8{fill:#ffc800;}.cls-9{fill:#a5913d;}.cls-10{fill:#c6b467;}.cls-11{opacity:0.2;}.cls-11,.cls-21{isolation:isolate;}.cls-12{fill:#b5a045;}.cls-13{fill:#375a64;}.cls-14{fill:#2b454e;}.cls-15{fill:#1a2e35;}.cls-16{fill:#1b363a;}.cls-17{fill:#122e33;}.cls-18{fill:#557077;}.cls-19{fill:#3e555b;}.cls-20{fill:#2b525b;}.cls-21,.cls-23{opacity:0.3;}.cls-22{fill:#9e8c3f;}.cls-24{fill:#ec8560;}.cls-25{fill:#bf6752;}.cls-26{fill:#935042;}.cls-27{fill:#d3ba50;}</style></defs><path class="cls-1" d="M940.09,67.73h-64V403h64Z" transform="translate(-123.75 0)"/><path class="cls-2" d="M898.49,78.62H886.05V91.43h12.44Z" transform="translate(-123.75 0)"/><path class="cls-2" d="M914.4,78.62H902V91.43H914.4Z" transform="translate(-123.75 0)"/><path class="cls-2" d="M898.49,100.36H886.05v12.8h12.44Z" transform="translate(-123.75 0)"/><path class="cls-2" d="M914.4,100.36H902v12.8H914.4Z" transform="translate(-123.75 0)"/><path class="cls-2" d="M898.49,122.1H886.05v12.8h12.44Z" transform="translate(-123.75 0)"/><path class="cls-2" d="M914.4,122.1H902v12.8H914.4Z" transform="translate(-123.75 0)"/><path class="cls-2" d="M898.49,143.83H886.05v12.81h12.44Z" transform="translate(-123.75 0)"/><path class="cls-2" d="M914.4,143.83H902v12.81H914.4Z" transform="translate(-123.75 0)"/><path class="cls-2" d="M898.49,165.57H886.05v12.81h12.44Z" transform="translate(-123.75 0)"/><path class="cls-2" d="M914.4,165.57H902v12.81H914.4Z" transform="translate(-123.75 0)"/><path class="cls-2" d="M898.49,187.31H886.05v12.8h12.44Z" transform="translate(-123.75 0)"/><path class="cls-2" d="M914.4,187.31H902v12.8H914.4Z" transform="translate(-123.75 0)"/><path class="cls-2" d="M898.49,209H886.05v12.81h12.44Z" transform="translate(-123.75 0)"/><path class="cls-2" d="M914.4,209H902v12.81H914.4Z" transform="translate(-123.75 0)"/><path class="cls-2" d="M898.49,230.78H886.05v12.81h12.44Z" transform="translate(-123.75 0)"/><path class="cls-2" d="M914.4,230.78H902v12.81H914.4Z" transform="translate(-123.75 0)"/><path class="cls-2" d="M898.49,252.52H886.05v12.8h12.44Z" transform="translate(-123.75 0)"/><path class="cls-2" d="M914.4,252.52H902v12.8H914.4Z" transform="translate(-123.75 0)"/><path class="cls-2" d="M898.49,274.25H886.05v12.81h12.44Z" transform="translate(-123.75 0)"/><path class="cls-2" d="M914.4,274.25H902v12.81H914.4Z" transform="translate(-123.75 0)"/><path class="cls-2" d="M898.49,296H886.05V308.8h12.44Z" transform="translate(-123.75 0)"/><path class="cls-2" d="M914.4,296H902V308.8H914.4Z" transform="translate(-123.75 0)"/><path class="cls-2" d="M898.49,317.73H886.05v12.8h12.44Z" transform="translate(-123.75 0)"/><path class="cls-2" d="M914.4,317.73H902v12.8H914.4Z" transform="translate(-123.75 0)"/><path class="cls-2" d="M898.49,339.47H886.05v12.8h12.44Z" transform="translate(-123.75 0)"/><path class="cls-2" d="M914.4,339.47H902v12.8H914.4Z" transform="translate(-123.75 0)"/><path class="cls-2" d="M898.49,361.2H886.05V374h12.44Z" transform="translate(-123.75 0)"/><path class="cls-2" d="M930.16,361.2H917.73V374h12.43Z" transform="translate(-123.75 0)"/><path class="cls-2" d="M930.16,339.46H917.73v12.81h12.43Z" transform="translate(-123.75 0)"/><path class="cls-2" d="M930.16,317.73H917.73v12.8h12.43Z" transform="translate(-123.75 0)"/><path class="cls-2" d="M930.16,296H917.73V308.8h12.43Z" transform="translate(-123.75 0)"/><path class="cls-2" d="M930.16,274.26H917.73v12.8h12.43Z" transform="translate(-123.75 0)"/><path class="cls-2" d="M930.16,252.52H917.73v12.8h12.43Z" transform="translate(-123.75 0)"/><path class="cls-2" d="M930.16,230.78H917.73v12.8h12.43Z" transform="translate(-123.75 0)"/><path class="cls-2" d="M930.16,209.05H917.73v12.8h12.43Z" transform="translate(-123.75 0)"/><path class="cls-2" d="M930.16,187.31H917.73v12.8h12.43Z" transform="translate(-123.75 0)"/><path class="cls-2" d="M930.16,165.57H917.73v12.8h12.43Z" transform="translate(-123.75 0)"/><path class="cls-2" d="M930.16,143.83H917.73v12.81h12.43Z" transform="translate(-123.75 0)"/><path class="cls-2" d="M930.16,122.1H917.73v12.8h12.43Z" transform="translate(-123.75 0)"/><path class="cls-2" d="M930.16,100.36H917.73v12.8h12.43Z" transform="translate(-123.75 0)"/><path class="cls-2" d="M930.16,78.62H917.73V91.43h12.43Z" transform="translate(-123.75 0)"/><path class="cls-2" d="M914.4,361.2H902V374H914.4Z" transform="translate(-123.75 0)"/><path class="cls-3" d="M990.52,67.73H940.09V403h50.43Z" transform="translate(-123.75 0)"/><path class="cls-4" d="M985.32,361.2H975.06V374h10.26Z" transform="translate(-123.75 0)"/><path class="cls-4" d="M972.19,361.2H961.92V374h10.27Z" transform="translate(-123.75 0)"/><path class="cls-4" d="M985.32,339.46H975.06v12.81h10.26Z" transform="translate(-123.75 0)"/><path class="cls-4" d="M972.19,339.46H961.92v12.81h10.27Z" transform="translate(-123.75 0)"/><path class="cls-4" d="M985.32,317.73H975.06v12.8h10.26Z" transform="translate(-123.75 0)"/><path class="cls-4" d="M972.19,317.73H961.92v12.8h10.27Z" transform="translate(-123.75 0)"/><path class="cls-4" d="M985.32,296H975.06V308.8h10.26Z" transform="translate(-123.75 0)"/><path class="cls-4" d="M972.19,296H961.92V308.8h10.27Z" transform="translate(-123.75 0)"/><path class="cls-4" d="M985.32,274.26H975.06v12.8h10.26Z" transform="translate(-123.75 0)"/><path class="cls-4" d="M972.19,274.26H961.92v12.8h10.27Z" transform="translate(-123.75 0)"/><path class="cls-4" d="M985.32,252.52H975.06v12.8h10.26Z" transform="translate(-123.75 0)"/><path class="cls-4" d="M972.19,252.52H961.92v12.8h10.27Z" transform="translate(-123.75 0)"/><path class="cls-4" d="M985.32,230.78H975.06v12.8h10.26Z" transform="translate(-123.75 0)"/><path class="cls-4" d="M972.19,230.78H961.92v12.8h10.27Z" transform="translate(-123.75 0)"/><path class="cls-4" d="M985.32,209.05H975.06v12.8h10.26Z" transform="translate(-123.75 0)"/><path class="cls-4" d="M972.19,209.05H961.92v12.8h10.27Z" transform="translate(-123.75 0)"/><path class="cls-4" d="M985.32,187.31H975.06v12.8h10.26Z" transform="translate(-123.75 0)"/><path class="cls-4" d="M972.19,187.31H961.92v12.8h10.27Z" transform="translate(-123.75 0)"/><path class="cls-4" d="M985.32,165.57H975.06v12.8h10.26Z" transform="translate(-123.75 0)"/><path class="cls-4" d="M972.19,165.57H961.92v12.8h10.27Z" transform="translate(-123.75 0)"/><path class="cls-4" d="M985.32,143.83H975.06v12.81h10.26Z" transform="translate(-123.75 0)"/><path class="cls-4" d="M972.19,143.83H961.92v12.81h10.27Z" transform="translate(-123.75 0)"/><path class="cls-4" d="M985.32,122.1H975.06v12.8h10.26Z" transform="translate(-123.75 0)"/><path class="cls-4" d="M972.19,122.1H961.92v12.8h10.27Z" transform="translate(-123.75 0)"/><path class="cls-4" d="M985.32,100.36H975.06v12.8h10.26Z" transform="translate(-123.75 0)"/><path class="cls-4" d="M972.19,100.36H961.92v12.8h10.27Z" transform="translate(-123.75 0)"/><path class="cls-4" d="M985.32,78.62H975.06V91.43h10.26Z" transform="translate(-123.75 0)"/><path class="cls-4" d="M959.17,78.62H948.9V91.43h10.27Z" transform="translate(-123.75 0)"/><path class="cls-4" d="M959.17,100.36H948.9v12.8h10.27Z" transform="translate(-123.75 0)"/><path class="cls-4" d="M959.17,122.1H948.9v12.8h10.27Z" transform="translate(-123.75 0)"/><path class="cls-4" d="M959.17,143.83H948.9v12.81h10.27Z" transform="translate(-123.75 0)"/><path class="cls-4" d="M959.17,165.57H948.9v12.81h10.27Z" transform="translate(-123.75 0)"/><path class="cls-4" d="M959.17,187.31H948.9v12.8h10.27Z" transform="translate(-123.75 0)"/><path class="cls-4" d="M959.17,209H948.9v12.81h10.27Z" transform="translate(-123.75 0)"/><path class="cls-4" d="M959.17,230.78H948.9v12.81h10.27Z" transform="translate(-123.75 0)"/><path class="cls-4" d="M959.17,252.52H948.9v12.8h10.27Z" transform="translate(-123.75 0)"/><path class="cls-4" d="M959.17,274.25H948.9v12.81h10.27Z" transform="translate(-123.75 0)"/><path class="cls-4" d="M959.17,296H948.9V308.8h10.27Z" transform="translate(-123.75 0)"/><path class="cls-4" d="M959.17,317.73H948.9v12.8h10.27Z" transform="translate(-123.75 0)"/><path class="cls-4" d="M959.17,339.47H948.9v12.8h10.27Z" transform="translate(-123.75 0)"/><path class="cls-4" d="M959.17,361.2H948.9V374h10.27Z" transform="translate(-123.75 0)"/><path class="cls-4" d="M972.19,78.62H961.92V91.43h10.27Z" transform="translate(-123.75 0)"/><path class="cls-1" d="M790.07,130.67h-7.8v14.2h7.8Z" transform="translate(-123.75 0)"/><path class="cls-1" d="M776.25,153.75h-7.8V168h7.8Z" transform="translate(-123.75 0)"/><path class="cls-1" d="M790.07,153.75h-7.8V168h7.8Z" transform="translate(-123.75 0)"/><path class="cls-1" d="M776.25,176.83h-7.8V191h7.8Z" transform="translate(-123.75 0)"/><path class="cls-1" d="M790.07,176.83h-7.8V191h7.8Z" transform="translate(-123.75 0)"/><path class="cls-1" d="M776.25,199.92h-7.8v14.2h7.8Z" transform="translate(-123.75 0)"/><path class="cls-1" d="M790.07,199.92h-7.8v14.2h7.8Z" transform="translate(-123.75 0)"/><path class="cls-1" d="M776.25,223h-7.8v14.2h7.8Z" transform="translate(-123.75 0)"/><path class="cls-1" d="M790.07,223h-7.8v14.2h7.8Z" transform="translate(-123.75 0)"/><path class="cls-1" d="M776.25,246.08h-7.8v14.2h7.8Z" transform="translate(-123.75 0)"/><path class="cls-1" d="M790.07,246.08h-7.8v14.2h7.8Z" transform="translate(-123.75 0)"/><path class="cls-1" d="M776.25,269.17h-7.8v14.2h7.8Z" transform="translate(-123.75 0)"/><path class="cls-1" d="M790.07,269.17h-7.8v14.2h7.8Z" transform="translate(-123.75 0)"/><path class="cls-1" d="M776.25,292.25h-7.8v14.2h7.8Z" transform="translate(-123.75 0)"/><path class="cls-1" d="M790.07,292.25h-7.8v14.2h7.8Z" transform="translate(-123.75 0)"/><path class="cls-1" d="M776.25,315.33h-7.8v14.2h7.8Z" transform="translate(-123.75 0)"/><path class="cls-1" d="M790.07,315.33h-7.8v14.2h7.8Z" transform="translate(-123.75 0)"/><path class="cls-1" d="M776.25,338.41h-7.8v14.21h7.8Z" transform="translate(-123.75 0)"/><path class="cls-1" d="M790.07,338.41h-7.8v14.21h7.8Z" transform="translate(-123.75 0)"/><path class="cls-1" d="M776.25,361.5h-7.8V403h7.8Z" transform="translate(-123.75 0)"/><path class="cls-1" d="M790.07,361.5h-7.8V403h7.8Z" transform="translate(-123.75 0)"/><path class="cls-2" d="M395.12,163H331.84V403h63.28Z" transform="translate(-123.75 0)"/><path class="cls-4" d="M395.13,147.11H340.84V163h54.29Z" transform="translate(-123.75 0)"/><path class="cls-1" d="M388.19,171.34H338.78V350.76h49.41Z" transform="translate(-123.75 0)"/><path class="cls-5" d="M388.19,188.46H338.78v4.24h49.41Z" transform="translate(-123.75 0)"/><path class="cls-5" d="M388.19,206H338.78v4.25h49.41Z" transform="translate(-123.75 0)"/><path class="cls-5" d="M388.19,223.59H338.78v4.24h49.41Z" transform="translate(-123.75 0)"/><path class="cls-5" d="M388.19,241.15H338.78v4.24h49.41Z" transform="translate(-123.75 0)"/><path class="cls-5" d="M388.19,258.71H338.78V263h49.41Z" transform="translate(-123.75 0)"/><path class="cls-5" d="M388.19,276.27H338.78v4.24h49.41Z" transform="translate(-123.75 0)"/><path class="cls-5" d="M388.19,293.84H338.78v4.24h49.41Z" transform="translate(-123.75 0)"/><path class="cls-5" d="M388.19,311.4H338.78v4.24h49.41Z" transform="translate(-123.75 0)"/><path class="cls-5" d="M388.19,329H338.78v4.24h49.41Z" transform="translate(-123.75 0)"/><path class="cls-5" d="M388.19,346.52H338.78v4.24h49.41Z" transform="translate(-123.75 0)"/><path class="cls-1" d="M434.77,163H395.13V403h39.64Z" transform="translate(-123.75 0)"/><path class="cls-3" d="M428.82,147.11H395.13V163h33.69Z" transform="translate(-123.75 0)"/><path class="cls-4" d="M431.07,171.34H400.59V350.76h30.48Z" transform="translate(-123.75 0)"/><path class="cls-5" d="M431.07,188.46H400.59v4.24h30.48Z" transform="translate(-123.75 0)"/><path class="cls-5" d="M431.07,206H400.59v4.25h30.48Z" transform="translate(-123.75 0)"/><path class="cls-5" d="M431.07,223.59H400.59v4.24h30.48Z" transform="translate(-123.75 0)"/><path class="cls-5" d="M431.07,241.15H400.59v4.24h30.48Z" transform="translate(-123.75 0)"/><path class="cls-5" d="M431.07,258.71H400.59V263h30.48Z" transform="translate(-123.75 0)"/><path class="cls-5" d="M431.07,276.27H400.59v4.24h30.48Z" transform="translate(-123.75 0)"/><path class="cls-5" d="M431.07,293.84H400.59v4.24h30.48Z" transform="translate(-123.75 0)"/><path class="cls-5" d="M431.07,311.4H400.59v4.24h30.48Z" transform="translate(-123.75 0)"/><path class="cls-5" d="M431.07,329H400.59v4.24h30.48Z" transform="translate(-123.75 0)"/><path class="cls-5" d="M431.07,346.52H400.59v4.24h30.48Z" transform="translate(-123.75 0)"/><path class="cls-1" d="M998.17,167.08H964.38V207h33.79Z" transform="translate(-123.75 0)"/><path class="cls-4" d="M1019.61,167.08H998.17v41.39h21.44Z" transform="translate(-123.75 0)"/><path class="cls-1" d="M1021,184.71H999.76v23.76H1021Z" transform="translate(-123.75 0)"/><path class="cls-4" d="M1034.3,184.71H1021v23.76h13.27Z" transform="translate(-123.75 0)"/><path class="cls-2" d="M1006.06,204.41H951.41V403h54.65Z" transform="translate(-123.75 0)"/><path class="cls-5" d="M974.84,213H957.66v7h17.18Z" transform="translate(-123.75 0)"/><path class="cls-5" d="M996.83,213H979.64v7h17.19Z" transform="translate(-123.75 0)"/><path class="cls-5" d="M974.84,224.87H957.66v7h17.18Z" transform="translate(-123.75 0)"/><path class="cls-5" d="M996.83,224.87H979.64v7h17.19Z" transform="translate(-123.75 0)"/><path class="cls-5" d="M974.84,236.79H957.66v7h17.18Z" transform="translate(-123.75 0)"/><path class="cls-5" d="M996.83,236.79H979.64v7h17.19Z" transform="translate(-123.75 0)"/><path class="cls-5" d="M974.84,248.72H957.66v7h17.18Z" transform="translate(-123.75 0)"/><path class="cls-5" d="M996.83,248.72H979.64v7h17.19Z" transform="translate(-123.75 0)"/><path class="cls-5" d="M974.84,260.64H957.66v7h17.18Z" transform="translate(-123.75 0)"/><path class="cls-5" d="M996.83,260.64H979.64v7h17.19Z" transform="translate(-123.75 0)"/><path class="cls-5" d="M974.84,272.56H957.66v7h17.18Z" transform="translate(-123.75 0)"/><path class="cls-5" d="M996.83,272.56H979.64v7h17.19Z" transform="translate(-123.75 0)"/><path class="cls-5" d="M974.84,284.48H957.66v7h17.18Z" transform="translate(-123.75 0)"/><path class="cls-5" d="M996.83,284.48H979.64v7h17.19Z" transform="translate(-123.75 0)"/><path class="cls-5" d="M974.84,296.4H957.66v7h17.18Z" transform="translate(-123.75 0)"/><path class="cls-5" d="M996.83,296.4H979.64v7h17.19Z" transform="translate(-123.75 0)"/><path class="cls-5" d="M974.84,308.33H957.66v7h17.18Z" transform="translate(-123.75 0)"/><path class="cls-5" d="M996.83,308.33H979.64v7h17.19Z" transform="translate(-123.75 0)"/><path class="cls-5" d="M974.84,320.25H957.66v7h17.18Z" transform="translate(-123.75 0)"/><path class="cls-5" d="M996.83,320.25H979.64v7h17.19Z" transform="translate(-123.75 0)"/><path class="cls-5" d="M974.84,332.17H957.66v7h17.18Z" transform="translate(-123.75 0)"/><path class="cls-5" d="M996.83,332.17H979.64v7h17.19Z" transform="translate(-123.75 0)"/><path class="cls-5" d="M974.84,344.09H957.66v7h17.18Z" transform="translate(-123.75 0)"/><path class="cls-5" d="M996.83,344.09H979.64v7h17.19Z" transform="translate(-123.75 0)"/><path class="cls-5" d="M974.84,356H957.66v7h17.18Z" transform="translate(-123.75 0)"/><path class="cls-5" d="M996.83,356H979.64v7h17.19Z" transform="translate(-123.75 0)"/><path class="cls-5" d="M974.84,367.94H957.66v7h17.18Z" transform="translate(-123.75 0)"/><path class="cls-5" d="M996.83,367.94H979.64v7h17.19Z" transform="translate(-123.75 0)"/><path class="cls-4" d="M1050.35,204.41h-44.29V403h44.29Z" transform="translate(-123.75 0)"/><path class="cls-2" d="M1045.91,367.94H1031.8v7h14.11Z" transform="translate(-123.75 0)"/><path class="cls-2" d="M1027.86,367.94h-14.11v7h14.11Z" transform="translate(-123.75 0)"/><path class="cls-2" d="M1045.91,356H1031.8v7h14.11Z" transform="translate(-123.75 0)"/><path class="cls-2" d="M1027.86,356h-14.11v7h14.11Z" transform="translate(-123.75 0)"/><path class="cls-2" d="M1045.91,344.09H1031.8v7h14.11Z" transform="translate(-123.75 0)"/><path class="cls-2" d="M1027.86,344.09h-14.11v7h14.11Z" transform="translate(-123.75 0)"/><path class="cls-2" d="M1045.91,332.17H1031.8v7h14.11Z" transform="translate(-123.75 0)"/><path class="cls-2" d="M1027.86,332.17h-14.11v7h14.11Z" transform="translate(-123.75 0)"/><path class="cls-2" d="M1045.91,320.25H1031.8v7h14.11Z" transform="translate(-123.75 0)"/><path class="cls-2" d="M1027.86,320.25h-14.11v7h14.11Z" transform="translate(-123.75 0)"/><path class="cls-2" d="M1045.91,308.33H1031.8v7h14.11Z" transform="translate(-123.75 0)"/><path class="cls-2" d="M1027.86,308.33h-14.11v7h14.11Z" transform="translate(-123.75 0)"/><path class="cls-2" d="M1045.91,296.4H1031.8v7h14.11Z" transform="translate(-123.75 0)"/><path class="cls-2" d="M1027.86,296.4h-14.11v7h14.11Z" transform="translate(-123.75 0)"/><path class="cls-2" d="M1045.91,284.48H1031.8v7h14.11Z" transform="translate(-123.75 0)"/><path class="cls-2" d="M1027.86,284.48h-14.11v7h14.11Z" transform="translate(-123.75 0)"/><path class="cls-2" d="M1045.91,272.56H1031.8v7h14.11Z" transform="translate(-123.75 0)"/><path class="cls-2" d="M1027.86,272.56h-14.11v7h14.11Z" transform="translate(-123.75 0)"/><path class="cls-2" d="M1045.91,260.64H1031.8v7h14.11Z" transform="translate(-123.75 0)"/><path class="cls-2" d="M1027.86,260.64h-14.11v7h14.11Z" transform="translate(-123.75 0)"/><path class="cls-2" d="M1045.91,248.71H1031.8v7h14.11Z" transform="translate(-123.75 0)"/><path class="cls-2" d="M1027.86,248.71h-14.11v7h14.11Z" transform="translate(-123.75 0)"/><path class="cls-2" d="M1045.91,236.79H1031.8v7h14.11Z" transform="translate(-123.75 0)"/><path class="cls-2" d="M1027.86,236.79h-14.11v7h14.11Z" transform="translate(-123.75 0)"/><path class="cls-2" d="M1045.91,224.87H1031.8v7h14.11Z" transform="translate(-123.75 0)"/><path class="cls-2" d="M1027.86,224.87h-14.11v7h14.11Z" transform="translate(-123.75 0)"/><path class="cls-2" d="M1045.91,213H1031.8v7h14.11Z" transform="translate(-123.75 0)"/><path class="cls-2" d="M1027.86,213h-14.11v7h14.11Z" transform="translate(-123.75 0)"/><path class="cls-1" d="M170.52,167.08h-33.8V207h33.8Z" transform="translate(-123.75 0)"/><path class="cls-4" d="M192,167.08H170.52v41.39H192Z" transform="translate(-123.75 0)"/><path class="cls-1" d="M193.37,184.71H172.1v23.76h21.27Z" transform="translate(-123.75 0)"/><path class="cls-4" d="M206.64,184.71H193.38v23.76h13.26Z" transform="translate(-123.75 0)"/><path class="cls-2" d="M178.41,204.41H123.75V403h54.66Z" transform="translate(-123.75 0)"/><path class="cls-5" d="M147.19,213H130v7h17.19Z" transform="translate(-123.75 0)"/><path class="cls-5" d="M169.17,213H152v7h17.18Z" transform="translate(-123.75 0)"/><path class="cls-5" d="M147.19,224.87H130v7h17.19Z" transform="translate(-123.75 0)"/><path class="cls-5" d="M169.17,224.87H152v7h17.18Z" transform="translate(-123.75 0)"/><path class="cls-5" d="M147.19,236.79H130v7h17.19Z" transform="translate(-123.75 0)"/><path class="cls-5" d="M169.17,236.79H152v7h17.18Z" transform="translate(-123.75 0)"/><path class="cls-5" d="M147.19,248.72H130v7h17.19Z" transform="translate(-123.75 0)"/><path class="cls-5" d="M169.17,248.72H152v7h17.18Z" transform="translate(-123.75 0)"/><path class="cls-5" d="M147.19,260.64H130v7h17.19Z" transform="translate(-123.75 0)"/><path class="cls-5" d="M169.17,260.64H152v7h17.18Z" transform="translate(-123.75 0)"/><path class="cls-5" d="M147.19,272.56H130v7h17.19Z" transform="translate(-123.75 0)"/><path class="cls-5" d="M169.17,272.56H152v7h17.18Z" transform="translate(-123.75 0)"/><path class="cls-5" d="M147.19,284.48H130v7h17.19Z" transform="translate(-123.75 0)"/><path class="cls-5" d="M169.17,284.48H152v7h17.18Z" transform="translate(-123.75 0)"/><path class="cls-5" d="M147.19,296.4H130v7h17.19Z" transform="translate(-123.75 0)"/><path class="cls-5" d="M169.17,296.4H152v7h17.18Z" transform="translate(-123.75 0)"/><path class="cls-5" d="M147.19,308.33H130v7h17.19Z" transform="translate(-123.75 0)"/><path class="cls-5" d="M169.17,308.33H152v7h17.18Z" transform="translate(-123.75 0)"/><path class="cls-5" d="M147.19,320.25H130v7h17.19Z" transform="translate(-123.75 0)"/><path class="cls-5" d="M169.17,320.25H152v7h17.18Z" transform="translate(-123.75 0)"/><path class="cls-5" d="M147.19,332.17H130v7h17.19Z" transform="translate(-123.75 0)"/><path class="cls-5" d="M169.17,332.17H152v7h17.18Z" transform="translate(-123.75 0)"/><path class="cls-5" d="M147.19,344.09H130v7h17.19Z" transform="translate(-123.75 0)"/><path class="cls-5" d="M169.17,344.09H152v7h17.18Z" transform="translate(-123.75 0)"/><path class="cls-5" d="M147.19,356H130v7h17.19Z" transform="translate(-123.75 0)"/><path class="cls-5" d="M169.17,356H152v7h17.18Z" transform="translate(-123.75 0)"/><path class="cls-5" d="M147.19,367.94H130v7h17.19Z" transform="translate(-123.75 0)"/><path class="cls-5" d="M169.17,367.94H152v7h17.18Z" transform="translate(-123.75 0)"/><path class="cls-4" d="M222.69,204.41H178.41V403h44.28Z" transform="translate(-123.75 0)"/><path class="cls-2" d="M218.26,367.94H204.14v7h14.12Z" transform="translate(-123.75 0)"/><path class="cls-2" d="M200.2,367.94H186.09v7H200.2Z" transform="translate(-123.75 0)"/><path class="cls-2" d="M218.26,356H204.14v7h14.12Z" transform="translate(-123.75 0)"/><path class="cls-2" d="M200.2,356H186.09v7H200.2Z" transform="translate(-123.75 0)"/><path class="cls-2" d="M218.26,344.09H204.14v7h14.12Z" transform="translate(-123.75 0)"/><path class="cls-2" d="M200.2,344.09H186.09v7H200.2Z" transform="translate(-123.75 0)"/><path class="cls-2" d="M218.26,332.17H204.14v7h14.12Z" transform="translate(-123.75 0)"/><path class="cls-2" d="M200.2,332.17H186.09v7H200.2Z" transform="translate(-123.75 0)"/><path class="cls-2" d="M218.26,320.25H204.14v7h14.12Z" transform="translate(-123.75 0)"/><path class="cls-2" d="M200.2,320.25H186.09v7H200.2Z" transform="translate(-123.75 0)"/><path class="cls-2" d="M218.26,308.33H204.14v7h14.12Z" transform="translate(-123.75 0)"/><path class="cls-2" d="M200.2,308.33H186.09v7H200.2Z" transform="translate(-123.75 0)"/><path class="cls-2" d="M218.26,296.4H204.14v7h14.12Z" transform="translate(-123.75 0)"/><path class="cls-2" d="M200.2,296.4H186.09v7H200.2Z" transform="translate(-123.75 0)"/><path class="cls-2" d="M218.26,284.48H204.14v7h14.12Z" transform="translate(-123.75 0)"/><path class="cls-2" d="M200.2,284.48H186.09v7H200.2Z" transform="translate(-123.75 0)"/><path class="cls-2" d="M218.26,272.56H204.14v7h14.12Z" transform="translate(-123.75 0)"/><path class="cls-2" d="M200.2,272.56H186.09v7H200.2Z" transform="translate(-123.75 0)"/><path class="cls-2" d="M218.26,260.64H204.14v7h14.12Z" transform="translate(-123.75 0)"/><path class="cls-2" d="M200.2,260.64H186.09v7H200.2Z" transform="translate(-123.75 0)"/><path class="cls-2" d="M218.26,248.71H204.14v7h14.12Z" transform="translate(-123.75 0)"/><path class="cls-2" d="M200.2,248.71H186.09v7H200.2Z" transform="translate(-123.75 0)"/><path class="cls-2" d="M218.26,236.79H204.14v7h14.12Z" transform="translate(-123.75 0)"/><path class="cls-2" d="M200.2,236.79H186.09v7H200.2Z" transform="translate(-123.75 0)"/><path class="cls-2" d="M218.26,224.87H204.14v7h14.12Z" transform="translate(-123.75 0)"/><path class="cls-2" d="M200.2,224.87H186.09v7H200.2Z" transform="translate(-123.75 0)"/><path class="cls-2" d="M218.26,213H204.14v7h14.12Z" transform="translate(-123.75 0)"/><path class="cls-2" d="M200.2,213H186.09v7H200.2Z" transform="translate(-123.75 0)"/><path class="cls-4" d="M627.45,273.61H563V403h64.47Z" transform="translate(-123.75 0)"/><path class="cls-1" d="M584.53,284.81H573.12v7.93h11.41Z" transform="translate(-123.75 0)"/><path class="cls-1" d="M584.53,301.75H573.12v7.93h11.41Z" transform="translate(-123.75 0)"/><path class="cls-1" d="M584.53,318.69H573.12v7.93h11.41Z" transform="translate(-123.75 0)"/><path class="cls-1" d="M584.53,335.63H573.12v7.92h11.41Z" transform="translate(-123.75 0)"/><path class="cls-1" d="M584.53,352.56H573.12v7.93h11.41Z" transform="translate(-123.75 0)"/><path class="cls-1" d="M584.53,369.5H573.12v7.93h11.41Z" transform="translate(-123.75 0)"/><path class="cls-1" d="M584.53,386.44H573.12v7.92h11.41Z" transform="translate(-123.75 0)"/><path class="cls-1" d="M600.94,284.81H589.53v7.93h11.41Z" transform="translate(-123.75 0)"/><path class="cls-1" d="M600.94,301.75H589.53v7.93h11.41Z" transform="translate(-123.75 0)"/><path class="cls-1" d="M600.94,318.69H589.53v7.93h11.41Z" transform="translate(-123.75 0)"/><path class="cls-1" d="M600.94,335.63H589.53v7.92h11.41Z" transform="translate(-123.75 0)"/><path class="cls-1" d="M600.94,352.56H589.53v7.93h11.41Z" transform="translate(-123.75 0)"/><path class="cls-1" d="M600.94,369.5H589.53v7.93h11.41Z" transform="translate(-123.75 0)"/><path class="cls-1" d="M600.94,386.44H589.53v7.92h11.41Z" transform="translate(-123.75 0)"/><path class="cls-1" d="M617.31,284.81H605.9v7.93h11.41Z" transform="translate(-123.75 0)"/><path class="cls-1" d="M617.31,301.75H605.9v7.93h11.41Z" transform="translate(-123.75 0)"/><path class="cls-1" d="M617.31,318.69H605.9v7.93h11.41Z" transform="translate(-123.75 0)"/><path class="cls-1" d="M617.31,335.63H605.9v7.92h11.41Z" transform="translate(-123.75 0)"/><path class="cls-1" d="M617.31,352.56H605.9v7.93h11.41Z" transform="translate(-123.75 0)"/><path class="cls-1" d="M617.31,369.5H605.9v7.93h11.41Z" transform="translate(-123.75 0)"/><path class="cls-1" d="M617.31,386.44H605.9v7.92h11.41Z" transform="translate(-123.75 0)"/><path class="cls-1" d="M627.45,260.12H584.53v13.49h42.92Z" transform="translate(-123.75 0)"/><path class="cls-2" d="M627.45,251.77H600.24v8.35h27.21Z" transform="translate(-123.75 0)"/><path class="cls-3" d="M672.67,273.61H627.45V403h45.22Z" transform="translate(-123.75 0)"/><path class="cls-4" d="M668.05,385.17h-9.29v7.93h9.29Z" transform="translate(-123.75 0)"/><path class="cls-4" d="M668.05,368.24h-9.29v7.93h9.29Z" transform="translate(-123.75 0)"/><path class="cls-4" d="M668.05,351.3h-9.29v7.93h9.29Z" transform="translate(-123.75 0)"/><path class="cls-4" d="M668.05,334.36h-9.29v7.93h9.29Z" transform="translate(-123.75 0)"/><path class="cls-4" d="M668.05,317.42h-9.29v7.93h9.29Z" transform="translate(-123.75 0)"/><path class="cls-4" d="M668.05,300.49h-9.29v7.93h9.29Z" transform="translate(-123.75 0)"/><path class="cls-4" d="M668.05,283.55h-9.29v7.93h9.29Z" transform="translate(-123.75 0)"/><path class="cls-4" d="M654.69,385.17H645.4v7.93h9.29Z" transform="translate(-123.75 0)"/><path class="cls-4" d="M654.69,368.24H645.4v7.93h9.29Z" transform="translate(-123.75 0)"/><path class="cls-4" d="M654.69,351.3H645.4v7.93h9.29Z" transform="translate(-123.75 0)"/><path class="cls-4" d="M654.69,334.36H645.4v7.93h9.29Z" transform="translate(-123.75 0)"/><path class="cls-4" d="M654.69,317.42H645.4v7.93h9.29Z" transform="translate(-123.75 0)"/><path class="cls-4" d="M654.69,300.49H645.4v7.93h9.29Z" transform="translate(-123.75 0)"/><path class="cls-4" d="M654.69,283.55H645.4v7.93h9.29Z" transform="translate(-123.75 0)"/><path class="cls-4" d="M641.36,385.17h-9.28v7.93h9.28Z" transform="translate(-123.75 0)"/><path class="cls-4" d="M641.36,368.24h-9.28v7.93h9.28Z" transform="translate(-123.75 0)"/><path class="cls-4" d="M641.36,351.3h-9.28v7.93h9.28Z" transform="translate(-123.75 0)"/><path class="cls-4" d="M641.36,334.36h-9.28v7.93h9.28Z" transform="translate(-123.75 0)"/><path class="cls-4" d="M641.36,317.42h-9.28v7.93h9.28Z" transform="translate(-123.75 0)"/><path class="cls-4" d="M641.36,300.49h-9.28v7.93h9.28Z" transform="translate(-123.75 0)"/><path class="cls-4" d="M641.36,283.55h-9.28v7.93h9.28Z" transform="translate(-123.75 0)"/><path class="cls-4" d="M665.82,260.12H627.45v13.49h38.37Z" transform="translate(-123.75 0)"/><path class="cls-1" d="M648.24,251.77H627.45v8.35h20.79Z" transform="translate(-123.75 0)"/><path class="cls-6" d="M531.47,403H467.78V203.25L531.47,162Z" transform="translate(-123.75 0)"/><path class="cls-7" d="M523.28,403H475V208.84l48.33-31.32Z" transform="translate(-123.75 0)"/><path class="cls-6" d="M523.28,212.2h-42.8v1.54h42.8Z" transform="translate(-123.75 0)"/><path class="cls-6" d="M523.28,224.82h-42.8v1.54h42.8Z" transform="translate(-123.75 0)"/><path class="cls-6" d="M523.28,237.44h-42.8V239h42.8Z" transform="translate(-123.75 0)"/><path class="cls-6" d="M523.28,250.06h-42.8v1.54h42.8Z" transform="translate(-123.75 0)"/><path class="cls-6" d="M523.28,262.68h-42.8v1.54h42.8Z" transform="translate(-123.75 0)"/><path class="cls-6" d="M523.28,275.3h-42.8v1.54h42.8Z" transform="translate(-123.75 0)"/><path class="cls-6" d="M523.28,287.92h-42.8v1.54h42.8Z" transform="translate(-123.75 0)"/><path class="cls-6" d="M523.28,300.54h-42.8v1.54h42.8Z" transform="translate(-123.75 0)"/><path class="cls-6" d="M523.28,313.16h-42.8v1.54h42.8Z" transform="translate(-123.75 0)"/><path class="cls-6" d="M523.28,325.78h-42.8v1.54h42.8Z" transform="translate(-123.75 0)"/><path class="cls-6" d="M523.28,338.4h-42.8v1.54h42.8Z" transform="translate(-123.75 0)"/><path class="cls-6" d="M523.28,351h-42.8v1.54h42.8Z" transform="translate(-123.75 0)"/><path class="cls-6" d="M523.28,363.64h-42.8v1.54h42.8Z" transform="translate(-123.75 0)"/><path class="cls-6" d="M523.28,376.26h-42.8v1.54h42.8Z" transform="translate(-123.75 0)"/><path class="cls-6" d="M523.28,388.88h-42.8v1.54h42.8Z" transform="translate(-123.75 0)"/><path class="cls-8" d="M523.28,401.5h-42.8V403h42.8Z" transform="translate(-123.75 0)"/><path class="cls-6" d="M502.65,197.54h-1.54V403h1.54Z" transform="translate(-123.75 0)"/><path class="cls-6" d="M523.28,177.51v7l-42.8,27.74V403H475V208.84Z" transform="translate(-123.75 0)"/><path class="cls-9" d="M523.28,177.51v7l-42.8,27.74V403H475V208.84Z" transform="translate(-123.75 0)"/><path class="cls-6" d="M587.58,162H531.47V403h56.11Z" transform="translate(-123.75 0)"/><path class="cls-10" d="M582.13,178.52H536.91V184h45.22Z" transform="translate(-123.75 0)"/><path class="cls-10" d="M582.13,189.88H536.91v5.45h45.22Z" transform="translate(-123.75 0)"/><path class="cls-10" d="M582.13,202.24H536.91v5.45h45.22Z" transform="translate(-123.75 0)"/><path class="cls-10" d="M582.13,214.6H536.91v5.46h45.22Z" transform="translate(-123.75 0)"/><path class="cls-10" d="M582.13,227H536.91v5.46h45.22Z" transform="translate(-123.75 0)"/><path class="cls-10" d="M582.13,239.32H536.91v5.46h45.22Z" transform="translate(-123.75 0)"/><path class="cls-10" d="M582.13,251.69H536.91v5.45h45.22Z" transform="translate(-123.75 0)"/><path class="cls-10" d="M582.13,264.05H536.91v5.46h45.22Z" transform="translate(-123.75 0)"/><path class="cls-10" d="M582.13,276.41H536.91v5.46h45.22Z" transform="translate(-123.75 0)"/><path class="cls-10" d="M582.13,288.77H536.91v5.46h45.22Z" transform="translate(-123.75 0)"/><path class="cls-10" d="M582.13,301.14H536.91v5.45h45.22Z" transform="translate(-123.75 0)"/><path class="cls-10" d="M582.13,313.5H536.91V319h45.22Z" transform="translate(-123.75 0)"/><path class="cls-10" d="M582.13,325.86H536.91v5.46h45.22Z" transform="translate(-123.75 0)"/><path class="cls-10" d="M582.13,338.22H536.91v5.46h45.22Z" transform="translate(-123.75 0)"/><path class="cls-10" d="M582.13,350.59H536.91V356h45.22Z" transform="translate(-123.75 0)"/><path class="cls-10" d="M582.13,363H536.91v5.45h45.22Z" transform="translate(-123.75 0)"/><path class="cls-10" d="M582.13,375.31H536.91v5.45h45.22Z" transform="translate(-123.75 0)"/><path class="cls-10" d="M582.13,387.67H536.91v5.46h45.22Z" transform="translate(-123.75 0)"/><path class="cls-6" d="M1266.6,403h-63.68V203.25L1266.6,162Z" transform="translate(-123.75 0)"/><path class="cls-7" d="M1258.42,403h-48.34V208.84l48.34-31.32Z" transform="translate(-123.75 0)"/><path class="cls-6" d="M1258.42,212.2h-42.8v1.54h42.8Z" transform="translate(-123.75 0)"/><path class="cls-6" d="M1258.42,224.82h-42.8v1.54h42.8Z" transform="translate(-123.75 0)"/><path class="cls-6" d="M1258.42,237.44h-42.8V239h42.8Z" transform="translate(-123.75 0)"/><path class="cls-6" d="M1258.42,250.06h-42.8v1.54h42.8Z" transform="translate(-123.75 0)"/><path class="cls-6" d="M1258.42,262.68h-42.8v1.54h42.8Z" transform="translate(-123.75 0)"/><path class="cls-6" d="M1258.42,275.3h-42.8v1.54h42.8Z" transform="translate(-123.75 0)"/><path class="cls-6" d="M1258.42,287.92h-42.8v1.54h42.8Z" transform="translate(-123.75 0)"/><path class="cls-6" d="M1258.42,300.54h-42.8v1.54h42.8Z" transform="translate(-123.75 0)"/><path class="cls-6" d="M1258.42,313.16h-42.8v1.54h42.8Z" transform="translate(-123.75 0)"/><path class="cls-6" d="M1258.42,325.78h-42.8v1.54h42.8Z" transform="translate(-123.75 0)"/><path class="cls-6" d="M1258.42,338.4h-42.8v1.54h42.8Z" transform="translate(-123.75 0)"/><path class="cls-6" d="M1258.42,351h-42.8v1.54h42.8Z" transform="translate(-123.75 0)"/><path class="cls-6" d="M1258.42,363.64h-42.8v1.54h42.8Z" transform="translate(-123.75 0)"/><path class="cls-6" d="M1258.42,376.26h-42.8v1.54h42.8Z" transform="translate(-123.75 0)"/><path class="cls-6" d="M1258.42,388.88h-42.8v1.54h42.8Z" transform="translate(-123.75 0)"/><path class="cls-6" d="M1258.42,401.5h-42.8V403h42.8Z" transform="translate(-123.75 0)"/><path class="cls-6" d="M1237.79,197.54h-1.54V403h1.54Z" transform="translate(-123.75 0)"/><path class="cls-6" d="M1258.42,177.51v7l-42.8,27.74V403h-5.53V208.84Z" transform="translate(-123.75 0)"/><path class="cls-9" d="M1258.42,177.51v7l-42.8,27.74V403h-5.53V208.84Z" transform="translate(-123.75 0)"/><path class="cls-6" d="M1322.71,162H1266.6V403h56.11Z" transform="translate(-123.75 0)"/><path class="cls-11" d="M1322.71,162H1266.6V403h56.11Z" transform="translate(-123.75 0)"/><path class="cls-12" d="M1317.27,177.51h-45.22V183h45.22Z" transform="translate(-123.75 0)"/><path class="cls-12" d="M1317.27,189.88h-45.22v5.45h45.22Z" transform="translate(-123.75 0)"/><path class="cls-12" d="M1317.27,202.24h-45.22v5.45h45.22Z" transform="translate(-123.75 0)"/><path class="cls-12" d="M1317.27,214.6h-45.22v5.46h45.22Z" transform="translate(-123.75 0)"/><path class="cls-12" d="M1317.27,227h-45.22v5.46h45.22Z" transform="translate(-123.75 0)"/><path class="cls-12" d="M1317.27,239.32h-45.22v5.46h45.22Z" transform="translate(-123.75 0)"/><path class="cls-12" d="M1317.27,251.69h-45.22v5.45h45.22Z" transform="translate(-123.75 0)"/><path class="cls-12" d="M1317.27,264.05h-45.22v5.46h45.22Z" transform="translate(-123.75 0)"/><path class="cls-12" d="M1317.27,276.41h-45.22v5.46h45.22Z" transform="translate(-123.75 0)"/><path class="cls-12" d="M1317.27,288.77h-45.22v5.46h45.22Z" transform="translate(-123.75 0)"/><path class="cls-12" d="M1317.27,301.14h-45.22v5.45h45.22Z" transform="translate(-123.75 0)"/><path class="cls-12" d="M1317.27,313.5h-45.22V319h45.22Z" transform="translate(-123.75 0)"/><path class="cls-12" d="M1317.27,325.86h-45.22v5.46h45.22Z" transform="translate(-123.75 0)"/><path class="cls-12" d="M1317.27,338.22h-45.22v5.46h45.22Z" transform="translate(-123.75 0)"/><path class="cls-12" d="M1317.27,350.59h-45.22V356h45.22Z" transform="translate(-123.75 0)"/><path class="cls-12" d="M1317.27,363h-45.22v5.45h45.22Z" transform="translate(-123.75 0)"/><path class="cls-12" d="M1317.27,375.31h-45.22v5.45h45.22Z" transform="translate(-123.75 0)"/><path class="cls-12" d="M1317.27,387.67h-45.22v5.46h45.22Z" transform="translate(-123.75 0)"/><path class="cls-13" d="M1082.14,167.85h-76.6V403h76.6Z" transform="translate(-123.75 0)"/><path class="cls-14" d="M1081.85,144.19h-57.31v23.66h57.31Z" transform="translate(-123.75 0)"/><path class="cls-13" d="M1034.21,147.84h-4.9V164.2h4.9Z" transform="translate(-123.75 0)"/><path class="cls-13" d="M1042.78,147.84h-4.9V164.2h4.9Z" transform="translate(-123.75 0)"/><path class="cls-13" d="M1051.36,147.84h-4.9V164.2h4.9Z" transform="translate(-123.75 0)"/><path class="cls-13" d="M1059.93,147.84H1055V164.2h4.9Z" transform="translate(-123.75 0)"/><path class="cls-13" d="M1068.51,147.84h-4.9V164.2h4.9Z" transform="translate(-123.75 0)"/><path class="cls-13" d="M1077.08,147.84h-4.9V164.2h4.9Z" transform="translate(-123.75 0)"/><path class="cls-13" d="M1107.92,144.19h-26.07v23.66h26.07Z" transform="translate(-123.75 0)"/><path class="cls-14" d="M1089.68,147.84h-4.17V164.2h4.17Z" transform="translate(-123.75 0)"/><path class="cls-14" d="M1097,147.84h-4.17V164.2H1097Z" transform="translate(-123.75 0)"/><path class="cls-14" d="M1104.26,147.84h-4.17V164.2h4.17Z" transform="translate(-123.75 0)"/><path class="cls-14" d="M1120.84,167.85h-39V403h39Z" transform="translate(-123.75 0)"/><path class="cls-15" d="M1037.16,132.21h-1.75v12h1.75Z" transform="translate(-123.75 0)"/><path class="cls-15" d="M1071,132.21h-1.75v12H1071Z" transform="translate(-123.75 0)"/><path class="cls-6" d="M1078.75,111.24h-51.11v21h51.11Z" transform="translate(-123.75 0)"/><path class="cls-16" d="M1035.36,184.05h-14.14V205.7h14.14Z" transform="translate(-123.75 0)"/><path class="cls-16" d="M1064.14,184.05H1050V205.7h14.14Z" transform="translate(-123.75 0)"/><path class="cls-16" d="M1035.36,218.17h-14.14v21.64h14.14Z" transform="translate(-123.75 0)"/><path class="cls-16" d="M1064.14,218.17H1050v21.64h14.14Z" transform="translate(-123.75 0)"/><path class="cls-16" d="M1035.36,252.28h-14.14v21.65h14.14Z" transform="translate(-123.75 0)"/><path class="cls-16" d="M1064.14,252.28H1050v21.65h14.14Z" transform="translate(-123.75 0)"/><path class="cls-16" d="M1035.36,286.4h-14.14v21.65h14.14Z" transform="translate(-123.75 0)"/><path class="cls-16" d="M1064.14,286.4H1050v21.65h14.14Z" transform="translate(-123.75 0)"/><path class="cls-16" d="M1035.36,320.51h-14.14v21.65h14.14Z" transform="translate(-123.75 0)"/><path class="cls-16" d="M1064.14,320.51H1050v21.65h14.14Z" transform="translate(-123.75 0)"/><path class="cls-16" d="M1035.36,354.63h-14.14v21.65h14.14Z" transform="translate(-123.75 0)"/><path class="cls-16" d="M1064.14,354.63H1050v21.65h14.14Z" transform="translate(-123.75 0)"/><path class="cls-15" d="M1097.14,184.05H1089V205.7h8.12Z" transform="translate(-123.75 0)"/><path class="cls-15" d="M1113.68,184.05h-8.13V205.7h8.13Z" transform="translate(-123.75 0)"/><path class="cls-15" d="M1097.14,218.17H1089v21.64h8.12Z" transform="translate(-123.75 0)"/><path class="cls-15" d="M1113.68,218.17h-8.13v21.64h8.13Z" transform="translate(-123.75 0)"/><path class="cls-15" d="M1097.14,252.28H1089v21.65h8.12Z" transform="translate(-123.75 0)"/><path class="cls-15" d="M1113.68,252.28h-8.13v21.65h8.13Z" transform="translate(-123.75 0)"/><path class="cls-15" d="M1097.14,286.4H1089v21.65h8.12Z" transform="translate(-123.75 0)"/><path class="cls-15" d="M1113.68,286.4h-8.13v21.65h8.13Z" transform="translate(-123.75 0)"/><path class="cls-15" d="M1097.14,320.51H1089v21.65h8.12Z" transform="translate(-123.75 0)"/><path class="cls-15" d="M1113.68,320.51h-8.13v21.65h8.13Z" transform="translate(-123.75 0)"/><path class="cls-15" d="M1097.14,354.63H1089v21.65h8.12Z" transform="translate(-123.75 0)"/><path class="cls-15" d="M1113.68,354.63h-8.13v21.65h8.13Z" transform="translate(-123.75 0)"/><path class="cls-14" d="M489.81,86H441.37V403h48.44Z" transform="translate(-123.75 0)"/><path class="cls-13" d="M489.81,103.75H441.37v3.33h48.44Z" transform="translate(-123.75 0)"/><path class="cls-15" d="M455.28,116.88h-8.92v18.54h8.92Z" transform="translate(-123.75 0)"/><path class="cls-15" d="M455.28,140.27h-8.92v18.54h8.92Z" transform="translate(-123.75 0)"/><path class="cls-15" d="M455.28,163.66h-8.92V182.2h8.92Z" transform="translate(-123.75 0)"/><path class="cls-15" d="M455.28,187h-8.92v18.54h8.92Z" transform="translate(-123.75 0)"/><path class="cls-15" d="M455.28,210.42h-8.92V229h8.92Z" transform="translate(-123.75 0)"/><path class="cls-15" d="M455.28,233.81h-8.92v18.54h8.92Z" transform="translate(-123.75 0)"/><path class="cls-15" d="M455.28,257.19h-8.92v18.54h8.92Z" transform="translate(-123.75 0)"/><path class="cls-15" d="M455.28,280.58h-8.92v18.53h8.92Z" transform="translate(-123.75 0)"/><path class="cls-15" d="M455.28,304h-8.92v18.54h8.92Z" transform="translate(-123.75 0)"/><path class="cls-15" d="M455.28,327.34h-8.92v18.54h8.92Z" transform="translate(-123.75 0)"/><path class="cls-15" d="M455.28,350.73h-8.92v18.54h8.92Z" transform="translate(-123.75 0)"/><path class="cls-15" d="M455.28,374.12h-8.92v18.54h8.92Z" transform="translate(-123.75 0)"/><path class="cls-17" d="M455.28,116.88h-8.92v18.54h8.92Z" transform="translate(-123.75 0)"/><path class="cls-17" d="M455.28,140.27h-8.92v18.54h8.92Z" transform="translate(-123.75 0)"/><path class="cls-17" d="M455.28,163.66h-8.92V182.2h8.92Z" transform="translate(-123.75 0)"/><path class="cls-17" d="M455.28,187h-8.92v18.54h8.92Z" transform="translate(-123.75 0)"/><path class="cls-17" d="M455.28,210.42h-8.92V229h8.92Z" transform="translate(-123.75 0)"/><path class="cls-17" d="M455.28,233.81h-8.92v18.54h8.92Z" transform="translate(-123.75 0)"/><path class="cls-17" d="M455.28,257.19h-8.92v18.54h8.92Z" transform="translate(-123.75 0)"/><path class="cls-17" d="M455.28,280.58h-8.92v18.53h8.92Z" transform="translate(-123.75 0)"/><path class="cls-17" d="M455.28,304h-8.92v18.54h8.92Z" transform="translate(-123.75 0)"/><path class="cls-17" d="M455.28,327.34h-8.92v18.54h8.92Z" transform="translate(-123.75 0)"/><path class="cls-17" d="M455.28,350.73h-8.92v18.54h8.92Z" transform="translate(-123.75 0)"/><path class="cls-17" d="M455.28,374.12h-8.92v18.54h8.92Z" transform="translate(-123.75 0)"/><path class="cls-15" d="M470.05,116.88h-8.92v18.54h8.92Z" transform="translate(-123.75 0)"/><path class="cls-15" d="M470.05,140.27h-8.92v18.54h8.92Z" transform="translate(-123.75 0)"/><path class="cls-15" d="M470.05,163.66h-8.92V182.2h8.92Z" transform="translate(-123.75 0)"/><path class="cls-15" d="M470.05,187h-8.92v18.54h8.92Z" transform="translate(-123.75 0)"/><path class="cls-15" d="M470.05,210.42h-8.92V229h8.92Z" transform="translate(-123.75 0)"/><path class="cls-15" d="M470.05,233.81h-8.92v18.54h8.92Z" transform="translate(-123.75 0)"/><path class="cls-15" d="M470.05,257.19h-8.92v18.54h8.92Z" transform="translate(-123.75 0)"/><path class="cls-15" d="M470.05,280.58h-8.92v18.53h8.92Z" transform="translate(-123.75 0)"/><path class="cls-15" d="M470.05,304h-8.92v18.54h8.92Z" transform="translate(-123.75 0)"/><path class="cls-15" d="M470.05,327.34h-8.92v18.54h8.92Z" transform="translate(-123.75 0)"/><path class="cls-15" d="M470.05,350.73h-8.92v18.54h8.92Z" transform="translate(-123.75 0)"/><path class="cls-15" d="M470.05,374.12h-8.92v18.54h8.92Z" transform="translate(-123.75 0)"/><path class="cls-17" d="M470.05,116.88h-8.92v18.54h8.92Z" transform="translate(-123.75 0)"/><path class="cls-17" d="M470.05,140.27h-8.92v18.54h8.92Z" transform="translate(-123.75 0)"/><path class="cls-17" d="M470.05,163.66h-8.92V182.2h8.92Z" transform="translate(-123.75 0)"/><path class="cls-17" d="M470.05,187h-8.92v18.54h8.92Z" transform="translate(-123.75 0)"/><path class="cls-17" d="M470.05,210.42h-8.92V229h8.92Z" transform="translate(-123.75 0)"/><path class="cls-17" d="M470.05,233.81h-8.92v18.54h8.92Z" transform="translate(-123.75 0)"/><path class="cls-17" d="M470.05,257.19h-8.92v18.54h8.92Z" transform="translate(-123.75 0)"/><path class="cls-17" d="M470.05,280.58h-8.92v18.53h8.92Z" transform="translate(-123.75 0)"/><path class="cls-17" d="M470.05,304h-8.92v18.54h8.92Z" transform="translate(-123.75 0)"/><path class="cls-17" d="M470.05,327.34h-8.92v18.54h8.92Z" transform="translate(-123.75 0)"/><path class="cls-17" d="M470.05,350.73h-8.92v18.54h8.92Z" transform="translate(-123.75 0)"/><path class="cls-17" d="M470.05,374.12h-8.92v18.54h8.92Z" transform="translate(-123.75 0)"/><path class="cls-15" d="M484.82,116.88H475.9v18.54h8.92Z" transform="translate(-123.75 0)"/><path class="cls-15" d="M484.82,140.27H475.9v18.54h8.92Z" transform="translate(-123.75 0)"/><path class="cls-15" d="M484.82,163.66H475.9V182.2h8.92Z" transform="translate(-123.75 0)"/><path class="cls-15" d="M484.82,187H475.9v18.54h8.92Z" transform="translate(-123.75 0)"/><path class="cls-15" d="M484.82,210.42H475.9V229h8.92Z" transform="translate(-123.75 0)"/><path class="cls-15" d="M484.82,233.81H475.9v18.54h8.92Z" transform="translate(-123.75 0)"/><path class="cls-15" d="M484.82,257.19H475.9v18.54h8.92Z" transform="translate(-123.75 0)"/><path class="cls-15" d="M484.82,280.58H475.9v18.53h8.92Z" transform="translate(-123.75 0)"/><path class="cls-15" d="M484.82,304H475.9v18.54h8.92Z" transform="translate(-123.75 0)"/><path class="cls-15" d="M484.82,327.34H475.9v18.54h8.92Z" transform="translate(-123.75 0)"/><path class="cls-15" d="M484.82,350.73H475.9v18.54h8.92Z" transform="translate(-123.75 0)"/><path class="cls-15" d="M484.82,374.12H475.9v18.54h8.92Z" transform="translate(-123.75 0)"/><path class="cls-17" d="M484.82,116.88H475.9v18.54h8.92Z" transform="translate(-123.75 0)"/><path class="cls-17" d="M484.82,140.27H475.9v18.54h8.92Z" transform="translate(-123.75 0)"/><path class="cls-17" d="M484.82,163.66H475.9V182.2h8.92Z" transform="translate(-123.75 0)"/><path class="cls-17" d="M484.82,187H475.9v18.54h8.92Z" transform="translate(-123.75 0)"/><path class="cls-17" d="M484.82,210.42H475.9V229h8.92Z" transform="translate(-123.75 0)"/><path class="cls-17" d="M484.82,233.81H475.9v18.54h8.92Z" transform="translate(-123.75 0)"/><path class="cls-17" d="M484.82,257.19H475.9v18.54h8.92Z" transform="translate(-123.75 0)"/><path class="cls-17" d="M484.82,280.58H475.9v18.53h8.92Z" transform="translate(-123.75 0)"/><path class="cls-17" d="M484.82,304H475.9v18.54h8.92Z" transform="translate(-123.75 0)"/><path class="cls-17" d="M484.82,327.34H475.9v18.54h8.92Z" transform="translate(-123.75 0)"/><path class="cls-17" d="M484.82,350.73H475.9v18.54h8.92Z" transform="translate(-123.75 0)"/><path class="cls-17" d="M484.82,374.12H475.9v18.54h8.92Z" transform="translate(-123.75 0)"/><path class="cls-18" d="M441.37,86h-82.8V403h82.8Z" transform="translate(-123.75 0)"/><path class="cls-19" d="M441.37,103.75h-82.8v3.33h82.8Z" transform="translate(-123.75 0)"/><path class="cls-18" d="M441.37,68.18H388.08V86h53.29Z" transform="translate(-123.75 0)"/><path class="cls-15" d="M466.41,68.18h-25V86h25Z" transform="translate(-123.75 0)"/><path class="cls-15" d="M381.91,116.88H367.44v18.54h14.47Z" transform="translate(-123.75 0)"/><path class="cls-15" d="M381.91,140.27H367.44v18.54h14.47Z" transform="translate(-123.75 0)"/><path class="cls-15" d="M381.91,163.66H367.44V182.2h14.47Z" transform="translate(-123.75 0)"/><path class="cls-15" d="M381.91,187H367.44v18.54h14.47Z" transform="translate(-123.75 0)"/><path class="cls-15" d="M381.91,210.42H367.44V229h14.47Z" transform="translate(-123.75 0)"/><path class="cls-15" d="M381.91,233.81H367.44v18.54h14.47Z" transform="translate(-123.75 0)"/><path class="cls-15" d="M381.91,257.19H367.44v18.54h14.47Z" transform="translate(-123.75 0)"/><path class="cls-15" d="M381.91,280.58H367.44v18.53h14.47Z" transform="translate(-123.75 0)"/><path class="cls-15" d="M381.91,304H367.44v18.54h14.47Z" transform="translate(-123.75 0)"/><path class="cls-15" d="M381.91,327.34H367.44v18.54h14.47Z" transform="translate(-123.75 0)"/><path class="cls-15" d="M381.91,350.73H367.44v18.54h14.47Z" transform="translate(-123.75 0)"/><path class="cls-15" d="M381.91,374.12H367.44v18.54h14.47Z" transform="translate(-123.75 0)"/><path class="cls-20" d="M381.91,116.88H367.44v18.54h14.47Z" transform="translate(-123.75 0)"/><path class="cls-20" d="M381.91,140.27H367.44v18.54h14.47Z" transform="translate(-123.75 0)"/><path class="cls-20" d="M381.91,163.66H367.44V182.2h14.47Z" transform="translate(-123.75 0)"/><path class="cls-20" d="M381.91,187H367.44v18.54h14.47Z" transform="translate(-123.75 0)"/><path class="cls-20" d="M381.91,210.42H367.44V229h14.47Z" transform="translate(-123.75 0)"/><path class="cls-20" d="M381.91,233.81H367.44v18.54h14.47Z" transform="translate(-123.75 0)"/><path class="cls-20" d="M381.91,257.19H367.44v18.54h14.47Z" transform="translate(-123.75 0)"/><path class="cls-20" d="M381.91,280.58H367.44v18.53h14.47Z" transform="translate(-123.75 0)"/><path class="cls-20" d="M381.91,304H367.44v18.54h14.47Z" transform="translate(-123.75 0)"/><path class="cls-20" d="M381.91,327.34H367.44v18.54h14.47Z" transform="translate(-123.75 0)"/><path class="cls-20" d="M381.91,350.73H367.44v18.54h14.47Z" transform="translate(-123.75 0)"/><path class="cls-20" d="M381.91,374.12H367.44v18.54h14.47Z" transform="translate(-123.75 0)"/><path class="cls-15" d="M405.89,116.88H391.42v18.54h14.47Z" transform="translate(-123.75 0)"/><path class="cls-15" d="M405.89,140.27H391.42v18.54h14.47Z" transform="translate(-123.75 0)"/><path class="cls-15" d="M405.89,163.66H391.42V182.2h14.47Z" transform="translate(-123.75 0)"/><path class="cls-15" d="M405.89,187H391.42v18.54h14.47Z" transform="translate(-123.75 0)"/><path class="cls-15" d="M405.89,210.42H391.42V229h14.47Z" transform="translate(-123.75 0)"/><path class="cls-15" d="M405.89,233.81H391.42v18.54h14.47Z" transform="translate(-123.75 0)"/><path class="cls-15" d="M405.89,257.19H391.42v18.54h14.47Z" transform="translate(-123.75 0)"/><path class="cls-15" d="M405.89,280.58H391.42v18.53h14.47Z" transform="translate(-123.75 0)"/><path class="cls-15" d="M405.89,304H391.42v18.54h14.47Z" transform="translate(-123.75 0)"/><path class="cls-15" d="M405.89,327.34H391.42v18.54h14.47Z" transform="translate(-123.75 0)"/><path class="cls-15" d="M405.89,350.73H391.42v18.54h14.47Z" transform="translate(-123.75 0)"/><path class="cls-15" d="M405.89,374.12H391.42v18.54h14.47Z" transform="translate(-123.75 0)"/><path class="cls-20" d="M405.89,116.88H391.42v18.54h14.47Z" transform="translate(-123.75 0)"/><path class="cls-20" d="M405.89,140.27H391.42v18.54h14.47Z" transform="translate(-123.75 0)"/><path class="cls-20" d="M405.89,163.66H391.42V182.2h14.47Z" transform="translate(-123.75 0)"/><path class="cls-20" d="M405.89,187H391.42v18.54h14.47Z" transform="translate(-123.75 0)"/><path class="cls-20" d="M405.89,210.42H391.42V229h14.47Z" transform="translate(-123.75 0)"/><path class="cls-20" d="M405.89,233.81H391.42v18.54h14.47Z" transform="translate(-123.75 0)"/><path class="cls-20" d="M405.89,257.19H391.42v18.54h14.47Z" transform="translate(-123.75 0)"/><path class="cls-20" d="M405.89,280.58H391.42v18.53h14.47Z" transform="translate(-123.75 0)"/><path class="cls-20" d="M405.89,304H391.42v18.54h14.47Z" transform="translate(-123.75 0)"/><path class="cls-20" d="M405.89,327.34H391.42v18.54h14.47Z" transform="translate(-123.75 0)"/><path class="cls-20" d="M405.89,350.73H391.42v18.54h14.47Z" transform="translate(-123.75 0)"/><path class="cls-20" d="M405.89,374.12H391.42v18.54h14.47Z" transform="translate(-123.75 0)"/><path class="cls-15" d="M429.87,116.88H415.4v18.54h14.47Z" transform="translate(-123.75 0)"/><path class="cls-15" d="M429.87,140.27H415.4v18.54h14.47Z" transform="translate(-123.75 0)"/><path class="cls-15" d="M429.87,163.66H415.4V182.2h14.47Z" transform="translate(-123.75 0)"/><path class="cls-15" d="M429.87,187H415.4v18.54h14.47Z" transform="translate(-123.75 0)"/><path class="cls-15" d="M429.87,210.42H415.4V229h14.47Z" transform="translate(-123.75 0)"/><path class="cls-15" d="M429.87,233.81H415.4v18.54h14.47Z" transform="translate(-123.75 0)"/><path class="cls-15" d="M429.87,257.19H415.4v18.54h14.47Z" transform="translate(-123.75 0)"/><path class="cls-15" d="M429.87,280.58H415.4v18.53h14.47Z" transform="translate(-123.75 0)"/><path class="cls-15" d="M429.87,304H415.4v18.54h14.47Z" transform="translate(-123.75 0)"/><path class="cls-15" d="M429.87,327.34H415.4v18.54h14.47Z" transform="translate(-123.75 0)"/><path class="cls-15" d="M429.87,350.73H415.4v18.54h14.47Z" transform="translate(-123.75 0)"/><path class="cls-15" d="M429.87,374.12H415.4v18.54h14.47Z" transform="translate(-123.75 0)"/><path class="cls-20" d="M429.87,116.88H415.4v18.54h14.47Z" transform="translate(-123.75 0)"/><path class="cls-20" d="M429.87,140.27H415.4v18.54h14.47Z" transform="translate(-123.75 0)"/><path class="cls-20" d="M429.87,163.66H415.4V182.2h14.47Z" transform="translate(-123.75 0)"/><path class="cls-20" d="M429.87,187H415.4v18.54h14.47Z" transform="translate(-123.75 0)"/><path class="cls-20" d="M429.87,210.42H415.4V229h14.47Z" transform="translate(-123.75 0)"/><path class="cls-20" d="M429.87,233.81H415.4v18.54h14.47Z" transform="translate(-123.75 0)"/><path class="cls-20" d="M429.87,257.19H415.4v18.54h14.47Z" transform="translate(-123.75 0)"/><path class="cls-20" d="M429.87,280.58H415.4v18.53h14.47Z" transform="translate(-123.75 0)"/><path class="cls-20" d="M429.87,304H415.4v18.54h14.47Z" transform="translate(-123.75 0)"/><path class="cls-20" d="M429.87,327.34H415.4v18.54h14.47Z" transform="translate(-123.75 0)"/><path class="cls-20" d="M429.87,350.73H415.4v18.54h14.47Z" transform="translate(-123.75 0)"/><path class="cls-20" d="M429.87,374.12H415.4v18.54h14.47Z" transform="translate(-123.75 0)"/><path class="cls-6" d="M920.15,147.8H869.66V403h50.49Z" transform="translate(-123.75 0)"/><path class="cls-11" d="M920.15,147.8H869.66V403h50.49Z" transform="translate(-123.75 0)"/><path class="cls-6" d="M923.17,139.44H869.66v8.36h53.51Z" transform="translate(-123.75 0)"/><path class="cls-6" d="M915,126.38H869.66v13.06H915Z" transform="translate(-123.75 0)"/><path class="cls-11" d="M915,126.38H869.66v13.06H915Z" transform="translate(-123.75 0)"/><path class="cls-6" d="M904.37,97.58H869.66v28.8h34.71Z" transform="translate(-123.75 0)"/><path class="cls-21" d="M904.37,97.58H869.66v28.8h34.71Z" transform="translate(-123.75 0)"/><path class="cls-22" d="M881.35,157.48H874.5v26.84h6.85Z" transform="translate(-123.75 0)"/><path class="cls-22" d="M881.35,194.05H874.5V220.9h6.85Z" transform="translate(-123.75 0)"/><path class="cls-22" d="M881.35,230.62H874.5v26.85h6.85Z" transform="translate(-123.75 0)"/><g class="cls-23"><path class="cls-21" d="M881.35,267.2H874.5v26.85h6.85Z" transform="translate(-123.75 0)"/></g><g class="cls-23"><path class="cls-21" d="M881.35,303.77H874.5v26.85h6.85Z" transform="translate(-123.75 0)"/></g><g class="cls-23"><path class="cls-21" d="M881.35,340.35H874.5v26.84h6.85Z" transform="translate(-123.75 0)"/></g><path class="cls-22" d="M892.67,157.48h-6.85v26.84h6.85Z" transform="translate(-123.75 0)"/><path class="cls-22" d="M892.67,194.05h-6.85V220.9h6.85Z" transform="translate(-123.75 0)"/><path class="cls-22" d="M892.67,230.62h-6.85v26.85h6.85Z" transform="translate(-123.75 0)"/><g class="cls-23"><path class="cls-21" d="M892.67,267.2h-6.85v26.85h6.85Z" transform="translate(-123.75 0)"/></g><g class="cls-23"><path class="cls-21" d="M892.67,303.77h-6.85v26.85h6.85Z" transform="translate(-123.75 0)"/></g><g class="cls-23"><path class="cls-21" d="M892.67,340.35h-6.85v26.84h6.85Z" transform="translate(-123.75 0)"/></g><path class="cls-22" d="M904,157.48h-6.85v26.84H904Z" transform="translate(-123.75 0)"/><path class="cls-22" d="M904,194.05h-6.85V220.9H904Z" transform="translate(-123.75 0)"/><path class="cls-22" d="M904,230.62h-6.85v26.85H904Z" transform="translate(-123.75 0)"/><g class="cls-23"><path class="cls-21" d="M904,267.2h-6.85v26.85H904Z" transform="translate(-123.75 0)"/></g><g class="cls-23"><path class="cls-21" d="M904,303.77h-6.85v26.85H904Z" transform="translate(-123.75 0)"/></g><g class="cls-23"><path class="cls-21" d="M904,340.35h-6.85v26.84H904Z" transform="translate(-123.75 0)"/></g><path class="cls-22" d="M915.31,157.48h-6.85v26.84h6.85Z" transform="translate(-123.75 0)"/><path class="cls-24" d="M735.66,10.72H652V403.19h83.65Z" transform="translate(-123.75 0)"/><path class="cls-25" d="M735.66,2.9H650v7.82h85.66Z" transform="translate(-123.75 0)"/><path class="cls-2" d="M668.05,32.11h-8.48V47.54h8.48Z" transform="translate(-123.75 0)"/><path class="cls-2" d="M683.06,32.11h-8.47V47.54h8.47Z" transform="translate(-123.75 0)"/><path class="cls-2" d="M698.07,32.11H689.6V47.54h8.47Z" transform="translate(-123.75 0)"/><path class="cls-2" d="M713.09,32.11h-8.48V47.54h8.48Z" transform="translate(-123.75 0)"/><path class="cls-2" d="M728.09,32.11h-8.47V47.54h8.47Z" transform="translate(-123.75 0)"/><path class="cls-2" d="M668.05,57.18h-8.48V72.61h8.48Z" transform="translate(-123.75 0)"/><path class="cls-2" d="M683.06,57.18h-8.47V72.61h8.47Z" transform="translate(-123.75 0)"/><path class="cls-2" d="M698.07,57.18H689.6V72.61h8.47Z" transform="translate(-123.75 0)"/><path class="cls-2" d="M713.09,57.18h-8.48V72.61h8.48Z" transform="translate(-123.75 0)"/><path class="cls-2" d="M728.09,57.18h-8.47V72.61h8.47Z" transform="translate(-123.75 0)"/><path class="cls-2" d="M668.05,82.26h-8.48V97.69h8.48Z" transform="translate(-123.75 0)"/><path class="cls-2" d="M683.06,82.26h-8.47V97.69h8.47Z" transform="translate(-123.75 0)"/><path class="cls-2" d="M698.07,82.26H689.6V97.69h8.47Z" transform="translate(-123.75 0)"/><path class="cls-2" d="M713.09,82.26h-8.48V97.69h8.48Z" transform="translate(-123.75 0)"/><path class="cls-2" d="M728.09,82.26h-8.47V97.69h8.47Z" transform="translate(-123.75 0)"/><path class="cls-2" d="M668.05,107.33h-8.48v15.43h8.48Z" transform="translate(-123.75 0)"/><path class="cls-2" d="M683.06,107.33h-8.47v15.43h8.47Z" transform="translate(-123.75 0)"/><path class="cls-2" d="M698.07,107.33H689.6v15.43h8.47Z" transform="translate(-123.75 0)"/><path class="cls-2" d="M713.09,107.33h-8.48v15.43h8.48Z" transform="translate(-123.75 0)"/><path class="cls-2" d="M728.09,107.33h-8.47v15.43h8.47Z" transform="translate(-123.75 0)"/><path class="cls-2" d="M668.05,132.4h-8.48v15.43h8.48Z" transform="translate(-123.75 0)"/><path class="cls-2" d="M683.06,132.4h-8.47v15.43h8.47Z" transform="translate(-123.75 0)"/><path class="cls-2" d="M698.07,132.4H689.6v15.43h8.47Z" transform="translate(-123.75 0)"/><path class="cls-2" d="M713.09,132.4h-8.48v15.43h8.48Z" transform="translate(-123.75 0)"/><path class="cls-2" d="M728.09,132.4h-8.47v15.43h8.47Z" transform="translate(-123.75 0)"/><path class="cls-2" d="M668.05,157.48h-8.48V172.9h8.48Z" transform="translate(-123.75 0)"/><path class="cls-2" d="M683.06,157.48h-8.47V172.9h8.47Z" transform="translate(-123.75 0)"/><path class="cls-2" d="M698.07,157.48H689.6V172.9h8.47Z" transform="translate(-123.75 0)"/><path class="cls-2" d="M713.09,157.48h-8.48V172.9h8.48Z" transform="translate(-123.75 0)"/><path class="cls-2" d="M728.09,157.48h-8.47V172.9h8.47Z" transform="translate(-123.75 0)"/><path class="cls-2" d="M668.05,182.55h-8.48V198h8.48Z" transform="translate(-123.75 0)"/><path class="cls-2" d="M683.06,182.55h-8.47V198h8.47Z" transform="translate(-123.75 0)"/><path class="cls-2" d="M698.07,182.55H689.6V198h8.47Z" transform="translate(-123.75 0)"/><path class="cls-2" d="M713.09,182.55h-8.48V198h8.48Z" transform="translate(-123.75 0)"/><path class="cls-2" d="M728.09,182.55h-8.47V198h8.47Z" transform="translate(-123.75 0)"/><path class="cls-2" d="M668.05,207.63h-8.48v15.43h8.48Z" transform="translate(-123.75 0)"/><path class="cls-2" d="M683.06,207.63h-8.47v15.43h8.47Z" transform="translate(-123.75 0)"/><path class="cls-2" d="M698.07,207.63H689.6v15.43h8.47Z" transform="translate(-123.75 0)"/><path class="cls-2" d="M713.09,207.63h-8.48v15.43h8.48Z" transform="translate(-123.75 0)"/><path class="cls-2" d="M728.09,207.63h-8.47v15.43h8.47Z" transform="translate(-123.75 0)"/><path class="cls-2" d="M668.05,232.7h-8.48v15.43h8.48Z" transform="translate(-123.75 0)"/><path class="cls-2" d="M683.06,232.7h-8.47v15.43h8.47Z" transform="translate(-123.75 0)"/><path class="cls-2" d="M698.07,232.7H689.6v15.43h8.47Z" transform="translate(-123.75 0)"/><path class="cls-2" d="M713.09,232.7h-8.48v15.43h8.48Z" transform="translate(-123.75 0)"/><path class="cls-2" d="M728.09,232.7h-8.47v15.43h8.47Z" transform="translate(-123.75 0)"/><path class="cls-2" d="M668.05,257.78h-8.48V273.2h8.48Z" transform="translate(-123.75 0)"/><path class="cls-2" d="M683.06,257.78h-8.47V273.2h8.47Z" transform="translate(-123.75 0)"/><path class="cls-2" d="M698.07,257.78H689.6V273.2h8.47Z" transform="translate(-123.75 0)"/><path class="cls-2" d="M713.09,257.78h-8.48V273.2h8.48Z" transform="translate(-123.75 0)"/><path class="cls-2" d="M728.09,257.78h-8.47V273.2h8.47Z" transform="translate(-123.75 0)"/><path class="cls-2" d="M668.05,282.85h-8.48v15.43h8.48Z" transform="translate(-123.75 0)"/><path class="cls-2" d="M683.06,282.85h-8.47v15.43h8.47Z" transform="translate(-123.75 0)"/><path class="cls-2" d="M698.07,282.85H689.6v15.43h8.47Z" transform="translate(-123.75 0)"/><path class="cls-2" d="M713.09,282.85h-8.48v15.43h8.48Z" transform="translate(-123.75 0)"/><path class="cls-2" d="M728.09,282.85h-8.47v15.43h8.47Z" transform="translate(-123.75 0)"/><path class="cls-2" d="M668.05,307.92h-8.48v15.43h8.48Z" transform="translate(-123.75 0)"/><path class="cls-2" d="M683.06,307.92h-8.47v15.43h8.47Z" transform="translate(-123.75 0)"/><path class="cls-2" d="M698.07,307.92H689.6v15.43h8.47Z" transform="translate(-123.75 0)"/><path class="cls-2" d="M713.09,307.92h-8.48v15.43h8.48Z" transform="translate(-123.75 0)"/><path class="cls-2" d="M728.09,307.92h-8.47v15.43h8.47Z" transform="translate(-123.75 0)"/><path class="cls-2" d="M668.05,360.31h-8.48v15.42h8.48Z" transform="translate(-123.75 0)"/><path class="cls-2" d="M683.06,360.31h-8.47v15.42h8.47Z" transform="translate(-123.75 0)"/><path class="cls-2" d="M698.07,360.31H689.6v15.42h8.47Z" transform="translate(-123.75 0)"/><path class="cls-2" d="M713.09,360.31h-8.48v15.42h8.48Z" transform="translate(-123.75 0)"/><path class="cls-2" d="M728.09,360.31h-8.47v15.42h8.47Z" transform="translate(-123.75 0)"/><path class="cls-25" d="M789.35,10.72H735.66V403.19h53.69Z" transform="translate(-123.75 0)"/><path class="cls-26" d="M791.68,2.9h-56v7.82h56Z" transform="translate(-123.75 0)"/><path class="cls-1" d="M751.7,32.11h-8.48V47.54h8.48Z" transform="translate(-123.75 0)"/><path class="cls-1" d="M766.71,32.11h-8.48V47.54h8.48Z" transform="translate(-123.75 0)"/><path class="cls-1" d="M781.72,32.11h-8.48V47.54h8.48Z" transform="translate(-123.75 0)"/><path class="cls-1" d="M751.7,57.18h-8.48V72.61h8.48Z" transform="translate(-123.75 0)"/><path class="cls-1" d="M766.54,72.45l-8.31.16V57.18h8.48Z" transform="translate(-123.75 0)"/><path class="cls-1" d="M781.72,57.18h-8.48V72.61h8.48Z" transform="translate(-123.75 0)"/><path class="cls-1" d="M751.7,82.26h-8.48V97.69h8.48Z" transform="translate(-123.75 0)"/><path class="cls-1" d="M766.71,82.26h-8.48V97.69h8.48Z" transform="translate(-123.75 0)"/><path class="cls-1" d="M781.72,82.26h-8.48V97.69h8.48Z" transform="translate(-123.75 0)"/><path class="cls-1" d="M751.7,107.33h-8.48v15.43h8.48Z" transform="translate(-123.75 0)"/><path class="cls-1" d="M766.71,107.33h-8.48v15.43h8.48Z" transform="translate(-123.75 0)"/><path class="cls-1" d="M781.72,107.33h-8.48v15.43h8.48Z" transform="translate(-123.75 0)"/><path class="cls-1" d="M751.7,132.4h-8.48v15.43h8.48Z" transform="translate(-123.75 0)"/><path class="cls-1" d="M766.71,132.4h-8.48v15.43h8.48Z" transform="translate(-123.75 0)"/><path class="cls-1" d="M781.72,132.4h-8.48v15.43h8.48Z" transform="translate(-123.75 0)"/><path class="cls-1" d="M751.7,157.48h-8.48V172.9h8.48Z" transform="translate(-123.75 0)"/><path class="cls-1" d="M766.71,157.48h-8.48V172.9h8.48Z" transform="translate(-123.75 0)"/><path class="cls-1" d="M781.72,157.48h-8.48V172.9h8.48Z" transform="translate(-123.75 0)"/><path class="cls-1" d="M751.7,182.55h-8.48V198h8.48Z" transform="translate(-123.75 0)"/><path class="cls-1" d="M766.71,182.55h-8.48V198h8.48Z" transform="translate(-123.75 0)"/><path class="cls-1" d="M781.72,182.55h-8.48V198h8.48Z" transform="translate(-123.75 0)"/><path class="cls-1" d="M751.7,207.63h-8.48v15.43h8.48Z" transform="translate(-123.75 0)"/><path class="cls-1" d="M766.71,207.63h-8.48v15.43h8.48Z" transform="translate(-123.75 0)"/><path class="cls-1" d="M781.72,207.63h-8.48v15.43h8.48Z" transform="translate(-123.75 0)"/><path class="cls-1" d="M751.7,232.7h-8.48v15.43h8.48Z" transform="translate(-123.75 0)"/><path class="cls-1" d="M766.71,232.7h-8.48v15.43h8.48Z" transform="translate(-123.75 0)"/><path class="cls-1" d="M781.72,232.7h-8.48v15.43h8.48Z" transform="translate(-123.75 0)"/><path class="cls-1" d="M751.7,257.78h-8.48V273.2h8.48Z" transform="translate(-123.75 0)"/><path class="cls-1" d="M766.71,257.78h-8.48V273.2h8.48Z" transform="translate(-123.75 0)"/><path class="cls-1" d="M781.72,257.78h-8.48V273.2h8.48Z" transform="translate(-123.75 0)"/><path class="cls-1" d="M751.7,282.85h-8.48v15.43h8.48Z" transform="translate(-123.75 0)"/><path class="cls-1" d="M766.71,282.85h-8.48v15.43h8.48Z" transform="translate(-123.75 0)"/><path class="cls-1" d="M781.72,282.85h-8.48v15.43h8.48Z" transform="translate(-123.75 0)"/><path class="cls-1" d="M751.7,307.92h-8.48v15.43h8.48Z" transform="translate(-123.75 0)"/><path class="cls-1" d="M766.71,307.92h-8.48v15.43h8.48Z" transform="translate(-123.75 0)"/><path class="cls-1" d="M781.72,307.92h-8.48v15.43h8.48Z" transform="translate(-123.75 0)"/><path class="cls-1" d="M751.7,333h-8.48v15.43h8.48Z" transform="translate(-123.75 0)"/><path class="cls-2" d="M668.05,333h-8.48v15.43h8.48Z" transform="translate(-123.75 0)"/><path class="cls-2" d="M683.06,333h-8.47v15.43h8.47Z" transform="translate(-123.75 0)"/><path class="cls-2" d="M698.07,333H689.6v15.43h8.47Z" transform="translate(-123.75 0)"/><path class="cls-2" d="M713.09,333h-8.48v15.43h8.48Z" transform="translate(-123.75 0)"/><path class="cls-2" d="M728.09,333h-8.47v15.43h8.47Z" transform="translate(-123.75 0)"/><path class="cls-1" d="M751.7,333h-8.48v15.43h8.48Z" transform="translate(-123.75 0)"/><path class="cls-2" d="M668.05,360.31h-8.48v15.42h8.48Z" transform="translate(-123.75 0)"/><path class="cls-2" d="M683.06,360.31h-8.47v15.42h8.47Z" transform="translate(-123.75 0)"/><path class="cls-2" d="M698.07,360.31H689.6v15.42h8.47Z" transform="translate(-123.75 0)"/><path class="cls-2" d="M713.09,360.31h-8.48v15.42h8.48Z" transform="translate(-123.75 0)"/><path class="cls-2" d="M728.09,360.31h-8.47v15.42h8.47Z" transform="translate(-123.75 0)"/><path class="cls-2" d="M668.05,360.31h-8.48v15.42h8.48Z" transform="translate(-123.75 0)"/><path class="cls-2" d="M683.06,360.31h-8.47v15.42h8.47Z" transform="translate(-123.75 0)"/><path class="cls-2" d="M698.07,360.31H689.6v15.42h8.47Z" transform="translate(-123.75 0)"/><path class="cls-2" d="M713.09,360.31h-8.48v15.42h8.48Z" transform="translate(-123.75 0)"/><path class="cls-2" d="M728.09,360.31h-8.47v15.42h8.47Z" transform="translate(-123.75 0)"/><path class="cls-1" d="M751.7,360.31h-8.48v15.42h8.48Z" transform="translate(-123.75 0)"/><path class="cls-1" d="M766.71,333h-8.48v15.43h8.48Z" transform="translate(-123.75 0)"/><path class="cls-1" d="M781.72,333h-8.48v15.43h8.48Z" transform="translate(-123.75 0)"/><path class="cls-1" d="M766.73,358.17h-8.4v17.65h8.4Z" transform="translate(-123.75 0)"/><path class="cls-1" d="M781.58,358.17h-8.41v17.65h8.41Z" transform="translate(-123.75 0)"/><path class="cls-22" d="M915.31,194.05h-6.85V220.9h6.85Z" transform="translate(-123.75 0)"/><path class="cls-22" d="M915.31,230.62h-6.85v26.85h6.85Z" transform="translate(-123.75 0)"/><g class="cls-23"><path class="cls-21" d="M915.31,267.2h-6.85v26.85h6.85Z" transform="translate(-123.75 0)"/></g><g class="cls-23"><path class="cls-21" d="M915.31,303.77h-6.85v26.85h6.85Z" transform="translate(-123.75 0)"/></g><g class="cls-23"><path class="cls-21" d="M915.31,340.35h-6.85v26.84h6.85Z" transform="translate(-123.75 0)"/></g><path class="cls-6" d="M869.66,147.8H766.18V403H869.66Z" transform="translate(-123.75 0)"/><path class="cls-6" d="M869.66,126.38H771.14v13.06h98.52Z" transform="translate(-123.75 0)"/><path class="cls-6" d="M869.66,97.58H795.52v28.8h74.14Z" transform="translate(-123.75 0)"/><path class="cls-11" d="M869.66,97.58H795.52v28.8h74.14Z" transform="translate(-123.75 0)"/><path class="cls-6" d="M869.66,139.44H763.08v8.36H869.66Z" transform="translate(-123.75 0)"/><path class="cls-11" d="M869.66,139.44H763.08v8.36H869.66Z" transform="translate(-123.75 0)"/><path class="cls-27" d="M790.12,157.48h-14v26.84h14Z" transform="translate(-123.75 0)"/><path class="cls-27" d="M790.12,194.05h-14V220.9h14Z" transform="translate(-123.75 0)"/><path class="cls-27" d="M790.12,230.62h-14v26.85h14Z" transform="translate(-123.75 0)"/><path class="cls-27" d="M790.12,267.2h-14v26.85h14Z" transform="translate(-123.75 0)"/><path class="cls-27" d="M790.12,303.77h-14v26.85h14Z" transform="translate(-123.75 0)"/><path class="cls-27" d="M790.12,340.35h-14v26.84h14Z" transform="translate(-123.75 0)"/><path class="cls-27" d="M813.34,157.48H799.29v26.84h14.05Z" transform="translate(-123.75 0)"/><path class="cls-27" d="M813.34,194.05H799.29V220.9h14.05Z" transform="translate(-123.75 0)"/><path class="cls-27" d="M813.34,230.62H799.29v26.85h14.05Z" transform="translate(-123.75 0)"/><path class="cls-27" d="M813.34,267.2H799.29v26.85h14.05Z" transform="translate(-123.75 0)"/><path class="cls-27" d="M813.05,303.62H799v26.84h14Z" transform="translate(-123.75 0)"/><path class="cls-27" d="M813.34,340.35H799.29v26.84h14.05Z" transform="translate(-123.75 0)"/><path class="cls-27" d="M836.55,157.48h-14v26.84h14Z" transform="translate(-123.75 0)"/><path class="cls-27" d="M836.55,194.05h-14V220.9h14Z" transform="translate(-123.75 0)"/><path class="cls-27" d="M836.55,230.62h-14v26.85h14Z" transform="translate(-123.75 0)"/><path class="cls-27" d="M836.55,267.2h-14v26.85h14Z" transform="translate(-123.75 0)"/><path class="cls-27" d="M836.55,303.77h-14v26.85h14Z" transform="translate(-123.75 0)"/><path class="cls-27" d="M836.55,340.35h-14v26.84h14Z" transform="translate(-123.75 0)"/><path class="cls-27" d="M859.77,157.48h-14v26.84h14Z" transform="translate(-123.75 0)"/><path class="cls-27" d="M859.77,194.05h-14V220.9h14Z" transform="translate(-123.75 0)"/><path class="cls-27" d="M859.77,230.62h-14v26.85h14Z" transform="translate(-123.75 0)"/><path class="cls-27" d="M859.77,267.2h-14v26.85h14Z" transform="translate(-123.75 0)"/><path class="cls-27" d="M859.77,303.77h-14v26.85h14Z" transform="translate(-123.75 0)"/><path class="cls-27" d="M859.77,340.35h-14v26.84h14Z" transform="translate(-123.75 0)"/><path class="cls-27" d="M836.55,377.74H799.29V403h37.26Z" transform="translate(-123.75 0)"/><path class="cls-6" d="M1023.72,257.49H973.23V403h50.49Z" transform="translate(-123.75 0)"/><path class="cls-11" d="M1023.72,257.49H973.23V403h50.49Z" transform="translate(-123.75 0)"/><path class="cls-6" d="M1026.74,249.13H973.23v8.36h53.51Z" transform="translate(-123.75 0)"/><path class="cls-6" d="M1018.6,236.07H973.24v13.06h45.36Z" transform="translate(-123.75 0)"/><path class="cls-11" d="M1018.6,236.07H973.24v13.06h45.36Z" transform="translate(-123.75 0)"/><path class="cls-12" d="M984.92,267.17h-6.85V294h6.85Z" transform="translate(-123.75 0)"/><path class="cls-12" d="M984.92,303.74h-6.85v26.85h6.85Z" transform="translate(-123.75 0)"/><path class="cls-12" d="M984.92,340.32h-6.85v26.84h6.85Z" transform="translate(-123.75 0)"/><path class="cls-12" d="M996.24,267.17H989.4V294h6.84Z" transform="translate(-123.75 0)"/><path class="cls-12" d="M996.24,303.74H989.4v26.85h6.84Z" transform="translate(-123.75 0)"/><path class="cls-12" d="M996.24,340.32H989.4v26.84h6.84Z" transform="translate(-123.75 0)"/><path class="cls-12" d="M1007.56,267.17h-6.85V294h6.85Z" transform="translate(-123.75 0)"/><path class="cls-12" d="M1007.56,303.74h-6.85v26.85h6.85Z" transform="translate(-123.75 0)"/><path class="cls-12" d="M1007.56,340.32h-6.85v26.84h6.85Z" transform="translate(-123.75 0)"/><path class="cls-12" d="M1018.88,267.17H1012V294h6.85Z" transform="translate(-123.75 0)"/><path class="cls-12" d="M1018.88,303.74H1012v26.85h6.85Z" transform="translate(-123.75 0)"/><path class="cls-12" d="M1018.88,340.32H1012v26.84h6.85Z" transform="translate(-123.75 0)"/><path class="cls-6" d="M973.24,257.49H869.75V403H973.24Z" transform="translate(-123.75 0)"/><path class="cls-6" d="M973.23,236.07H874.71v13.06h98.52Z" transform="translate(-123.75 0)"/><path class="cls-6" d="M973.23,249.13H866.66v8.36H973.23Z" transform="translate(-123.75 0)"/><path class="cls-11" d="M973.23,249.13H866.66v8.36H973.23Z" transform="translate(-123.75 0)"/><path class="cls-27" d="M893.69,267.17h-14V294h14Z" transform="translate(-123.75 0)"/><path class="cls-27" d="M893.69,303.74h-14v26.85h14Z" transform="translate(-123.75 0)"/><path class="cls-27" d="M893.69,340.32h-14v26.84h14Z" transform="translate(-123.75 0)"/><path class="cls-27" d="M916.91,267.17h-14V294h14Z" transform="translate(-123.75 0)"/><path class="cls-27" d="M916.91,303.74h-14v26.85h14Z" transform="translate(-123.75 0)"/><path class="cls-27" d="M916.91,340.32h-14v26.84h14Z" transform="translate(-123.75 0)"/><path class="cls-27" d="M940.12,267.17h-14V294h14Z" transform="translate(-123.75 0)"/><path class="cls-27" d="M940.12,303.74h-14v26.85h14Z" transform="translate(-123.75 0)"/><path class="cls-27" d="M940.12,340.32h-14v26.84h14Z" transform="translate(-123.75 0)"/><path class="cls-27" d="M963.34,267.17H949.29V294h14.05Z" transform="translate(-123.75 0)"/><path class="cls-27" d="M963.34,303.74H949.29v26.85h14.05Z" transform="translate(-123.75 0)"/><path class="cls-27" d="M963.34,340.32H949.29v26.84h14.05Z" transform="translate(-123.75 0)"/><path class="cls-18" d="M299.4,167.85H222.81V403H299.4Z" transform="translate(-123.75 0)"/><path class="cls-19" d="M299.12,144.19H241.8v23.66h57.32Z" transform="translate(-123.75 0)"/><path class="cls-14" d="M251.47,147.84h-4.9V164.2h4.9Z" transform="translate(-123.75 0)"/><path class="cls-14" d="M260.05,147.84h-4.9V164.2h4.9Z" transform="translate(-123.75 0)"/><path class="cls-14" d="M268.62,147.84h-4.9V164.2h4.9Z" transform="translate(-123.75 0)"/><path class="cls-14" d="M277.2,147.84h-4.9V164.2h4.9Z" transform="translate(-123.75 0)"/><path class="cls-14" d="M285.77,147.84h-4.9V164.2h4.9Z" transform="translate(-123.75 0)"/><path class="cls-14" d="M294.35,147.84h-4.91V164.2h4.91Z" transform="translate(-123.75 0)"/><path class="cls-18" d="M325.18,144.19H299.12v23.66h26.06Z" transform="translate(-123.75 0)"/><path class="cls-14" d="M306.94,147.84h-4.17V164.2h4.17Z" transform="translate(-123.75 0)"/><path class="cls-14" d="M314.23,147.84h-4.16V164.2h4.16Z" transform="translate(-123.75 0)"/><path class="cls-14" d="M321.53,147.84h-4.17V164.2h4.17Z" transform="translate(-123.75 0)"/><path class="cls-14" d="M338.1,167.85h-39V403h39Z" transform="translate(-123.75 0)"/><path class="cls-15" d="M254.43,132.21h-1.76v12h1.76Z" transform="translate(-123.75 0)"/><path class="cls-15" d="M288.24,132.21h-1.75v12h1.75Z" transform="translate(-123.75 0)"/><path class="cls-6" d="M296,111.24H244.9v21H296Z" transform="translate(-123.75 0)"/><path class="cls-20" d="M252.62,184.05H238.48V205.7h14.14Z" transform="translate(-123.75 0)"/><path class="cls-20" d="M281.4,184.05H267.26V205.7H281.4Z" transform="translate(-123.75 0)"/><path class="cls-20" d="M252.62,218.17H238.48v21.64h14.14Z" transform="translate(-123.75 0)"/><path class="cls-20" d="M281.4,218.17H267.26v21.64H281.4Z" transform="translate(-123.75 0)"/><path class="cls-20" d="M252.62,252.28H238.48v21.65h14.14Z" transform="translate(-123.75 0)"/><path class="cls-20" d="M281.4,252.28H267.26v21.65H281.4Z" transform="translate(-123.75 0)"/><path class="cls-20" d="M252.62,286.4H238.48v21.65h14.14Z" transform="translate(-123.75 0)"/><path class="cls-20" d="M281.4,286.4H267.26v21.65H281.4Z" transform="translate(-123.75 0)"/><path class="cls-20" d="M252.62,320.51H238.48v21.65h14.14Z" transform="translate(-123.75 0)"/><path class="cls-20" d="M281.4,320.51H267.26v21.65H281.4Z" transform="translate(-123.75 0)"/><path class="cls-20" d="M252.62,354.63H238.48v21.65h14.14Z" transform="translate(-123.75 0)"/><path class="cls-20" d="M281.4,354.63H267.26v21.65H281.4Z" transform="translate(-123.75 0)"/><path class="cls-17" d="M314.4,184.05h-8.12V205.7h8.12Z" transform="translate(-123.75 0)"/><path class="cls-17" d="M330.94,184.05h-8.12V205.7h8.12Z" transform="translate(-123.75 0)"/><path class="cls-17" d="M314.4,218.17h-8.12v21.64h8.12Z" transform="translate(-123.75 0)"/><path class="cls-17" d="M330.94,218.17h-8.12v21.64h8.12Z" transform="translate(-123.75 0)"/><path class="cls-17" d="M314.4,252.28h-8.12v21.65h8.12Z" transform="translate(-123.75 0)"/><path class="cls-17" d="M330.94,252.28h-8.12v21.65h8.12Z" transform="translate(-123.75 0)"/><path class="cls-17" d="M314.4,286.4h-8.12v21.65h8.12Z" transform="translate(-123.75 0)"/><path class="cls-17" d="M330.94,286.4h-8.12v21.65h8.12Z" transform="translate(-123.75 0)"/><path class="cls-17" d="M314.4,320.51h-8.12v21.65h8.12Z" transform="translate(-123.75 0)"/><path class="cls-17" d="M330.94,320.51h-8.12v21.65h8.12Z" transform="translate(-123.75 0)"/><path class="cls-17" d="M314.4,354.63h-8.12v21.65h8.12Z" transform="translate(-123.75 0)"/><path class="cls-17" d="M330.94,354.63h-8.12v21.65h8.12Z" transform="translate(-123.75 0)"/><path class="cls-1" d="M1152.29,67.73h-64V403h64Z" transform="translate(-123.75 0)"/><path class="cls-2" d="M1110.68,78.62h-12.43V91.43h12.43Z" transform="translate(-123.75 0)"/><path class="cls-2" d="M1126.59,78.62h-12.44V91.43h12.44Z" transform="translate(-123.75 0)"/><path class="cls-2" d="M1110.68,100.36h-12.43v12.8h12.43Z" transform="translate(-123.75 0)"/><path class="cls-2" d="M1126.59,100.36h-12.44v12.8h12.44Z" transform="translate(-123.75 0)"/><path class="cls-2" d="M1110.68,122.1h-12.43v12.8h12.43Z" transform="translate(-123.75 0)"/><path class="cls-2" d="M1126.59,122.1h-12.44v12.8h12.44Z" transform="translate(-123.75 0)"/><path class="cls-2" d="M1110.68,143.83h-12.43v12.81h12.43Z" transform="translate(-123.75 0)"/><path class="cls-2" d="M1126.59,143.83h-12.44v12.81h12.44Z" transform="translate(-123.75 0)"/><path class="cls-2" d="M1110.68,165.57h-12.43v12.81h12.43Z" transform="translate(-123.75 0)"/><path class="cls-2" d="M1126.59,165.57h-12.44v12.81h12.44Z" transform="translate(-123.75 0)"/><path class="cls-2" d="M1110.68,187.31h-12.43v12.8h12.43Z" transform="translate(-123.75 0)"/><path class="cls-2" d="M1126.59,187.31h-12.44v12.8h12.44Z" transform="translate(-123.75 0)"/><path class="cls-2" d="M1110.68,209h-12.43v12.81h12.43Z" transform="translate(-123.75 0)"/><path class="cls-2" d="M1126.59,209h-12.44v12.81h12.44Z" transform="translate(-123.75 0)"/><path class="cls-2" d="M1110.68,230.78h-12.43v12.81h12.43Z" transform="translate(-123.75 0)"/><path class="cls-2" d="M1126.59,230.78h-12.44v12.81h12.44Z" transform="translate(-123.75 0)"/><path class="cls-2" d="M1110.68,252.52h-12.43v12.8h12.43Z" transform="translate(-123.75 0)"/><path class="cls-2" d="M1126.59,252.52h-12.44v12.8h12.44Z" transform="translate(-123.75 0)"/><path class="cls-2" d="M1110.68,274.25h-12.43v12.81h12.43Z" transform="translate(-123.75 0)"/><path class="cls-2" d="M1126.59,274.25h-12.44v12.81h12.44Z" transform="translate(-123.75 0)"/><path class="cls-2" d="M1110.68,296h-12.43V308.8h12.43Z" transform="translate(-123.75 0)"/><path class="cls-2" d="M1126.59,296h-12.44V308.8h12.44Z" transform="translate(-123.75 0)"/><path class="cls-2" d="M1110.68,317.73h-12.43v12.8h12.43Z" transform="translate(-123.75 0)"/><path class="cls-2" d="M1126.59,317.73h-12.44v12.8h12.44Z" transform="translate(-123.75 0)"/><path class="cls-2" d="M1110.68,339.47h-12.43v12.8h12.43Z" transform="translate(-123.75 0)"/><path class="cls-2" d="M1126.59,339.47h-12.44v12.8h12.44Z" transform="translate(-123.75 0)"/><path class="cls-2" d="M1110.68,361.2h-12.43V374h12.43Z" transform="translate(-123.75 0)"/><path class="cls-2" d="M1142.36,361.2h-12.44V374h12.44Z" transform="translate(-123.75 0)"/><path class="cls-2" d="M1142.36,339.46h-12.44v12.81h12.44Z" transform="translate(-123.75 0)"/><path class="cls-2" d="M1142.36,317.73h-12.44v12.8h12.44Z" transform="translate(-123.75 0)"/><path class="cls-2" d="M1142.36,296h-12.44V308.8h12.44Z" transform="translate(-123.75 0)"/><path class="cls-2" d="M1142.36,274.26h-12.44v12.8h12.44Z" transform="translate(-123.75 0)"/><path class="cls-2" d="M1142.36,252.52h-12.44v12.8h12.44Z" transform="translate(-123.75 0)"/><path class="cls-2" d="M1142.36,230.78h-12.44v12.8h12.44Z" transform="translate(-123.75 0)"/><path class="cls-2" d="M1142.36,209.05h-12.44v12.8h12.44Z" transform="translate(-123.75 0)"/><path class="cls-2" d="M1142.36,187.31h-12.44v12.8h12.44Z" transform="translate(-123.75 0)"/><path class="cls-2" d="M1142.36,165.57h-12.44v12.8h12.44Z" transform="translate(-123.75 0)"/><path class="cls-2" d="M1142.36,143.83h-12.44v12.81h12.44Z" transform="translate(-123.75 0)"/><path class="cls-2" d="M1142.36,122.1h-12.44v12.8h12.44Z" transform="translate(-123.75 0)"/><path class="cls-2" d="M1142.36,100.36h-12.44v12.8h12.44Z" transform="translate(-123.75 0)"/><path class="cls-2" d="M1142.36,78.62h-12.44V91.43h12.44Z" transform="translate(-123.75 0)"/><path class="cls-2" d="M1126.59,361.2h-12.44V374h12.44Z" transform="translate(-123.75 0)"/><path class="cls-3" d="M1202.72,67.73h-50.44V403h50.44Z" transform="translate(-123.75 0)"/><path class="cls-4" d="M1197.52,361.2h-10.27V374h10.27Z" transform="translate(-123.75 0)"/><path class="cls-4" d="M1184.38,361.2h-10.26V374h10.26Z" transform="translate(-123.75 0)"/><path class="cls-4" d="M1197.52,339.46h-10.27v12.81h10.27Z" transform="translate(-123.75 0)"/><path class="cls-4" d="M1184.38,339.46h-10.26v12.81h10.26Z" transform="translate(-123.75 0)"/><path class="cls-4" d="M1197.52,317.73h-10.27v12.8h10.27Z" transform="translate(-123.75 0)"/><path class="cls-4" d="M1184.38,317.73h-10.26v12.8h10.26Z" transform="translate(-123.75 0)"/><path class="cls-4" d="M1197.52,296h-10.27V308.8h10.27Z" transform="translate(-123.75 0)"/><path class="cls-4" d="M1184.38,296h-10.26V308.8h10.26Z" transform="translate(-123.75 0)"/><path class="cls-4" d="M1197.52,274.26h-10.27v12.8h10.27Z" transform="translate(-123.75 0)"/><path class="cls-4" d="M1184.38,274.26h-10.26v12.8h10.26Z" transform="translate(-123.75 0)"/><path class="cls-4" d="M1197.52,252.52h-10.27v12.8h10.27Z" transform="translate(-123.75 0)"/><path class="cls-4" d="M1184.38,252.52h-10.26v12.8h10.26Z" transform="translate(-123.75 0)"/><path class="cls-4" d="M1197.52,230.78h-10.27v12.8h10.27Z" transform="translate(-123.75 0)"/><path class="cls-4" d="M1184.38,230.78h-10.26v12.8h10.26Z" transform="translate(-123.75 0)"/><path class="cls-4" d="M1197.52,209.05h-10.27v12.8h10.27Z" transform="translate(-123.75 0)"/><path class="cls-4" d="M1184.38,209.05h-10.26v12.8h10.26Z" transform="translate(-123.75 0)"/><path class="cls-4" d="M1197.52,187.31h-10.27v12.8h10.27Z" transform="translate(-123.75 0)"/><path class="cls-4" d="M1184.38,187.31h-10.26v12.8h10.26Z" transform="translate(-123.75 0)"/><path class="cls-4" d="M1197.52,165.57h-10.27v12.8h10.27Z" transform="translate(-123.75 0)"/><path class="cls-4" d="M1184.38,165.57h-10.26v12.8h10.26Z" transform="translate(-123.75 0)"/><path class="cls-4" d="M1197.52,143.83h-10.27v12.81h10.27Z" transform="translate(-123.75 0)"/><path class="cls-4" d="M1184.38,143.83h-10.26v12.81h10.26Z" transform="translate(-123.75 0)"/><path class="cls-4" d="M1197.52,122.1h-10.27v12.8h10.27Z" transform="translate(-123.75 0)"/><path class="cls-4" d="M1184.38,122.1h-10.26v12.8h10.26Z" transform="translate(-123.75 0)"/><path class="cls-4" d="M1197.52,100.36h-10.27v12.8h10.27Z" transform="translate(-123.75 0)"/><path class="cls-4" d="M1184.38,100.36h-10.26v12.8h10.26Z" transform="translate(-123.75 0)"/><path class="cls-4" d="M1197.52,78.62h-10.27V91.43h10.27Z" transform="translate(-123.75 0)"/><path class="cls-4" d="M1171.36,78.62h-10.27V91.43h10.27Z" transform="translate(-123.75 0)"/><path class="cls-4" d="M1171.36,100.36h-10.27v12.8h10.27Z" transform="translate(-123.75 0)"/><path class="cls-4" d="M1171.36,122.1h-10.27v12.8h10.27Z" transform="translate(-123.75 0)"/><path class="cls-4" d="M1171.36,143.83h-10.27v12.81h10.27Z" transform="translate(-123.75 0)"/><path class="cls-4" d="M1171.36,165.57h-10.27v12.81h10.27Z" transform="translate(-123.75 0)"/><path class="cls-4" d="M1171.36,187.31h-10.27v12.8h10.27Z" transform="translate(-123.75 0)"/><path class="cls-4" d="M1171.36,209h-10.27v12.81h10.27Z" transform="translate(-123.75 0)"/><path class="cls-4" d="M1171.36,230.78h-10.27v12.81h10.27Z" transform="translate(-123.75 0)"/><path class="cls-4" d="M1171.36,252.52h-10.27v12.8h10.27Z" transform="translate(-123.75 0)"/><path class="cls-4" d="M1171.36,274.25h-10.27v12.81h10.27Z" transform="translate(-123.75 0)"/><path class="cls-4" d="M1171.36,296h-10.27V308.8h10.27Z" transform="translate(-123.75 0)"/><path class="cls-4" d="M1171.36,317.73h-10.27v12.8h10.27Z" transform="translate(-123.75 0)"/><path class="cls-4" d="M1171.36,339.47h-10.27v12.8h10.27Z" transform="translate(-123.75 0)"/><path class="cls-4" d="M1171.36,361.2h-10.27V374h10.27Z" transform="translate(-123.75 0)"/><path class="cls-4" d="M1184.38,78.62h-10.26V91.43h10.26Z" transform="translate(-123.75 0)"/><path class="cls-2" d="M874.22,15.72c4.52,0,80.56.5,85.33.34a.37.37,0,0,0,.19-.68c-3-1.49-6.43-1.19-9.56-2.25a10.19,10.19,0,0,1-4.25-3.21,8.8,8.8,0,0,0-4-2.57,8.25,8.25,0,0,0-4.3-.14A37.7,37.7,0,0,0,933.31,9c-3.65,1.38-7.2.07-9.8-2.63-2.15-2.23-4.27-4.33-7.19-5.53a9.55,9.55,0,0,0-7.61-.11C905.91,2,904,4.55,901.38,6.08c-3.09,1.8-6.82,1.38-10.25,1.93s-6.06,3.44-9.07,5.1a6.43,6.43,0,0,1-3.28,1c-.67,0-1.33-.2-2-.28a2.71,2.71,0,0,0-2.71.77C873.89,14.82,873.92,15.72,874.22,15.72Z" transform="translate(-123.75 0)"/><path class="cls-2" d="M198.38,50.73c6.57,0,117.1.73,124.05.52.5,0,.78-.75.26-1-4.39-2.17-9.35-1.74-13.9-3.27-2.68-.91-4.32-2.65-6.19-4.66a12.76,12.76,0,0,0-5.75-3.76,12.08,12.08,0,0,0-6.26-.19c-2.24.53-4.19,1.8-6.33,2.62-5.31,2-10.47.1-14.26-3.83-3.13-3.23-6.19-6.29-10.45-8A13.87,13.87,0,0,0,248.47,29c-4,1.83-6.81,5.52-10.62,7.74-4.52,2.64-9.92,2-14.9,2.81s-8.82,5-13.19,7.42A9.37,9.37,0,0,1,205,48.42a28.1,28.1,0,0,1-2.9-.41c-1.51-.18-2.94-.14-4,1.12C197.9,49.44,198,50.73,198.38,50.73Z" transform="translate(-123.75 0)"/><path class="cls-2" d="M436.77,39.65c3.59,0,64.05.4,67.85.27a.3.3,0,0,0,.18-.06.29.29,0,0,0,.09-.34.24.24,0,0,0-.12-.14c-2.39-1.18-5.11-1-7.6-1.78A8.07,8.07,0,0,1,493.79,35,7,7,0,0,0,490.64,33a6.72,6.72,0,0,0-3.42-.11,30,30,0,0,0-3.46,1.44c-2.91,1.1-5.73.06-7.81-2.1a17.08,17.08,0,0,0-5.71-4.38,7.6,7.6,0,0,0-6.06-.09c-2.22,1-3.74,3-5.82,4.25-2.47,1.44-5.42,1.1-8.16,1.54s-4.81,2.74-7.22,4.06a5.13,5.13,0,0,1-2.6.81c-.54,0-1.06-.16-1.59-.23a2.17,2.17,0,0,0-2.16.61C436.5,38.94,436.53,39.65,436.77,39.65Z" transform="translate(-123.75 0)"/><path class="cls-2" d="M1172.3,37.84c4.33,0,77.1.47,81.67.33a.36.36,0,0,0,.18-.66c-2.88-1.42-6.15-1.14-9.15-2.15a9.66,9.66,0,0,1-4.06-3.07,8.57,8.57,0,0,0-3.79-2.47,8,8,0,0,0-4.13-.13,35.22,35.22,0,0,0-4.17,1.73c-3.49,1.32-6.89.07-9.39-2.52-2.06-2.13-4.08-4.14-6.88-5.29a9.15,9.15,0,0,0-7.29-.1c-2.67,1.21-4.5,3.64-7,5.1-3,1.74-6.52,1.33-9.8,1.85s-5.8,3.29-8.68,4.88a6.21,6.21,0,0,1-3.14,1c-.64,0-1.27-.19-1.91-.27a2.59,2.59,0,0,0-2.6.73C1172,37,1172,37.84,1172.3,37.84Z" transform="translate(-123.75 0)"/><path class="cls-2" d="M513.82,117.26c.06.17,81.38,0,80.35,0-.46,0,.72-.7.26-.93-2.64-1.31-5.54-1.34-8.42-1.61a9.51,9.51,0,0,1-8.5-4.68,15.28,15.28,0,0,0-13.89-5.26c-5.78.91-10.34,5.31-16.13,6.12-3.48.49-6.77-.86-10.17-1.33a12.45,12.45,0,0,0-7.64,1.39,14.48,14.48,0,0,1-5.6,1.82c-1.59.12-3.19-.07-4.79-.09a10.76,10.76,0,0,0-7,2.82C512,115.74,511.17,117.26,513.82,117.26Z" transform="translate(-123.75 0)"/></svg>