<svg width="61" height="61" viewBox="0 0 61 61" fill="none" xmlns="http://www.w3.org/2000/svg">
<g clip-path="url(#clip0_143_1069)">
<path d="M55.284 22.8798C55.3025 22.6482 55.3116 22.4162 55.3116 22.1843C55.3116 17.3303 51.3624 13.381 46.5084 13.381C46.0731 13.381 45.6402 13.4128 45.2127 13.4761C43.364 9.28843 39.2325 6.55499 34.5631 6.55499C28.1406 6.55499 22.9157 11.78 22.9157 18.2024C22.9157 18.5551 22.9317 18.9076 22.9634 19.2583C20.9854 19.6463 19.1721 20.6274 17.7452 22.1028C15.9442 23.9655 14.9521 26.4186 14.9521 29.0102C14.9521 34.4916 19.4117 38.9512 24.8931 38.9512H52.7656C57.3062 38.9512 61.0001 35.2572 61.0001 30.7168C60.9999 27.1095 58.6247 23.9588 55.284 22.8798Z" fill="#6FC8F1"/>
<path d="M55.284 22.8799C55.3025 22.6482 55.3117 22.4162 55.3117 22.1843C55.3117 17.3303 51.3624 13.381 46.5084 13.381C46.0731 13.381 45.6402 13.4128 45.2127 13.4761C43.364 9.28843 39.2325 6.55499 34.5631 6.55499C33.1139 6.55499 31.7269 6.82318 30.4459 7.30903V38.9511H52.7655C57.3061 38.9511 61 35.2571 61 30.7167C60.9999 27.1095 58.6247 23.9588 55.284 22.8799Z" fill="#4BBAED"/>
<path d="M46.3343 36.1832C46.3657 35.861 46.3815 35.5378 46.3815 35.2147C46.3815 29.7065 41.9002 25.2254 36.3921 25.2254C35.8402 25.2254 35.2915 25.2704 34.7507 25.3601C32.6764 20.4924 27.917 17.3047 22.5306 17.3047C15.2027 17.3047 9.24089 23.2663 9.24089 30.5943C9.24089 31.0655 9.26579 31.5362 9.31523 32.0036C6.98675 32.4166 4.84889 33.5489 3.17747 35.2774C1.1285 37.3963 0 40.1869 0 43.1354C0 49.3714 5.07347 54.4448 11.3094 54.4448H43.6526C48.7968 54.4448 52.982 50.2596 52.982 45.1154C52.9821 40.9673 50.2091 37.3518 46.3343 36.1832Z" fill="#B7E4F8"/>
<path d="M46.3343 36.1832C46.3658 35.861 46.3815 35.5378 46.3815 35.2147C46.3815 29.7065 41.9003 25.2254 36.3922 25.2254C35.8402 25.2254 35.2915 25.2704 34.7508 25.3601C33.8072 23.1459 32.3067 21.281 30.4457 19.9039V54.445H43.6528C48.7971 54.445 52.9822 50.2598 52.9822 45.1156C52.9821 40.9673 50.2091 37.3518 46.3343 36.1832Z" fill="#93D6F4"/>
</g>
<defs>
<clipPath id="clip0_143_1069">
<rect width="61" height="61" fill="white"/>
</clipPath>
</defs>
</svg>
