<svg id="Слой_1" data-name="Слой 1" xmlns="http://www.w3.org/2000/svg" viewBox="0 0 1198.96 403.19"><defs><style>.cls-1{fill:#dcdcdc;}.cls-2{fill:#557077;}.cls-3{fill:#3e555b;}.cls-4{fill:#2b525b;}.cls-5{fill:#ececec;}.cls-6{fill:#2b454e;}.cls-7{fill:#375a64;}.cls-8{fill:#122e33;}.cls-9{fill:#a8a8a8;}.cls-10{fill:#c8c8c8;}.cls-11{fill:#fff;}.cls-12{fill:#fee45a;}.cls-13{fill:#c9b14f;}.cls-14{fill:#a5913d;}.cls-15{fill:#c6b467;}.cls-16{opacity:0.2;}.cls-16,.cls-20{isolation:isolate;}.cls-17{fill:#b5a045;}.cls-18{fill:#1b363a;}.cls-19{fill:#1a2e35;}.cls-20,.cls-22{opacity:0.3;}.cls-21{fill:#9e8c3f;}.cls-23{fill:#d3ba50;}</style></defs><path class="cls-1" d="M631,322.07h-7.79v14.25H631Z"/><path class="cls-1" d="M631,345.15h-7.79v14.17H631Z"/><path class="cls-1" d="M631,368.24h-7.79v14.2H631Z"/><path class="cls-2" d="M590.37,179H506.71V403.19h83.66Z"/><path class="cls-3" d="M590.37,171.22H504.71V179h85.67Z"/><path class="cls-4" d="M522.76,200.43h-8.47v15.43h8.47Z"/><path class="cls-4" d="M537.77,200.43h-8.46v15.43h8.46Z"/><path class="cls-4" d="M552.79,200.43h-8.48v15.43h8.47Z"/><path class="cls-4" d="M567.81,200.43h-8.48v15.43h8.48Z"/><path class="cls-4" d="M582.81,200.43h-8.47v15.43h8.47Z"/><path class="cls-4" d="M522.76,225.5h-8.47v15.43h8.47Z"/><path class="cls-4" d="M537.77,225.5h-8.46v15.43h8.46Z"/><path class="cls-4" d="M552.79,225.5h-8.48v15.43h8.47Z"/><path class="cls-4" d="M567.81,225.5h-8.48v15.43h8.48Z"/><path class="cls-4" d="M582.81,225.5h-8.47v15.43h8.47Z"/><path class="cls-4" d="M522.76,250.58h-8.47V266h8.47Z"/><path class="cls-4" d="M537.77,250.58h-8.46V266h8.46Z"/><path class="cls-4" d="M552.79,250.58h-8.48V266h8.47Z"/><path class="cls-4" d="M567.81,250.58h-8.48V266h8.48Z"/><path class="cls-4" d="M582.81,250.58h-8.47V266h8.47Z"/><path class="cls-5" d="M522.76,275.65h-8.47v15.43h8.47Z"/><path class="cls-5" d="M537.77,275.65h-8.46v15.43h8.46Z"/><path class="cls-4" d="M552.79,275.65h-8.48v15.43h8.47Z"/><path class="cls-4" d="M567.81,275.65h-8.48v15.43h8.48Z"/><path class="cls-4" d="M582.81,275.65h-8.47v15.43h8.47Z"/><path class="cls-5" d="M522.76,300.72h-8.47v15.43h8.47Z"/><path class="cls-5" d="M537.77,300.72h-8.46v15.43h8.46Z"/><path class="cls-4" d="M552.79,300.72h-8.48v15.43h8.47Z"/><path class="cls-4" d="M567.81,300.72h-8.48v15.43h8.48Z"/><path class="cls-4" d="M582.81,300.72h-8.47v15.43h8.47Z"/><path class="cls-5" d="M522.76,325.8h-8.47v15.42h8.47Z"/><path class="cls-5" d="M537.77,325.8h-8.46v15.42h8.46Z"/><path class="cls-4" d="M552.79,325.8h-8.48v15.42h8.47Z"/><path class="cls-4" d="M567.81,325.8h-8.48v15.42h8.48Z"/><path class="cls-4" d="M582.81,325.8h-8.47v15.42h8.47Z"/><path class="cls-5" d="M522.76,350.87h-8.47v15.45h8.47Z"/><path class="cls-5" d="M537.77,350.87h-8.46v15.45h8.46Z"/><path class="cls-4" d="M552.79,350.87h-8.48v15.45h8.47Z"/><path class="cls-4" d="M567.81,350.87h-8.48v15.45h8.48Z"/><path class="cls-4" d="M582.81,350.87h-8.47v15.45h8.47Z"/><path class="cls-6" d="M644.06,179H590.37V403.19h53.69Z"/><path class="cls-7" d="M646.39,171.22h-56V179h56Z"/><path class="cls-8" d="M605.66,200.43h-7v15.43h7Z"/><path class="cls-8" d="M620.67,200.43h-7v15.43h7Z"/><path class="cls-8" d="M635.68,200.43h-7v15.43h7Z"/><path class="cls-8" d="M605.66,225.5h-7v15.43h7Z"/><path class="cls-8" d="M620.67,225.5h-7v15.43h7Z"/><path class="cls-8" d="M635.68,225.5h-7v15.43h7Z"/><path class="cls-8" d="M605.66,250.58h-7V266h7Z"/><path class="cls-8" d="M620.67,250.58h-7V266h7Z"/><path class="cls-8" d="M635.68,250.58h-7V266h7Z"/><path class="cls-8" d="M605.66,275.65h-7v15.43h7Z"/><path class="cls-8" d="M620.67,275.65h-7v15.43h7Z"/><path class="cls-8" d="M605.66,300.72h-7v15.43h7Z"/><path class="cls-8" d="M620.67,300.72h-7v15.43h7Z"/><path class="cls-8" d="M605.66,325.79h-7v15.43h7Z"/><path class="cls-8" d="M620.67,325.79h-7v15.43h7Z"/><path class="cls-8" d="M605.66,350.88h-7v15.43h7Z"/><path class="cls-8" d="M620.67,350.88h-7v15.43h7Z"/><path class="cls-8" d="M635.68,275.65h-7v15.43h7Z"/><path class="cls-8" d="M636.43,300.72H628v15.43h8.48Z"/><path class="cls-8" d="M636.43,325.8H628v15.42h8.48Z"/><path class="cls-8" d="M636.43,350.87H628v15.45h8.48Z"/><path class="cls-1" d="M816.34,67.73h-64V403h64Z"/><path class="cls-5" d="M774.74,78.62H762.3V91.43h12.44Z"/><path class="cls-5" d="M790.65,78.62h-12.4V91.43h12.4Z"/><path class="cls-5" d="M774.74,100.36H762.3v12.8h12.44Z"/><path class="cls-5" d="M790.65,100.36h-12.4v12.8h12.4Z"/><path class="cls-5" d="M774.74,122.1H762.3v12.8h12.44Z"/><path class="cls-5" d="M790.65,122.1h-12.4v12.8h12.4Z"/><path class="cls-5" d="M774.74,143.83H762.3v12.81h12.44Z"/><path class="cls-5" d="M790.65,143.83h-12.4v12.81h12.4Z"/><path class="cls-5" d="M774.74,165.57H762.3v12.81h12.44Z"/><path class="cls-5" d="M790.65,165.57h-12.4v12.81h12.4Z"/><path class="cls-5" d="M774.74,187.31H762.3v12.8h12.44Z"/><path class="cls-5" d="M790.65,187.31h-12.4v12.8h12.4Z"/><path class="cls-5" d="M774.74,209H762.3v12.81h12.44Z"/><path class="cls-5" d="M790.65,209h-12.4v12.81h12.4Z"/><path class="cls-5" d="M774.74,230.78H762.3v12.81h12.44Z"/><path class="cls-5" d="M790.65,230.78h-12.4v12.81h12.4Z"/><path class="cls-5" d="M774.74,252.52H762.3v12.8h12.44Z"/><path class="cls-5" d="M790.65,252.52h-12.4v12.8h12.4Z"/><path class="cls-5" d="M774.74,274.25H762.3v12.81h12.44Z"/><path class="cls-5" d="M790.65,274.25h-12.4v12.81h12.4Z"/><path class="cls-5" d="M774.74,296H762.3v12.8h12.44Z"/><path class="cls-5" d="M790.65,296h-12.4v12.8h12.4Z"/><path class="cls-5" d="M774.74,317.73H762.3v12.8h12.44Z"/><path class="cls-5" d="M790.65,317.73h-12.4v12.8h12.4Z"/><path class="cls-5" d="M774.74,339.47H762.3v12.8h12.44Z"/><path class="cls-5" d="M790.65,339.47h-12.4v12.8h12.4Z"/><path class="cls-5" d="M774.74,361.2H762.3V374h12.44Z"/><path class="cls-5" d="M806.41,361.2H794V374h12.43Z"/><path class="cls-5" d="M806.41,339.46H794v12.81h12.43Z"/><path class="cls-5" d="M806.41,317.73H794v12.8h12.43Z"/><path class="cls-5" d="M806.41,296H794v12.8h12.43Z"/><path class="cls-5" d="M806.41,274.26H794v12.8h12.43Z"/><path class="cls-5" d="M806.41,252.52H794v12.8h12.43Z"/><path class="cls-5" d="M806.41,230.78H794v12.8h12.43Z"/><path class="cls-5" d="M806.41,209.05H794v12.8h12.43Z"/><path class="cls-5" d="M806.41,187.31H794v12.8h12.43Z"/><path class="cls-5" d="M806.41,165.57H794v12.8h12.43Z"/><path class="cls-5" d="M806.41,143.83H794v12.81h12.43Z"/><path class="cls-5" d="M806.41,122.1H794v12.8h12.43Z"/><path class="cls-5" d="M806.41,100.36H794v12.8h12.43Z"/><path class="cls-5" d="M806.41,78.62H794V91.43h12.43Z"/><path class="cls-5" d="M790.65,361.2h-12.4V374h12.4Z"/><path class="cls-9" d="M866.77,67.73H816.34V403h50.43Z"/><path class="cls-10" d="M861.57,361.2H851.31V374h10.26Z"/><path class="cls-10" d="M848.44,361.2H838.17V374h10.27Z"/><path class="cls-10" d="M861.57,339.46H851.31v12.81h10.26Z"/><path class="cls-10" d="M848.44,339.46H838.17v12.81h10.27Z"/><path class="cls-10" d="M861.57,317.73H851.31v12.8h10.26Z"/><path class="cls-10" d="M848.44,317.73H838.17v12.8h10.27Z"/><path class="cls-10" d="M861.57,296H851.31v12.8h10.26Z"/><path class="cls-10" d="M848.44,296H838.17v12.8h10.27Z"/><path class="cls-10" d="M861.57,274.26H851.31v12.8h10.26Z"/><path class="cls-10" d="M848.44,274.26H838.17v12.8h10.27Z"/><path class="cls-10" d="M861.57,252.52H851.31v12.8h10.26Z"/><path class="cls-10" d="M848.44,252.52H838.17v12.8h10.27Z"/><path class="cls-10" d="M861.57,230.78H851.31v12.8h10.26Z"/><path class="cls-10" d="M848.44,230.78H838.17v12.8h10.27Z"/><path class="cls-10" d="M861.57,209.05H851.31v12.8h10.26Z"/><path class="cls-10" d="M848.44,209.05H838.17v12.8h10.27Z"/><path class="cls-10" d="M861.57,187.31H851.31v12.8h10.26Z"/><path class="cls-10" d="M834.34,78.62h-8.11V91.43h8.11Z"/><path class="cls-10" d="M847.36,78.62h-8.11V91.43h8.11Z"/><path class="cls-10" d="M860.49,78.62h-8.1V91.43h8.1Z"/><path class="cls-10" d="M834.34,99.17h-8.11V112h8.11Z"/><path class="cls-10" d="M847.36,99.17h-8.11V112h8.11Z"/><path class="cls-10" d="M860.49,99.17h-8.1V112h8.1Z"/><path class="cls-10" d="M834.34,122.76h-8.11v12.81h8.11Z"/><path class="cls-10" d="M847.36,122.76h-8.11v12.81h8.11Z"/><path class="cls-10" d="M860.49,122.76h-8.1v12.81h8.1Z"/><path class="cls-10" d="M834.34,143.31h-8.11v12.81h8.11Z"/><path class="cls-10" d="M847.36,143.31h-8.11v12.81h8.11Z"/><path class="cls-10" d="M860.49,143.31h-8.1v12.81h8.1Z"/><path class="cls-10" d="M834.34,165.31h-8.11v12.81h8.11Z"/><path class="cls-10" d="M847.36,165.31h-8.11v12.81h8.11Z"/><path class="cls-10" d="M834.34,187.31h-8.11v12.8h8.11Z"/><path class="cls-10" d="M847.36,187.31h-8.11v12.8h8.11Z"/><path class="cls-10" d="M860.49,165.31h-8.1v12.81h8.1Z"/><path class="cls-10" d="M835.42,230.78H825.15v12.81h10.27Z"/><path class="cls-10" d="M835.42,252.52H825.15v12.8h10.27Z"/><path class="cls-10" d="M835.42,274.25H825.15v12.81h10.27Z"/><path class="cls-10" d="M835.42,296H825.15v12.8h10.27Z"/><path class="cls-10" d="M835.42,317.73H825.15v12.8h10.27Z"/><path class="cls-10" d="M835.42,339.47H825.15v12.8h10.27Z"/><path class="cls-10" d="M835.42,361.2H825.15V374h10.27Z"/><path class="cls-1" d="M666.32,130.67h-7.8v14.2h7.8Z"/><path class="cls-1" d="M652.5,153.75h-7.8V168h7.8Z"/><path class="cls-1" d="M666.32,153.75h-7.8V168h7.8Z"/><path class="cls-1" d="M652.5,176.83h-7.8V191h7.8Z"/><path class="cls-1" d="M666.32,176.83h-7.8V191h7.8Z"/><path class="cls-1" d="M652.5,199.92h-7.8v14.2h7.8Z"/><path class="cls-1" d="M666.32,199.92h-7.8v14.2h7.8Z"/><path class="cls-1" d="M652.5,223h-7.8v14.2h7.8Z"/><path class="cls-1" d="M666.32,223h-7.8v14.2h7.8Z"/><path class="cls-1" d="M652.5,246.08h-7.8v14.2h7.8Z"/><path class="cls-1" d="M666.32,246.08h-7.8v14.2h7.8Z"/><path class="cls-1" d="M652.5,269.17h-7.8v14.2h7.8Z"/><path class="cls-1" d="M666.32,269.17h-7.8v14.2h7.8Z"/><path class="cls-1" d="M652.5,292.25h-7.8v14.2h7.8Z"/><path class="cls-1" d="M666.32,292.25h-7.8v14.2h7.8Z"/><path class="cls-1" d="M652.5,315.33h-7.8v14.2h7.8Z"/><path class="cls-1" d="M666.32,315.33h-7.8v14.2h7.8Z"/><path class="cls-1" d="M652.5,338.41h-7.8v14.21h7.8Z"/><path class="cls-1" d="M666.32,338.41h-7.8v14.21h7.8Z"/><path class="cls-1" d="M652.5,361.5h-7.8V403h7.8Z"/><path class="cls-1" d="M666.32,361.5h-7.8V403h7.8Z"/><path class="cls-5" d="M271.37,163H208.09V403h63.28Z"/><path class="cls-10" d="M271.38,147.11H217.09V163h54.29Z"/><path class="cls-1" d="M264.44,171.34H215V350.76h49.41Z"/><path class="cls-11" d="M264.44,188.46H215v4.24h49.41Z"/><path class="cls-11" d="M264.44,206H215v4.25h49.41Z"/><path class="cls-11" d="M264.44,223.59H215v4.24h49.41Z"/><path class="cls-11" d="M264.44,241.15H215v4.24h49.41Z"/><path class="cls-11" d="M264.44,258.71H215V263h49.41Z"/><path class="cls-11" d="M264.44,276.27H215v4.24h49.41Z"/><path class="cls-11" d="M264.44,293.84H215v4.24h49.41Z"/><path class="cls-11" d="M264.44,311.4H215v4.24h49.41Z"/><path class="cls-11" d="M264.44,329H215v4.24h49.41Z"/><path class="cls-11" d="M264.44,346.52H215v4.24h49.41Z"/><path class="cls-1" d="M311,163H271.38V403H311Z"/><path class="cls-9" d="M305.07,147.11H271.38V163h33.69Z"/><path class="cls-10" d="M307.32,171.34H276.84V350.76h30.48Z"/><path class="cls-11" d="M307.32,188.46H276.84v4.24h30.48Z"/><path class="cls-11" d="M307.32,206H276.84v4.25h30.48Z"/><path class="cls-11" d="M307.32,223.59H276.84v4.24h30.48Z"/><path class="cls-11" d="M307.32,241.15H276.84v4.24h30.48Z"/><path class="cls-11" d="M307.32,258.71H276.84V263h30.48Z"/><path class="cls-11" d="M307.32,276.27H276.84v4.24h30.48Z"/><path class="cls-11" d="M307.32,293.84H276.84v4.24h30.48Z"/><path class="cls-11" d="M307.32,311.4H276.84v4.24h30.48Z"/><path class="cls-11" d="M307.32,329H276.84v4.24h30.48Z"/><path class="cls-11" d="M307.32,346.52H276.84v4.24h30.48Z"/><path class="cls-10" d="M910.55,184.71h-13.3v23.76h13.27Z"/><path class="cls-5" d="M882.31,204.41H825.54V403h56.77Z"/><path class="cls-11" d="M849.75,213H832.57v7h17.17Z"/><path class="cls-11" d="M874.25,213H857.06v7h17.19Z"/><path class="cls-11" d="M849.75,224.87H832.57v7h17.17Z"/><path class="cls-11" d="M874.25,224.87H857.06v7h17.19Z"/><path class="cls-11" d="M851.09,236.79H833.91v7h17.18Z"/><path class="cls-11" d="M873.08,236.79H855.89v7h17.19Z"/><path class="cls-11" d="M851.09,248.72H833.91v7h17.18Z"/><path class="cls-11" d="M873.08,248.72H855.89v7h17.19Z"/><path class="cls-11" d="M851.09,260.64H833.91v7h17.18Z"/><path class="cls-11" d="M873.08,260.64H855.89v7h17.19Z"/><path class="cls-11" d="M851.09,272.56H833.91v7h17.18Z"/><path class="cls-11" d="M873.08,272.56H855.89v7h17.19Z"/><path class="cls-11" d="M851.09,284.48H833.91v7h17.18Z"/><path class="cls-11" d="M873.08,284.48H855.89v7h17.19Z"/><path class="cls-11" d="M851.09,296.4H833.91v7h17.18Z"/><path class="cls-11" d="M873.08,296.4H855.89v7h17.19Z"/><path class="cls-11" d="M851.09,308.33H833.91v7h17.18Z"/><path class="cls-11" d="M873.08,308.33H855.89v7h17.19Z"/><path class="cls-11" d="M851.09,320.25H833.91v7h17.18Z"/><path class="cls-11" d="M873.08,320.25H855.89v7h17.19Z"/><path class="cls-11" d="M851.09,332.17H833.91v7h17.18Z"/><path class="cls-11" d="M873.08,332.17H855.89v7h17.19Z"/><path class="cls-11" d="M851.09,344.09H833.91v7h17.18Z"/><path class="cls-11" d="M873.08,344.09H855.89v7h17.19Z"/><path class="cls-11" d="M851.09,356H833.91v7h17.18Z"/><path class="cls-11" d="M873.08,356H855.89v7h17.19Z"/><path class="cls-11" d="M851.09,367.94H833.91v7h17.18Z"/><path class="cls-11" d="M873.08,367.94H855.89v7h17.19Z"/><path class="cls-10" d="M926.6,204.41H882.31V403H926.6Z"/><path class="cls-5" d="M922.16,367.94H908.05v7h14.11Z"/><path class="cls-5" d="M904.11,367.94H890v7h14.11Z"/><path class="cls-5" d="M922.16,356H908.05v7h14.11Z"/><path class="cls-5" d="M904.11,356H890v7h14.11Z"/><path class="cls-5" d="M922.16,344.09H908.05v7h14.11Z"/><path class="cls-5" d="M904.11,344.09H890v7h14.11Z"/><path class="cls-5" d="M922.16,332.17H908.05v7h14.11Z"/><path class="cls-5" d="M904.11,332.17H890v7h14.11Z"/><path class="cls-5" d="M922.16,320.25H908.05v7h14.11Z"/><path class="cls-5" d="M904.11,320.25H890v7h14.11Z"/><path class="cls-5" d="M922.16,308.33H908.05v7h14.11Z"/><path class="cls-5" d="M904.11,308.33H890v7h14.11Z"/><path class="cls-5" d="M922.16,296.4H908.05v7h14.11Z"/><path class="cls-5" d="M904.11,296.4H890v7h14.11Z"/><path class="cls-5" d="M922.16,284.48H908.05v7h14.11Z"/><path class="cls-5" d="M904.11,284.48H890v7h14.11Z"/><path class="cls-5" d="M922.16,272.56H908.05v7h14.11Z"/><path class="cls-5" d="M904.11,272.56H890v7h14.11Z"/><path class="cls-5" d="M922.16,260.64H908.05v7h14.11Z"/><path class="cls-5" d="M904.11,260.64H890v7h14.11Z"/><path class="cls-5" d="M922.16,248.71H908.05v7h14.11Z"/><path class="cls-5" d="M904.11,248.71H890v7h14.11Z"/><path class="cls-5" d="M922.16,236.79H908.05v7h14.11Z"/><path class="cls-5" d="M904.11,236.79H890v7h14.11Z"/><path class="cls-5" d="M922.16,224.87H908.05v7h14.11Z"/><path class="cls-5" d="M904.11,224.87H890v7h14.11Z"/><path class="cls-5" d="M922.16,213H908.05v7h14.11Z"/><path class="cls-5" d="M904.11,213H890v7h14.11Z"/><path class="cls-1" d="M45.58,219.71H18.32V251.9H45.58Z"/><path class="cls-10" d="M62.9,219.71H45.58v33.38H62.9Z"/><path class="cls-1" d="M69.62,229.33h-15v23.76h15Z"/><path class="cls-10" d="M82.89,229.33H69.63v23.76H82.89Z"/><path class="cls-5" d="M54.66,249H0V403.19H54.66Z"/><path class="cls-11" d="M23.44,257.62H6.25v7H23.44Z"/><path class="cls-11" d="M45.42,257.62H28.25v7H45.43Z"/><path class="cls-11" d="M23.44,269.49H6.25v7H23.44Z"/><path class="cls-11" d="M45.42,269.49H28.25v7H45.43Z"/><path class="cls-11" d="M23.44,281.41H6.25v7H23.44Z"/><path class="cls-11" d="M45.42,281.41H28.25v7H45.43Z"/><path class="cls-11" d="M23.44,293.34H6.25v7H23.44Z"/><path class="cls-11" d="M45.42,293.34H28.25v7H45.43Z"/><path class="cls-11" d="M23.44,305.26H6.25v7H23.44Z"/><path class="cls-11" d="M45.42,305.26H28.25v7H45.43Z"/><path class="cls-11" d="M23.44,317.18H6.25v7H23.44Z"/><path class="cls-11" d="M45.42,317.18H28.25v7H45.43Z"/><path class="cls-11" d="M23.44,329.1H6.25v7H23.44Z"/><path class="cls-11" d="M45.42,329.1H28.25v7H45.43Z"/><path class="cls-11" d="M23.44,341H6.25v7H23.44Z"/><path class="cls-11" d="M45.42,341H28.25v7H45.43Z"/><path class="cls-11" d="M23.44,353H6.25v7H23.44Z"/><path class="cls-11" d="M45.42,353H28.25v7H45.43Z"/><path class="cls-11" d="M23.44,364.87H6.25v7H23.44Z"/><path class="cls-11" d="M45.42,364.87H28.25v7H45.43Z"/><path class="cls-11" d="M23.44,376.79H6.25v7H23.44Z"/><path class="cls-11" d="M45.42,376.79H28.25v7H45.43Z"/><path class="cls-11" d="M23.44,388.71H6.25v7H23.44Z"/><path class="cls-11" d="M45.42,388.71H28.25v7H45.43Z"/><path class="cls-10" d="M98.94,249H54.66V403.19H98.94Z"/><path class="cls-5" d="M94.51,388.71H80.39v7H94.51Z"/><path class="cls-5" d="M76.45,388.71H62.34v7H76.45Z"/><path class="cls-5" d="M94.51,376.79H80.39v7H94.51Z"/><path class="cls-5" d="M76.45,376.79H62.34v7H76.45Z"/><path class="cls-5" d="M94.51,364.87H80.39v7H94.51Z"/><path class="cls-5" d="M76.45,364.87H62.34v7H76.45Z"/><path class="cls-5" d="M94.51,353H80.39v7H94.51Z"/><path class="cls-5" d="M76.45,353H62.34v7H76.45Z"/><path class="cls-5" d="M94.51,341H80.39v7H94.51Z"/><path class="cls-5" d="M76.45,341H62.34v7H76.45Z"/><path class="cls-5" d="M94.51,329.1H80.39v7H94.51Z"/><path class="cls-5" d="M76.45,329.1H62.34v7H76.45Z"/><path class="cls-5" d="M94.51,317.18H80.39v7H94.51Z"/><path class="cls-5" d="M76.45,317.18H62.34v7H76.45Z"/><path class="cls-5" d="M94.51,305.26H80.39v7H94.51Z"/><path class="cls-5" d="M76.45,305.26H62.34v7H76.45Z"/><path class="cls-5" d="M94.51,293.33H80.39v7H94.51Z"/><path class="cls-5" d="M76.45,293.33H62.34v7H76.45Z"/><path class="cls-5" d="M94.51,281.41H80.39v7H94.51Z"/><path class="cls-5" d="M76.45,281.41H62.34v7H76.45Z"/><path class="cls-5" d="M94.51,269.49H80.39v7H94.51Z"/><path class="cls-5" d="M76.45,269.49H62.34v7H76.45Z"/><path class="cls-5" d="M94.51,257.62H80.39v7H94.51Z"/><path class="cls-5" d="M76.45,257.62H62.34v7H76.45Z"/><path class="cls-10" d="M503.7,273.61H439.25V403.83h64.47Z"/><path class="cls-1" d="M460.78,284.81H449.37v7.93h11.41Z"/><path class="cls-1" d="M460.78,301.75H449.37v7.93h11.41Z"/><path class="cls-1" d="M460.78,318.69H449.37v7.93h11.41Z"/><path class="cls-1" d="M460.78,335.63H449.37v7.92h11.41Z"/><path class="cls-1" d="M460.78,352.56H449.37v7.93h11.41Z"/><path class="cls-1" d="M460.78,369.5H449.37v7.93h11.41Z"/><path class="cls-1" d="M460.78,386.44H449.37v7.92h11.41Z"/><path class="cls-1" d="M477.19,284.81H465.78v7.93h11.41Z"/><path class="cls-1" d="M477.19,301.75H465.78v7.93h11.41Z"/><path class="cls-1" d="M477.19,318.69H465.78v7.93h11.41Z"/><path class="cls-1" d="M477.19,335.63H465.78v7.92h11.41Z"/><path class="cls-1" d="M477.19,352.56H465.78v7.93h11.41Z"/><path class="cls-1" d="M477.19,369.5H465.78v7.93h11.41Z"/><path class="cls-1" d="M477.19,386.44H465.78v7.92h11.41Z"/><path class="cls-1" d="M493.56,284.81H482.15v7.93h11.41Z"/><path class="cls-1" d="M493.56,301.75H482.15v7.93h11.41Z"/><path class="cls-1" d="M493.56,318.69H482.15v7.93h11.41Z"/><path class="cls-1" d="M493.56,335.63H482.15v7.92h11.41Z"/><path class="cls-1" d="M493.56,352.56H482.15v7.93h11.41Z"/><path class="cls-1" d="M493.56,369.5H482.15v7.93h11.41Z"/><path class="cls-1" d="M493.56,386.44H482.15v7.92h11.41Z"/><path class="cls-1" d="M503.7,260.12H460.78v13.49H503.7Z"/><path class="cls-5" d="M503.7,251.77H476.49v8.35H503.7Z"/><path class="cls-9" d="M548.92,273.61H503.7V403.19h45.22Z"/><path class="cls-10" d="M544.3,385.17H535v7.93h9.29Z"/><path class="cls-10" d="M544.3,368.24H535v7.93h9.29Z"/><path class="cls-10" d="M544.3,351.3H535v7.93h9.29Z"/><path class="cls-10" d="M544.3,334.36H535v7.93h9.29Z"/><path class="cls-10" d="M544.3,317.42H535v7.93h9.29Z"/><path class="cls-10" d="M544.3,300.49H535v7.93h9.29Z"/><path class="cls-10" d="M544.3,283.55H535v7.93h9.29Z"/><path class="cls-10" d="M530.94,385.17h-9.29v7.93h9.29Z"/><path class="cls-10" d="M530.94,368.24h-9.29v7.93h9.29Z"/><path class="cls-10" d="M530.94,351.3h-9.29v7.93h9.29Z"/><path class="cls-10" d="M530.94,334.36h-9.29v7.93h9.29Z"/><path class="cls-10" d="M530.94,317.42h-9.29v7.93h9.29Z"/><path class="cls-10" d="M530.94,300.49h-9.29v7.93h9.29Z"/><path class="cls-10" d="M530.94,283.55h-9.29v7.93h9.29Z"/><path class="cls-10" d="M517.61,385.17h-9.28v7.93h9.28Z"/><path class="cls-10" d="M517.61,368.24h-9.28v7.93h9.28Z"/><path class="cls-10" d="M517.61,351.3h-9.28v7.93h9.28Z"/><path class="cls-10" d="M517.61,334.36h-9.28v7.93h9.28Z"/><path class="cls-10" d="M517.61,317.42h-9.28v7.93h9.28Z"/><path class="cls-10" d="M517.61,300.49h-9.28v7.93h9.28Z"/><path class="cls-10" d="M517.61,283.55h-9.28v7.93h9.28Z"/><path class="cls-10" d="M542.07,260.12H503.7v13.49h38.37Z"/><path class="cls-1" d="M524.49,251.77H503.7v8.35h20.79Z"/><path class="cls-12" d="M407.72,403.32H344v-200L407.72,162Z"/><path class="cls-13" d="M399.53,403.32H351.25V208.89l48.33-31.37Z"/><path class="cls-12" d="M399.53,212.2h-42.8v1.54h42.8Z"/><path class="cls-12" d="M399.53,224.82h-42.8v1.54h42.8Z"/><path class="cls-12" d="M399.53,237.44h-42.8V239h42.8Z"/><path class="cls-12" d="M399.53,250.06h-42.8v1.54h42.8Z"/><path class="cls-12" d="M399.53,262.68h-42.8v1.54h42.8Z"/><path class="cls-12" d="M399.53,275.3h-42.8v1.54h42.8Z"/><path class="cls-12" d="M399.53,287.92h-42.8v1.54h42.8Z"/><path class="cls-12" d="M399.53,300.54h-42.8v1.54h42.8Z"/><path class="cls-12" d="M399.53,313.16h-42.8v1.54h42.8Z"/><path class="cls-12" d="M399.53,325.78h-42.8v1.54h42.8Z"/><path class="cls-12" d="M399.53,338.4h-42.8v1.54h42.8Z"/><path class="cls-12" d="M399.53,351h-42.8v1.54h42.8Z"/><path class="cls-12" d="M399.53,363.64h-42.8v1.54h42.8Z"/><path class="cls-12" d="M399.53,376.26h-42.8v1.54h42.8Z"/><path class="cls-12" d="M399.53,388.88h-42.8v1.54h42.8Z"/><path class="cls-12" d="M378.9,197.54h-1.54V403.19h1.54Z"/><path class="cls-12" d="M399.53,177.51v7l-42.8,27.74V403h-5.48V208.84Z"/><path class="cls-14" d="M399.53,177.51v7l-42.8,27.74V403h-5.48V208.84Z"/><path class="cls-12" d="M463.83,162H407.72V403.19h56.11Z"/><path class="cls-15" d="M458.38,178.52H413.16V184h45.22Z"/><path class="cls-15" d="M458.38,189.88H413.16v5.45h45.22Z"/><path class="cls-15" d="M458.38,202.24H413.16v5.45h45.22Z"/><path class="cls-15" d="M458.38,214.6H413.16v5.46h45.22Z"/><path class="cls-15" d="M458.38,227H413.16v5.46h45.22Z"/><path class="cls-15" d="M458.38,239.32H413.16v5.46h45.22Z"/><path class="cls-15" d="M458.38,251.69H413.16v5.45h45.22Z"/><path class="cls-15" d="M458.38,264.05H413.16v5.46h45.22Z"/><path class="cls-15" d="M458.38,276.41H413.16v5.46h45.22Z"/><path class="cls-15" d="M458.38,288.77H413.16v5.46h45.22Z"/><path class="cls-15" d="M458.38,301.14H413.16v5.45h45.22Z"/><path class="cls-15" d="M458.38,313.5H413.16V319h45.22Z"/><path class="cls-15" d="M458.38,325.86H413.16v5.46h45.22Z"/><path class="cls-15" d="M458.38,338.22H413.16v5.46h45.22Z"/><path class="cls-15" d="M458.38,350.59H413.16V356h45.22Z"/><path class="cls-15" d="M458.38,363H413.16v5.45h45.22Z"/><path class="cls-15" d="M458.38,375.31H413.16v5.45h45.22Z"/><path class="cls-15" d="M458.38,387.67H413.16v5.46h45.22Z"/><path class="cls-12" d="M1142.85,403h-63.68V203.25L1142.85,162Z"/><path class="cls-13" d="M1134.67,403h-48.34V208.84l48.34-31.32Z"/><path class="cls-12" d="M1134.67,212.2h-42.8v1.54h42.8Z"/><path class="cls-12" d="M1134.67,224.82h-42.8v1.54h42.8Z"/><path class="cls-12" d="M1134.67,237.44h-42.8V239h42.8Z"/><path class="cls-12" d="M1134.67,250.06h-42.8v1.54h42.8Z"/><path class="cls-12" d="M1134.67,262.68h-42.8v1.54h42.8Z"/><path class="cls-12" d="M1134.67,275.3h-42.8v1.54h42.8Z"/><path class="cls-12" d="M1134.67,287.92h-42.8v1.54h42.8Z"/><path class="cls-12" d="M1134.67,300.54h-42.8v1.54h42.8Z"/><path class="cls-12" d="M1134.67,313.16h-42.8v1.54h42.8Z"/><path class="cls-12" d="M1134.67,325.78h-42.8v1.54h42.8Z"/><path class="cls-12" d="M1134.67,338.4h-42.8v1.54h42.8Z"/><path class="cls-12" d="M1134.67,351h-42.8v1.54h42.8Z"/><path class="cls-12" d="M1134.67,363.64h-42.8v1.54h42.8Z"/><path class="cls-12" d="M1134.67,376.26h-42.8v1.54h42.8Z"/><path class="cls-12" d="M1134.67,388.88h-42.8v1.54h42.8Z"/><path class="cls-12" d="M1134.67,401.5h-42.8V403h42.8Z"/><path class="cls-12" d="M1114,197.54h-1.54V403H1114Z"/><path class="cls-12" d="M1134.67,177.51v7l-42.8,27.74V403h-5.53V208.84Z"/><path class="cls-14" d="M1134.67,177.51v7l-42.8,27.74V403h-5.53V208.84Z"/><path class="cls-12" d="M1199,162h-56.11V403H1199Z"/><path class="cls-16" d="M1199,162h-56.11V403H1199Z"/><path class="cls-17" d="M1193.52,177.51H1148.3V183h45.22Z"/><path class="cls-17" d="M1193.52,189.88H1148.3v5.45h45.22Z"/><path class="cls-17" d="M1193.52,202.24H1148.3v5.45h45.22Z"/><path class="cls-17" d="M1193.52,214.6H1148.3v5.46h45.22Z"/><path class="cls-17" d="M1193.52,227H1148.3v5.46h45.22Z"/><path class="cls-17" d="M1193.52,239.32H1148.3v5.46h45.22Z"/><path class="cls-17" d="M1193.52,251.69H1148.3v5.45h45.22Z"/><path class="cls-17" d="M1193.52,264.05H1148.3v5.46h45.22Z"/><path class="cls-17" d="M1193.52,276.41H1148.3v5.46h45.22Z"/><path class="cls-17" d="M1193.52,288.77H1148.3v5.46h45.22Z"/><path class="cls-17" d="M1193.52,301.14H1148.3v5.45h45.22Z"/><path class="cls-17" d="M1193.52,313.5H1148.3V319h45.22Z"/><path class="cls-17" d="M1193.52,325.86H1148.3v5.46h45.22Z"/><path class="cls-17" d="M1193.52,338.22H1148.3v5.46h45.22Z"/><path class="cls-17" d="M1193.52,350.59H1148.3V356h45.22Z"/><path class="cls-17" d="M1193.52,363H1148.3v5.45h45.22Z"/><path class="cls-17" d="M1193.52,375.31H1148.3v5.45h45.22Z"/><path class="cls-17" d="M1193.52,387.67H1148.3v5.46h45.22Z"/><path class="cls-7" d="M958.39,167.85h-76.6V403.64h76.6Z"/><path class="cls-6" d="M958.1,144.19H900.79v23.66H958.1Z"/><path class="cls-7" d="M910.46,147.84h-4.9V164.2h4.9Z"/><path class="cls-7" d="M919,147.84h-4.9V164.2H919Z"/><path class="cls-7" d="M927.61,147.84h-4.9V164.2h4.9Z"/><path class="cls-7" d="M936.18,147.84h-4.93V164.2h4.9Z"/><path class="cls-7" d="M944.76,147.84h-4.9V164.2h4.9Z"/><path class="cls-7" d="M953.33,147.84h-4.9V164.2h4.9Z"/><path class="cls-7" d="M984.17,144.19H958.1v23.66h26.07Z"/><path class="cls-6" d="M965.93,147.84h-4.17V164.2h4.17Z"/><path class="cls-6" d="M973.25,147.84h-4.17V164.2h4.17Z"/><path class="cls-6" d="M980.51,147.84h-4.17V164.2h4.17Z"/><path class="cls-6" d="M997.09,167.85h-39V403.64h39Z"/><path class="cls-18" d="M911.61,184.05H897.47V205.7h14.14Z"/><path class="cls-18" d="M940.39,184.05H926.25V205.7h14.14Z"/><path class="cls-18" d="M911.61,218.17H897.47v21.64h14.14Z"/><path class="cls-18" d="M940.39,218.17H926.25v21.64h14.14Z"/><path class="cls-18" d="M911.61,252.28H897.47v21.65h14.14Z"/><path class="cls-18" d="M940.39,252.28H926.25v21.65h14.14Z"/><path class="cls-18" d="M911.61,286.4H897.47v21.65h14.14Z"/><path class="cls-18" d="M940.39,286.4H926.25v21.65h14.14Z"/><path class="cls-18" d="M911.61,320.51H897.47v21.65h14.14Z"/><path class="cls-18" d="M940.39,320.51H926.25v21.65h14.14Z"/><path class="cls-18" d="M911.61,354.63H897.47v21.65h14.14Z"/><path class="cls-18" d="M940.39,354.63H926.25v21.65h14.14Z"/><path class="cls-19" d="M973.39,184.05h-8.14V205.7h8.12Z"/><path class="cls-19" d="M989.93,184.05H981.8V205.7h8.13Z"/><path class="cls-19" d="M973.39,218.17h-8.14v21.64h8.12Z"/><path class="cls-19" d="M989.93,218.17H981.8v21.64h8.13Z"/><path class="cls-19" d="M973.39,252.28h-8.14v21.65h8.12Z"/><path class="cls-19" d="M989.93,252.28H981.8v21.65h8.13Z"/><path class="cls-19" d="M973.39,286.4h-8.14v21.65h8.12Z"/><path class="cls-19" d="M989.93,286.4H981.8v21.65h8.13Z"/><path class="cls-19" d="M973.39,320.51h-8.14v21.65h8.12Z"/><path class="cls-19" d="M989.93,320.51H981.8v21.65h8.13Z"/><path class="cls-19" d="M973.39,354.63h-8.14v21.65h8.12Z"/><path class="cls-19" d="M989.93,354.63H981.8v21.65h8.13Z"/><path class="cls-6" d="M366.06,86H317.62V403.32h48.44Z"/><path class="cls-7" d="M366.06,103.75H317.62v3.33h48.44Z"/><path class="cls-19" d="M331.53,116.88h-8.92v18.54h8.92Z"/><path class="cls-19" d="M331.53,140.27h-8.92v18.54h8.92Z"/><path class="cls-19" d="M331.53,163.66h-8.92V182.2h8.92Z"/><path class="cls-19" d="M331.53,187h-8.92v18.54h8.92Z"/><path class="cls-19" d="M331.53,210.42h-8.92V229h8.92Z"/><path class="cls-19" d="M331.53,233.81h-8.92v18.54h8.92Z"/><path class="cls-19" d="M331.53,257.19h-8.92v18.54h8.92Z"/><path class="cls-19" d="M331.53,280.58h-8.92v18.53h8.92Z"/><path class="cls-19" d="M331.53,304h-8.92v18.54h8.92Z"/><path class="cls-19" d="M331.53,327.34h-8.92v18.54h8.92Z"/><path class="cls-19" d="M331.53,350.73h-8.92v18.54h8.92Z"/><path class="cls-19" d="M331.53,374.12h-8.92v18.54h8.92Z"/><path class="cls-8" d="M331.53,116.88h-8.92v18.54h8.92Z"/><path class="cls-8" d="M331.53,140.27h-8.92v18.54h8.92Z"/><path class="cls-8" d="M331.53,163.66h-8.92V182.2h8.92Z"/><path class="cls-8" d="M331.53,187h-8.92v18.54h8.92Z"/><path class="cls-8" d="M331.53,210.42h-8.92V229h8.92Z"/><path class="cls-8" d="M331.53,233.81h-8.92v18.54h8.92Z"/><path class="cls-8" d="M331.53,257.19h-8.92v18.54h8.92Z"/><path class="cls-8" d="M331.53,280.58h-8.92v18.53h8.92Z"/><path class="cls-8" d="M331.53,304h-8.92v18.54h8.92Z"/><path class="cls-8" d="M331.53,327.34h-8.92v18.54h8.92Z"/><path class="cls-8" d="M331.53,350.73h-8.92v18.54h8.92Z"/><path class="cls-8" d="M331.53,374.12h-8.92v18.54h8.92Z"/><path class="cls-19" d="M346.3,116.88h-8.92v18.54h8.92Z"/><path class="cls-19" d="M346.3,140.27h-8.92v18.54h8.92Z"/><path class="cls-19" d="M346.3,163.66h-8.92V182.2h8.92Z"/><path class="cls-19" d="M346.3,187h-8.92v18.54h8.92Z"/><path class="cls-19" d="M346.3,210.42h-8.92V229h8.92Z"/><path class="cls-19" d="M346.3,233.81h-8.92v18.54h8.92Z"/><path class="cls-19" d="M346.3,257.19h-8.92v18.54h8.92Z"/><path class="cls-19" d="M346.3,280.58h-8.92v18.53h8.92Z"/><path class="cls-19" d="M346.3,304h-8.92v18.54h8.92Z"/><path class="cls-19" d="M346.3,327.34h-8.92v18.54h8.92Z"/><path class="cls-19" d="M346.3,350.73h-8.92v18.54h8.92Z"/><path class="cls-19" d="M346.3,374.12h-8.92v18.54h8.92Z"/><path class="cls-8" d="M346.3,116.88h-8.92v18.54h8.92Z"/><path class="cls-8" d="M346.3,140.27h-8.92v18.54h8.92Z"/><path class="cls-8" d="M346.3,163.66h-8.92V182.2h8.92Z"/><path class="cls-8" d="M346.3,187h-8.92v18.54h8.92Z"/><path class="cls-8" d="M346.3,210.42h-8.92V229h8.92Z"/><path class="cls-8" d="M346.3,233.81h-8.92v18.54h8.92Z"/><path class="cls-8" d="M346.3,257.19h-8.92v18.54h8.92Z"/><path class="cls-8" d="M346.3,280.58h-8.92v18.53h8.92Z"/><path class="cls-8" d="M346.3,304h-8.92v18.54h8.92Z"/><path class="cls-8" d="M346.3,327.34h-8.92v18.54h8.92Z"/><path class="cls-8" d="M346.3,350.73h-8.92v18.54h8.92Z"/><path class="cls-8" d="M346.3,374.12h-8.92v18.54h8.92Z"/><path class="cls-19" d="M361.07,116.88h-8.92v18.54h8.92Z"/><path class="cls-19" d="M361.07,140.27h-8.92v18.54h8.92Z"/><path class="cls-19" d="M361.07,163.66h-8.92V182.2h8.92Z"/><path class="cls-19" d="M361.07,187h-8.92v18.54h8.92Z"/><path class="cls-19" d="M361.07,210.42h-8.92V229h8.92Z"/><path class="cls-19" d="M361.07,233.81h-8.92v18.54h8.92Z"/><path class="cls-19" d="M361.07,257.19h-8.92v18.54h8.92Z"/><path class="cls-19" d="M361.07,280.58h-8.92v18.53h8.92Z"/><path class="cls-19" d="M361.07,304h-8.92v18.54h8.92Z"/><path class="cls-19" d="M361.07,327.34h-8.92v18.54h8.92Z"/><path class="cls-19" d="M361.07,350.73h-8.92v18.54h8.92Z"/><path class="cls-19" d="M361.07,374.12h-8.92v18.54h8.92Z"/><path class="cls-8" d="M361.07,116.88h-8.92v18.54h8.92Z"/><path class="cls-8" d="M361.07,140.27h-8.92v18.54h8.92Z"/><path class="cls-8" d="M361.07,163.66h-8.92V182.2h8.92Z"/><path class="cls-8" d="M361.07,187h-8.92v18.54h8.92Z"/><path class="cls-8" d="M361.07,210.42h-8.92V229h8.92Z"/><path class="cls-8" d="M361.07,233.81h-8.92v18.54h8.92Z"/><path class="cls-8" d="M361.07,257.19h-8.92v18.54h8.92Z"/><path class="cls-8" d="M361.07,280.58h-8.92v18.53h8.92Z"/><path class="cls-8" d="M361.07,304h-8.92v18.54h8.92Z"/><path class="cls-8" d="M361.07,327.34h-8.92v18.54h8.92Z"/><path class="cls-8" d="M361.07,350.73h-8.92v18.54h8.92Z"/><path class="cls-8" d="M361.07,374.12h-8.92v18.54h8.92Z"/><path class="cls-2" d="M317.62,86h-82.8V403.36h82.8Z"/><path class="cls-3" d="M317.62,103.75h-82.8v3.33h82.8Z"/><path class="cls-2" d="M317.62,68.18H264.33V86h53.29Z"/><path class="cls-19" d="M342.66,68.18h-25V86h25Z"/><path class="cls-19" d="M258.16,116.88H243.69v18.54h14.47Z"/><path class="cls-19" d="M258.16,140.27H243.69v18.54h14.47Z"/><path class="cls-19" d="M258.16,163.66H243.69V182.2h14.47Z"/><path class="cls-19" d="M258.16,187H243.69v18.54h14.47Z"/><path class="cls-19" d="M258.16,210.42H243.69V229h14.47Z"/><path class="cls-19" d="M258.16,233.81H243.69v18.54h14.47Z"/><path class="cls-19" d="M258.16,257.19H243.69v18.54h14.47Z"/><path class="cls-19" d="M258.16,280.58H243.69v18.53h14.47Z"/><path class="cls-19" d="M258.16,304H243.69v18.54h14.47Z"/><path class="cls-19" d="M258.16,327.34H243.69v18.54h14.47Z"/><path class="cls-19" d="M258.16,350.73H243.69v18.54h14.47Z"/><path class="cls-19" d="M258.16,374.12H243.69v18.54h14.47Z"/><path class="cls-4" d="M258.16,116.88H243.69v18.54h14.47Z"/><path class="cls-4" d="M258.16,140.27H243.69v18.54h14.47Z"/><path class="cls-4" d="M258.16,163.66H243.69V182.2h14.47Z"/><path class="cls-4" d="M258.16,187H243.69v18.54h14.47Z"/><path class="cls-4" d="M258.16,210.42H243.69V229h14.47Z"/><path class="cls-4" d="M258.16,233.81H243.69v18.54h14.47Z"/><path class="cls-4" d="M258.16,257.19H243.69v18.54h14.47Z"/><path class="cls-4" d="M258.16,280.58H243.69v18.53h14.47Z"/><path class="cls-4" d="M258.16,304H243.69v18.54h14.47Z"/><path class="cls-4" d="M258.16,327.34H243.69v18.54h14.47Z"/><path class="cls-4" d="M258.16,350.73H243.69v18.54h14.47Z"/><path class="cls-4" d="M258.16,374.12H243.69v18.54h14.47Z"/><path class="cls-19" d="M282.14,116.88H267.67v18.54h14.47Z"/><path class="cls-19" d="M282.14,140.27H267.67v18.54h14.47Z"/><path class="cls-19" d="M282.14,163.66H267.67V182.2h14.47Z"/><path class="cls-19" d="M282.14,187H267.67v18.54h14.47Z"/><path class="cls-19" d="M282.14,210.42H267.67V229h14.47Z"/><path class="cls-19" d="M282.14,233.81H267.67v18.54h14.47Z"/><path class="cls-19" d="M282.14,257.19H267.67v18.54h14.47Z"/><path class="cls-19" d="M282.14,280.58H267.67v18.53h14.47Z"/><path class="cls-19" d="M282.14,304H267.67v18.54h14.47Z"/><path class="cls-19" d="M282.14,327.34H267.67v18.54h14.47Z"/><path class="cls-19" d="M282.14,350.73H267.67v18.54h14.47Z"/><path class="cls-19" d="M282.14,374.12H267.67v18.54h14.47Z"/><path class="cls-4" d="M282.14,116.88H267.67v18.54h14.47Z"/><path class="cls-4" d="M282.14,140.27H267.67v18.54h14.47Z"/><path class="cls-4" d="M282.14,163.66H267.67V182.2h14.47Z"/><path class="cls-4" d="M282.14,187H267.67v18.54h14.47Z"/><path class="cls-4" d="M282.14,210.42H267.67V229h14.47Z"/><path class="cls-4" d="M282.14,233.81H267.67v18.54h14.47Z"/><path class="cls-4" d="M282.14,257.19H267.67v18.54h14.47Z"/><path class="cls-4" d="M282.14,280.58H267.67v18.53h14.47Z"/><path class="cls-4" d="M282.14,304H267.67v18.54h14.47Z"/><path class="cls-4" d="M282.14,327.34H267.67v18.54h14.47Z"/><path class="cls-4" d="M282.14,350.73H267.67v18.54h14.47Z"/><path class="cls-4" d="M282.14,374.12H267.67v18.54h14.47Z"/><path class="cls-19" d="M306.12,116.88H291.65v18.54h14.47Z"/><path class="cls-19" d="M306.12,140.27H291.65v18.54h14.47Z"/><path class="cls-19" d="M306.12,163.66H291.65V182.2h14.47Z"/><path class="cls-19" d="M306.12,187H291.65v18.54h14.47Z"/><path class="cls-19" d="M306.12,210.42H291.65V229h14.47Z"/><path class="cls-19" d="M306.12,233.81H291.65v18.54h14.47Z"/><path class="cls-19" d="M306.12,257.19H291.65v18.54h14.47Z"/><path class="cls-19" d="M306.12,280.58H291.65v18.53h14.47Z"/><path class="cls-19" d="M306.12,304H291.65v18.54h14.47Z"/><path class="cls-19" d="M306.12,327.34H291.65v18.54h14.47Z"/><path class="cls-19" d="M306.12,350.73H291.65v18.54h14.47Z"/><path class="cls-19" d="M306.12,374.12H291.65v18.54h14.47Z"/><path class="cls-4" d="M306.12,116.88H291.65v18.54h14.47Z"/><path class="cls-4" d="M306.12,140.27H291.65v18.54h14.47Z"/><path class="cls-4" d="M306.12,163.66H291.65V182.2h14.47Z"/><path class="cls-4" d="M306.12,187H291.65v18.54h14.47Z"/><path class="cls-4" d="M306.12,210.42H291.65V229h14.47Z"/><path class="cls-4" d="M306.12,233.81H291.65v18.54h14.47Z"/><path class="cls-4" d="M306.12,257.19H291.65v18.54h14.47Z"/><path class="cls-4" d="M306.12,280.58H291.65v18.53h14.47Z"/><path class="cls-4" d="M306.12,304H291.65v18.54h14.47Z"/><path class="cls-4" d="M306.12,327.34H291.65v18.54h14.47Z"/><path class="cls-4" d="M306.12,350.73H291.65v18.54h14.47Z"/><path class="cls-4" d="M306.12,374.12H291.65v18.54h14.47Z"/><path class="cls-12" d="M796.4,147.8H745.91V403H796.4Z"/><path class="cls-16" d="M796.4,147.8H745.91V403H796.4Z"/><path class="cls-12" d="M799.42,139.44H745.91v8.36h53.51Z"/><path class="cls-12" d="M791.25,126.38H745.91v13.06h45.34Z"/><path class="cls-16" d="M791.25,126.38H745.91v13.06h45.34Z"/><path class="cls-12" d="M780.62,97.58H745.91v28.8h34.71Z"/><path class="cls-20" d="M780.62,97.58H745.91v28.8h34.71Z"/><path class="cls-21" d="M757.6,157.48h-6.85v26.84h6.85Z"/><path class="cls-21" d="M757.6,194.05h-6.85V220.9h6.85Z"/><path class="cls-21" d="M757.6,230.62h-6.85v26.85h6.85Z"/><g class="cls-22"><path class="cls-20" d="M757.6,267.2h-6.85v26.85h6.85Z"/></g><g class="cls-22"><path class="cls-20" d="M757.6,303.77h-6.85v26.85h6.85Z"/></g><g class="cls-22"><path class="cls-20" d="M757.6,340.35h-6.85v26.84h6.85Z"/></g><path class="cls-21" d="M768.92,157.48h-6.85v26.84h6.85Z"/><path class="cls-21" d="M768.92,194.05h-6.85V220.9h6.85Z"/><path class="cls-21" d="M768.92,230.62h-6.85v26.85h6.85Z"/><g class="cls-22"><path class="cls-20" d="M768.92,267.2h-6.85v26.85h6.85Z"/></g><g class="cls-22"><path class="cls-20" d="M768.92,303.77h-6.85v26.85h6.85Z"/></g><g class="cls-22"><path class="cls-20" d="M768.92,340.35h-6.85v26.84h6.85Z"/></g><path class="cls-21" d="M780.25,157.48H773.4v26.84h6.85Z"/><path class="cls-21" d="M780.25,194.05H773.4V220.9h6.85Z"/><path class="cls-21" d="M780.25,230.62H773.4v26.85h6.85Z"/><g class="cls-22"><path class="cls-20" d="M780.25,267.2H773.4v26.85h6.85Z"/></g><g class="cls-22"><path class="cls-20" d="M780.25,303.77H773.4v26.85h6.85Z"/></g><g class="cls-22"><path class="cls-20" d="M780.25,340.35H773.4v26.84h6.85Z"/></g><path class="cls-21" d="M791.56,157.48h-6.85v26.84h6.85Z"/><path class="cls-1" d="M658,132.4h-8.48v15.43H658Z"/><path class="cls-1" d="M658,157.48h-8.48V172.9H658Z"/><path class="cls-1" d="M658,182.55h-8.48V198H658Z"/><path class="cls-1" d="M658,207.63h-8.48v15.43H658Z"/><path class="cls-1" d="M658,232.7h-8.48v15.43H658Z"/><path class="cls-1" d="M658,257.78h-8.48V273.2H658Z"/><path class="cls-1" d="M658,282.85h-8.48v15.43H658Z"/><path class="cls-1" d="M658,307.92h-8.48v15.43H658Z"/><path class="cls-1" d="M658,333h-8.48v15.43H658Z"/><path class="cls-1" d="M657.83,358.17h-8.41v17.65h8.41Z"/><path class="cls-21" d="M791.56,194.05h-6.85V220.9h6.85Z"/><path class="cls-21" d="M791.56,230.62h-6.85v26.85h6.85Z"/><g class="cls-22"><path class="cls-20" d="M791.56,267.2h-6.85v26.85h6.85Z"/></g><g class="cls-22"><path class="cls-20" d="M791.56,303.77h-6.85v26.85h6.85Z"/></g><g class="cls-22"><path class="cls-20" d="M791.56,340.35h-6.85v26.84h6.85Z"/></g><path class="cls-12" d="M745.91,147.8H641.54V403.19H745.91Z"/><path class="cls-12" d="M745.91,126.38H647.39v13.06h98.52Z"/><path class="cls-12" d="M745.91,97.58H671.77v28.8h74.14Z"/><path class="cls-16" d="M745.91,97.58H671.77v28.8h74.14Z"/><path class="cls-12" d="M745.91,139.44H639.33v8.36H745.91Z"/><path class="cls-16" d="M745.91,139.44H639.33v8.36H745.91Z"/><path class="cls-23" d="M666.37,157.48h-14v26.84h14Z"/><path class="cls-23" d="M666.37,194.05h-14V220.9h14Z"/><path class="cls-23" d="M666.37,230.62h-14v26.85h14Z"/><path class="cls-23" d="M666.37,267.2h-14v26.85h14Z"/><path class="cls-23" d="M666.37,303.77h-14v26.85h14Z"/><path class="cls-23" d="M666.37,340.35h-14v26.84h14Z"/><path class="cls-23" d="M689.59,157.48H675.54v26.84h14.05Z"/><path class="cls-23" d="M689.59,194.05H675.54V220.9h14.05Z"/><path class="cls-23" d="M689.59,230.62H675.54v26.85h14.05Z"/><path class="cls-23" d="M689.59,267.2H675.54v26.85h14.05Z"/><path class="cls-23" d="M689.3,303.62h-14v26.84h14Z"/><path class="cls-23" d="M689.59,340.35H675.54v26.84h14.05Z"/><path class="cls-23" d="M712.8,157.48h-14v26.84h14Z"/><path class="cls-23" d="M712.8,194.05h-14V220.9h14Z"/><path class="cls-23" d="M712.8,230.62h-14v26.85h14Z"/><path class="cls-23" d="M712.8,267.2h-14v26.85h14Z"/><path class="cls-23" d="M712.8,303.77h-14v26.85h14Z"/><path class="cls-23" d="M712.8,340.35h-14v26.84h14Z"/><path class="cls-23" d="M736,157.48H722v26.84h14Z"/><path class="cls-23" d="M736,194.05H722V220.9h14Z"/><path class="cls-23" d="M736,230.62H722v26.85h14Z"/><path class="cls-23" d="M736,267.2H722v26.85h14Z"/><path class="cls-23" d="M736,303.77H722v26.85h14Z"/><path class="cls-23" d="M736,340.35H722v26.84h14Z"/><path class="cls-23" d="M712.8,377.74H675.54V403H712.8Z"/><path class="cls-12" d="M900,257.49H849.48V403.64H900Z"/><path class="cls-16" d="M900,257.49H849.48v145.7H900Z"/><path class="cls-12" d="M903,249.13H849.48v8.36H903Z"/><path class="cls-12" d="M894.85,236.07H849.49v13.06h45.36Z"/><path class="cls-16" d="M894.85,236.07H849.49v13.06h45.36Z"/><path class="cls-17" d="M861.17,267.17h-6.85V294h6.85Z"/><path class="cls-17" d="M861.17,303.74h-6.85v26.85h6.85Z"/><path class="cls-17" d="M861.17,340.32h-6.85v26.84h6.85Z"/><path class="cls-17" d="M872.49,267.17h-6.84V294h6.84Z"/><path class="cls-17" d="M872.49,303.74h-6.84v26.85h6.84Z"/><path class="cls-17" d="M872.49,340.32h-6.84v26.84h6.84Z"/><path class="cls-17" d="M883.81,267.17H877V294h6.85Z"/><path class="cls-17" d="M883.81,303.74H877v26.85h6.85Z"/><path class="cls-17" d="M883.81,340.32H877v26.84h6.85Z"/><path class="cls-17" d="M895.13,267.17h-6.88V294h6.85Z"/><path class="cls-17" d="M895.13,303.74h-6.88v26.85h6.85Z"/><path class="cls-17" d="M895.13,340.32h-6.88v26.84h6.85Z"/><path class="cls-12" d="M849.49,257.49H742.91v146H849.49Z"/><path class="cls-12" d="M849.48,236.07H743.79v13.06H849.48Z"/><path class="cls-12" d="M849.48,249.13H742.91v8.36H849.48Z"/><path class="cls-16" d="M849.48,249.13H745.91v8.36H849.48Z"/><path class="cls-23" d="M769.94,267.17h-14V294h14Z"/><path class="cls-23" d="M769.94,303.74h-14v26.85h14Z"/><path class="cls-23" d="M769.94,340.32h-14v26.84h14Z"/><path class="cls-23" d="M793.16,267.17h-14V294h14Z"/><path class="cls-23" d="M793.16,303.74h-14v26.85h14Z"/><path class="cls-23" d="M793.16,340.32h-14v26.84h14Z"/><path class="cls-23" d="M816.37,267.17h-14V294h14Z"/><path class="cls-23" d="M816.37,303.74h-14v26.85h14Z"/><path class="cls-23" d="M816.37,340.32h-14v26.84h14Z"/><path class="cls-23" d="M839.59,267.17H825.54V294h14.05Z"/><path class="cls-23" d="M839.59,303.74H825.54v26.85h14.05Z"/><path class="cls-23" d="M839.59,340.32H825.54v26.84h14.05Z"/><path class="cls-2" d="M175.65,205.91H99.06V403.24h76.59Z"/><path class="cls-3" d="M175.37,182.25H118.05v23.66h57.32Z"/><path class="cls-6" d="M127.72,185.9h-4.9v16.36h4.9Z"/><path class="cls-6" d="M136.3,185.9h-4.9v16.36h4.9Z"/><path class="cls-6" d="M144.87,185.9H140v16.36h4.9Z"/><path class="cls-6" d="M153.45,185.9h-4.9v16.36h4.9Z"/><path class="cls-6" d="M162,185.9h-4.9v16.36H162Z"/><path class="cls-6" d="M170.6,185.9h-4.91v16.36h4.91Z"/><path class="cls-2" d="M201.43,182.25H175.37v23.66h26.06Z"/><path class="cls-6" d="M183.19,185.9H179v16.36h4.17Z"/><path class="cls-6" d="M190.48,185.9h-4.16v16.36h4.16Z"/><path class="cls-6" d="M197.78,185.9h-4.17v16.36h4.17Z"/><path class="cls-6" d="M214.35,205.91h-39V403.24h39Z"/><path class="cls-19" d="M130.68,170.27h-1.76v12h1.76Z"/><path class="cls-19" d="M164.49,170.27h-1.75v12h1.75Z"/><path class="cls-12" d="M172.25,149.3h-51.1v21h51.1Z"/><path class="cls-4" d="M128.87,222.11H114.73v21.65h14.14Z"/><path class="cls-4" d="M157.65,222.11H143.51v21.65h14.14Z"/><path class="cls-4" d="M128.87,256.23H114.73v21.64h14.14Z"/><path class="cls-4" d="M157.65,256.23H143.51v21.64h14.14Z"/><path class="cls-4" d="M128.87,290.34H114.73V312h14.14Z"/><path class="cls-4" d="M157.65,290.34H143.51V312h14.14Z"/><path class="cls-4" d="M128.87,324.46H114.73v21.65h14.14Z"/><path class="cls-4" d="M157.65,324.46H143.51v21.65h14.14Z"/><path class="cls-4" d="M128.87,358.57H114.73v21.65h14.14Z"/><path class="cls-4" d="M157.65,358.57H143.51v21.65h14.14Z"/><path class="cls-8" d="M190.65,222.11h-8.12v21.65h8.12Z"/><path class="cls-8" d="M207.19,222.11h-8.12v21.65h8.12Z"/><path class="cls-8" d="M190.65,256.23h-8.12v21.64h8.12Z"/><path class="cls-8" d="M207.19,256.23h-8.12v21.64h8.12Z"/><path class="cls-8" d="M190.65,290.34h-8.12V312h8.12Z"/><path class="cls-8" d="M207.19,290.34h-8.12V312h8.12Z"/><path class="cls-8" d="M190.65,324.46h-8.12v21.65h8.12Z"/><path class="cls-8" d="M207.19,324.46h-8.12v21.65h8.12Z"/><path class="cls-8" d="M190.65,358.57h-8.12v21.65h8.12Z"/><path class="cls-8" d="M207.19,358.57h-8.12v21.65h8.12Z"/><path class="cls-1" d="M1028.54,67.73h-64V403.36h64Z"/><path class="cls-5" d="M986.93,78.62H974.5V91.43h12.43Z"/><path class="cls-5" d="M1002.84,78.62H990.4V91.43h12.44Z"/><path class="cls-5" d="M986.93,100.36H974.5v12.8h12.43Z"/><path class="cls-5" d="M1002.84,100.36H990.4v12.8h12.44Z"/><path class="cls-5" d="M986.93,122.1H974.5v12.8h12.43Z"/><path class="cls-5" d="M1002.84,122.1H990.4v12.8h12.44Z"/><path class="cls-5" d="M986.93,143.83H974.5v12.81h12.43Z"/><path class="cls-5" d="M1002.84,143.83H990.4v12.81h12.44Z"/><path class="cls-5" d="M986.93,165.57H974.5v12.81h12.43Z"/><path class="cls-5" d="M1002.84,165.57H990.4v12.81h12.44Z"/><path class="cls-5" d="M986.93,187.31H974.5v12.8h12.43Z"/><path class="cls-5" d="M1002.84,187.31H990.4v12.8h12.44Z"/><path class="cls-5" d="M986.93,209H974.5v12.81h12.43Z"/><path class="cls-5" d="M1002.84,209H990.4v12.81h12.44Z"/><path class="cls-5" d="M986.93,230.78H974.5v12.81h12.43Z"/><path class="cls-5" d="M1002.84,230.78H990.4v12.81h12.44Z"/><path class="cls-5" d="M986.93,252.52H974.5v12.8h12.43Z"/><path class="cls-5" d="M1002.84,252.52H990.4v12.8h12.44Z"/><path class="cls-5" d="M986.93,274.25H974.5v12.81h12.43Z"/><path class="cls-5" d="M1002.84,274.25H990.4v12.81h12.44Z"/><path class="cls-5" d="M986.93,296H974.5v12.8h12.43Z"/><path class="cls-5" d="M1002.84,296H990.4v12.8h12.44Z"/><path class="cls-5" d="M986.93,317.73H974.5v12.8h12.43Z"/><path class="cls-5" d="M1002.84,317.73H990.4v12.8h12.44Z"/><path class="cls-5" d="M986.93,339.47H974.5v12.8h12.43Z"/><path class="cls-5" d="M1002.84,339.47H990.4v12.8h12.44Z"/><path class="cls-5" d="M986.93,361.2H974.5V374h12.43Z"/><path class="cls-5" d="M1018.61,361.2h-12.44V374h12.44Z"/><path class="cls-5" d="M1018.61,339.46h-12.44v12.81h12.44Z"/><path class="cls-5" d="M1018.61,317.73h-12.44v12.8h12.44Z"/><path class="cls-5" d="M1018.61,296h-12.44v12.8h12.44Z"/><path class="cls-5" d="M1018.61,274.26h-12.44v12.8h12.44Z"/><path class="cls-5" d="M1018.61,252.52h-12.44v12.8h12.44Z"/><path class="cls-5" d="M1018.61,230.78h-12.44v12.8h12.44Z"/><path class="cls-5" d="M1018.61,209.05h-12.44v12.8h12.44Z"/><path class="cls-5" d="M1018.61,187.31h-12.44v12.8h12.44Z"/><path class="cls-5" d="M1018.61,165.57h-12.44v12.8h12.44Z"/><path class="cls-5" d="M1018.61,143.83h-12.44v12.81h12.44Z"/><path class="cls-5" d="M1018.61,122.1h-12.44v12.8h12.44Z"/><path class="cls-5" d="M1018.61,100.36h-12.44v12.8h12.44Z"/><path class="cls-5" d="M1018.61,78.62h-12.44V91.43h12.44Z"/><path class="cls-5" d="M1002.84,361.2H990.4V374h12.44Z"/><path class="cls-9" d="M1079,67.73h-50.44V403.19H1079Z"/><path class="cls-5" d="M750.47,15.72c4.52,0,80.56.5,85.33.34a.38.38,0,0,0,.36-.38.4.4,0,0,0-.17-.3c-3-1.49-6.43-1.19-9.56-2.25a10.13,10.13,0,0,1-4.25-3.21,8.76,8.76,0,0,0-4-2.57,8.26,8.26,0,0,0-4.3-.14A37.05,37.05,0,0,0,809.56,9c-3.65,1.38-7.2.07-9.8-2.63C797.61,4.14,795.49,2,792.57.84A9.55,9.55,0,0,0,785,.73c-2.8,1.27-4.71,3.82-7.33,5.35-3.09,1.8-6.82,1.38-10.25,1.93s-6.06,3.44-9.07,5.1a6.47,6.47,0,0,1-3.28,1,17.17,17.17,0,0,1-2-.28,2.71,2.71,0,0,0-2.71.77C750.14,14.82,750.17,15.72,750.47,15.72Z"/><path class="cls-5" d="M313,39.65c3.59,0,64.05.4,67.85.27a.3.3,0,0,0,.18-.06.29.29,0,0,0,.09-.34.24.24,0,0,0-.12-.14c-2.39-1.18-5.11-1-7.6-1.78A8.1,8.1,0,0,1,370,35a7,7,0,0,0-3.15-2,6.72,6.72,0,0,0-3.42-.11A30.77,30.77,0,0,0,360,34.33c-2.91,1.1-5.73.06-7.81-2.1a17.11,17.11,0,0,0-5.71-4.38,7.6,7.6,0,0,0-6.06-.09c-2.22,1-3.74,3-5.82,4.25-2.47,1.44-5.42,1.1-8.16,1.54s-4.81,2.74-7.22,4.06a5.13,5.13,0,0,1-2.6.81,12.18,12.18,0,0,1-1.59-.23,2.17,2.17,0,0,0-2.16.61C312.75,38.94,312.78,39.65,313,39.65Z"/><path class="cls-5" d="M1048.55,37.84c4.33,0,77.1.47,81.67.33a.36.36,0,0,0,.34-.38.33.33,0,0,0-.16-.28c-2.88-1.42-6.15-1.14-9.15-2.15a9.62,9.62,0,0,1-4.06-3.07,8.57,8.57,0,0,0-3.79-2.47,8,8,0,0,0-4.13-.13,34.54,34.54,0,0,0-4.17,1.73c-3.49,1.32-6.89.07-9.39-2.52-2.06-2.13-4.08-4.14-6.88-5.29a9.15,9.15,0,0,0-7.29-.1c-2.67,1.21-4.5,3.64-7,5.1-3,1.74-6.52,1.33-9.8,1.85s-5.8,3.29-8.68,4.88a6.17,6.17,0,0,1-3.14,1,15.67,15.67,0,0,1-1.91-.27,2.6,2.6,0,0,0-2.6.73C1048.25,37,1048.25,37.84,1048.55,37.84Z"/><path class="cls-5" d="M390.07,117.26c.06.17,81.38,0,80.35,0-.46,0,.72-.7.26-.93-2.64-1.31-5.54-1.34-8.42-1.61a9.5,9.5,0,0,1-8.5-4.68,15.26,15.26,0,0,0-13.89-5.26c-5.78.91-10.34,5.31-16.13,6.12-3.48.49-6.77-.86-10.17-1.33a12.44,12.44,0,0,0-7.64,1.39,14.6,14.6,0,0,1-5.6,1.82c-1.59.12-3.19-.07-4.79-.09a10.76,10.76,0,0,0-7,2.82C388.25,115.74,387.42,117.26,390.07,117.26Z"/><path class="cls-10" d="M1046.46,78.77h-8.1V91.58h8.1Z"/><path class="cls-10" d="M1059.48,78.77h-8.1V91.58h8.1Z"/><path class="cls-10" d="M1072.61,78.77h-8.1V91.58h8.1Z"/><path class="cls-10" d="M1046.46,99.32h-8.1v12.81h8.1Z"/><path class="cls-10" d="M1059.48,99.32h-8.1v12.81h8.1Z"/><path class="cls-10" d="M1072.61,99.32h-8.1v12.81h8.1Z"/><path class="cls-10" d="M1046.46,122.91h-8.1v12.81h8.1Z"/><path class="cls-10" d="M1059.48,122.91h-8.1v12.81h8.1Z"/><path class="cls-10" d="M1072.61,122.91h-8.1v12.81h8.1Z"/><path class="cls-10" d="M1046.46,143.46h-8.1v12.81h8.1Z"/><path class="cls-10" d="M1059.48,143.46h-8.1v12.81h8.1Z"/><path class="cls-10" d="M1072.61,143.46h-8.1v12.81h8.1Z"/><path class="cls-10" d="M1046.4,165.65h-8.1v12.81h8.1Z"/><path class="cls-10" d="M1059.42,165.65h-8.1v12.81h8.1Z"/><path class="cls-10" d="M1072.56,165.65h-8.11v12.81h8.11Z"/><path class="cls-10" d="M1046.4,186.2h-8.1V199h8.1Z"/><path class="cls-10" d="M1059.42,186.2h-8.1V199h8.1Z"/><path class="cls-10" d="M1072.56,186.2h-8.11V199h8.11Z"/><path class="cls-10" d="M1046.4,209h-8.1v12.81h8.1Z"/><path class="cls-10" d="M1059.42,209h-8.1v12.81h8.1Z"/><path class="cls-10" d="M1072.56,209h-8.11v12.81h8.11Z"/><path class="cls-10" d="M1046.4,230.34h-8.1v12.81h8.1Z"/><path class="cls-10" d="M1059.42,230.34h-8.1v12.81h8.1Z"/><path class="cls-10" d="M1072.56,230.34h-8.11v12.81h8.11Z"/><path class="cls-10" d="M1046.46,253.56h-8.1v12.81h8.1Z"/><path class="cls-10" d="M1059.48,253.56h-8.1v12.81h8.1Z"/><path class="cls-10" d="M1072.61,253.56h-8.1v12.81h8.1Z"/><path class="cls-10" d="M1046.4,275.74h-8.1v12.81h8.1Z"/><path class="cls-10" d="M1059.42,275.74h-8.1v12.81h8.1Z"/><path class="cls-10" d="M1072.56,275.74h-8.11v12.81h8.11Z"/><path class="cls-10" d="M1046.4,296.29h-8.1V309.1h8.1Z"/><path class="cls-10" d="M1059.42,296.29h-8.1V309.1h8.1Z"/><path class="cls-10" d="M1072.56,296.29h-8.11V309.1h8.11Z"/><path class="cls-10" d="M1046.4,319.09h-8.1V331.9h8.1Z"/><path class="cls-10" d="M1059.42,319.09h-8.1V331.9h8.1Z"/><path class="cls-10" d="M1072.56,319.09h-8.11V331.9h8.11Z"/><path class="cls-10" d="M1046.4,340.43h-8.1v12.81h8.1Z"/><path class="cls-10" d="M1059.42,340.43h-8.1v12.81h8.1Z"/><path class="cls-10" d="M1072.56,340.43h-8.11v12.81h8.11Z"/><path class="cls-10" d="M1046.4,361.77h-8.1v12.81h8.1Z"/><path class="cls-10" d="M1059.42,361.77h-8.1v12.81h8.1Z"/><path class="cls-10" d="M1072.56,361.77h-8.11v12.81h8.11Z"/></svg>