<svg width="183" height="49" viewBox="0 0 183 49" fill="none" xmlns="http://www.w3.org/2000/svg">
<path d="M56.3906 22V6H59.7734V12.6016H66.6406V6H70.0156V22H66.6406V15.3906H59.7734V22H56.3906ZM73.2447 22V6H84.0259V8.78906H76.6275V12.6016H83.4713V15.3906H76.6275V19.2109H84.0572V22H73.2447ZM86.2882 25.8594V19.3047H87.3741C87.7439 19.0391 88.0825 18.6641 88.3898 18.1797C88.6971 17.6901 88.9601 17.0156 89.1788 16.1562C89.3976 15.2917 89.5538 14.1615 89.6476 12.7656L90.1007 6H100.687V19.3047H102.437V25.8438H99.1866V22H89.5382V25.8594H86.2882ZM91.2804 19.3047H97.4366V8.78906H93.1476L92.8976 12.7656C92.8299 13.8229 92.7179 14.7604 92.5616 15.5781C92.4106 16.3958 92.2257 17.112 92.007 17.7266C91.7934 18.3359 91.5512 18.862 91.2804 19.3047ZM104.933 22V6H115.715V8.78906H108.316V12.6016H115.16V15.3906H108.316V19.2109H115.746V22H104.933ZM117.977 22V19.2812L118.43 19.2422C119.013 19.1953 119.485 18.974 119.844 18.5781C120.203 18.1771 120.472 17.5391 120.649 16.6641C120.831 15.7839 120.948 14.6016 121 13.1172L121.266 6H132.125V22H128.836V8.71094H124.406L124.156 14.2812C124.073 16.0729 123.86 17.5365 123.516 18.6719C123.177 19.8073 122.636 20.6458 121.891 21.1875C121.151 21.7292 120.138 22 118.852 22H117.977ZM137.581 11.9141H141.393C142.664 11.9141 143.758 12.1198 144.675 12.5312C145.596 12.9375 146.307 13.513 146.807 14.2578C147.307 15.0026 147.555 15.8802 147.55 16.8906C147.555 17.8958 147.307 18.7839 146.807 19.5547C146.307 20.3203 145.596 20.9193 144.675 21.3516C143.758 21.7839 142.664 22 141.393 22H135.417V6H138.792V19.2812H141.393C142.003 19.2812 142.516 19.1719 142.932 18.9531C143.349 18.7292 143.664 18.4349 143.878 18.0703C144.096 17.7005 144.203 17.2969 144.198 16.8594C144.203 16.224 143.964 15.6875 143.479 15.25C143 14.8073 142.305 14.5859 141.393 14.5859H137.581V11.9141ZM160.363 22L155.222 15.1797H154.066V22H150.683V6H154.066V12.3906H154.745L160.058 6H164.269L158.027 13.4219L164.558 22H160.363ZM169.457 22H165.832L171.355 6H175.715L181.23 22H177.605L173.598 9.65625H173.473L169.457 22ZM169.23 15.7109H177.793V18.3516H169.23V15.7109Z" fill="#FEE45A"/>
<path d="M56.3466 41V32.2727H62.9545V41H61.9375V33.2273H57.3636V41H56.3466ZM65.9521 44.2727V32.2727H66.9351V33.9375H67.0544C67.1756 33.6761 67.3423 33.4091 67.5544 33.1364C67.7665 32.8598 68.0468 32.6269 68.3953 32.4375C68.7476 32.2481 69.1907 32.1534 69.7248 32.1534C70.4445 32.1534 71.0733 32.3428 71.6112 32.7216C72.1529 33.0966 72.5733 33.6231 72.8726 34.3011C73.1756 34.9754 73.3271 35.7614 73.3271 36.6591C73.3271 37.5606 73.1756 38.3504 72.8726 39.0284C72.5733 39.7064 72.1529 40.2348 71.6112 40.6136C71.0733 40.9924 70.4483 41.1818 69.7362 41.1818C69.2097 41.1818 68.7684 41.0871 68.4123 40.8977C68.0601 40.7083 67.7741 40.4754 67.5544 40.1989C67.3385 39.9186 67.1718 39.6458 67.0544 39.3807H66.9635V44.2727H65.9521ZM66.9521 36.642C66.9521 37.3466 67.0563 37.9716 67.2646 38.517C67.4767 39.0587 67.7798 39.4848 68.1737 39.7955C68.5714 40.1023 69.0525 40.2557 69.6169 40.2557C70.1964 40.2557 70.6851 40.0966 71.0828 39.7784C71.4843 39.4564 71.7892 39.0227 71.9976 38.4773C72.2097 37.9318 72.3157 37.3201 72.3157 36.642C72.3157 35.9716 72.2116 35.3674 72.0032 34.8295C71.7987 34.2917 71.4957 33.8655 71.0941 33.5511C70.6926 33.233 70.2002 33.0739 69.6169 33.0739C69.0487 33.0739 68.5657 33.2273 68.168 33.5341C67.7703 33.8371 67.4673 34.2576 67.2589 34.7955C67.0544 35.3295 66.9521 35.9451 66.9521 36.642ZM79.2579 41.1818C78.5041 41.1818 77.8374 40.9905 77.2579 40.608C76.6821 40.2254 76.2314 39.697 75.9056 39.0227C75.5799 38.3447 75.417 37.5625 75.417 36.6761C75.417 35.7822 75.5799 34.9962 75.9056 34.3182C76.2314 33.6364 76.6821 33.1061 77.2579 32.7273C77.8374 32.3447 78.5041 32.1534 79.2579 32.1534C80.0117 32.1534 80.6765 32.3447 81.2522 32.7273C81.828 33.1098 82.2787 33.6402 82.6045 34.3182C82.934 34.9962 83.0988 35.7822 83.0988 36.6761C83.0988 37.5625 82.9359 38.3447 82.6102 39.0227C82.2844 39.697 81.8318 40.2254 81.2522 40.608C80.6765 40.9905 80.0117 41.1818 79.2579 41.1818ZM79.2579 40.2557C79.864 40.2557 80.3772 40.0928 80.7977 39.767C81.2181 39.4413 81.5363 39.0076 81.7522 38.4659C81.9719 37.9242 82.0818 37.3277 82.0818 36.6761C82.0818 36.0246 81.9719 35.4261 81.7522 34.8807C81.5363 34.3352 81.2181 33.8977 80.7977 33.5682C80.3772 33.2386 79.864 33.0739 79.2579 33.0739C78.6556 33.0739 78.1424 33.2386 77.7181 33.5682C77.2977 33.8977 76.9776 34.3352 76.7579 34.8807C76.542 35.4261 76.434 36.0246 76.434 36.6761C76.434 37.3277 76.542 37.9242 76.7579 38.4659C76.9776 39.0076 77.2977 39.4413 77.7181 39.767C78.1386 40.0928 78.6518 40.2557 79.2579 40.2557ZM90.8265 32.2727V33.2273H86.6503V41H85.639V32.2727H90.8265ZM99.1635 36.1648V37.1193H94.0328V36.1648H99.1635ZM94.2828 32.2727V41H93.2715V32.2727H94.2828ZM99.9078 32.2727V41H98.8965V32.2727H99.9078ZM106.312 41.1818C105.558 41.1818 104.891 40.9905 104.312 40.608C103.736 40.2254 103.285 39.697 102.959 39.0227C102.634 38.3447 102.471 37.5625 102.471 36.6761C102.471 35.7822 102.634 34.9962 102.959 34.3182C103.285 33.6364 103.736 33.1061 104.312 32.7273C104.891 32.3447 105.558 32.1534 106.312 32.1534C107.065 32.1534 107.73 32.3447 108.306 32.7273C108.882 33.1098 109.332 33.6402 109.658 34.3182C109.988 34.9962 110.153 35.7822 110.153 36.6761C110.153 37.5625 109.99 38.3447 109.664 39.0227C109.338 39.697 108.886 40.2254 108.306 40.608C107.73 40.9905 107.065 41.1818 106.312 41.1818ZM106.312 40.2557C106.918 40.2557 107.431 40.0928 107.851 39.767C108.272 39.4413 108.59 39.0076 108.806 38.4659C109.026 37.9242 109.136 37.3277 109.136 36.6761C109.136 36.0246 109.026 35.4261 108.806 34.8807C108.59 34.3352 108.272 33.8977 107.851 33.5682C107.431 33.2386 106.918 33.0739 106.312 33.0739C105.709 33.0739 105.196 33.2386 104.772 33.5682C104.351 33.8977 104.031 34.3352 103.812 34.8807C103.596 35.4261 103.488 36.0246 103.488 36.6761C103.488 37.3277 103.596 37.9242 103.812 38.4659C104.031 39.0076 104.351 39.4413 104.772 39.767C105.192 40.0928 105.706 40.2557 106.312 40.2557ZM112.13 38.7727H113.204C113.234 39.2386 113.435 39.6023 113.806 39.8636C114.178 40.125 114.666 40.2557 115.272 40.2557C115.901 40.2557 116.42 40.1155 116.829 39.8352C117.238 39.5511 117.443 39.1383 117.443 38.5966C117.443 38.267 117.365 37.9811 117.21 37.7386C117.058 37.4962 116.85 37.3068 116.585 37.1705C116.323 37.0303 116.026 36.9583 115.693 36.9545H114.17V36.0284H115.676C116.195 35.9981 116.589 35.858 116.857 35.608C117.126 35.3542 117.261 35.0227 117.261 34.6136C117.261 34.1477 117.096 33.7746 116.767 33.4943C116.437 33.2102 115.99 33.0682 115.426 33.0682C114.854 33.0682 114.378 33.2083 114 33.4886C113.621 33.7689 113.42 34.1288 113.397 34.5682H112.335C112.354 34.0947 112.496 33.678 112.761 33.3182C113.026 32.9545 113.384 32.6705 113.835 32.4659C114.289 32.2614 114.804 32.1591 115.38 32.1591C115.971 32.1591 116.484 32.2652 116.92 32.4773C117.356 32.6894 117.693 32.9792 117.931 33.3466C118.17 33.7102 118.289 34.1231 118.289 34.5852C118.289 35.0663 118.157 35.4621 117.892 35.7727C117.63 36.0795 117.295 36.2955 116.886 36.4205V36.5057C117.197 36.5398 117.469 36.6534 117.704 36.8466C117.943 37.0398 118.13 37.2879 118.267 37.5909C118.403 37.8939 118.471 38.2292 118.471 38.5966C118.471 39.1117 118.337 39.5644 118.068 39.9545C117.799 40.3409 117.424 40.642 116.943 40.858C116.465 41.0739 115.914 41.1818 115.289 41.1818C114.687 41.1818 114.151 41.0814 113.681 40.8807C113.212 40.6761 112.839 40.3939 112.562 40.0341C112.289 39.6705 112.145 39.25 112.13 38.7727ZM125.703 41V32.2727H132.311V41H131.294V33.2273H126.721V41H125.703ZM138.701 41.1818C137.947 41.1818 137.281 40.9905 136.701 40.608C136.125 40.2254 135.675 39.697 135.349 39.0227C135.023 38.3447 134.86 37.5625 134.86 36.6761C134.86 35.7822 135.023 34.9962 135.349 34.3182C135.675 33.6364 136.125 33.1061 136.701 32.7273C137.281 32.3447 137.947 32.1534 138.701 32.1534C139.455 32.1534 140.12 32.3447 140.695 32.7273C141.271 33.1098 141.722 33.6402 142.048 34.3182C142.377 34.9962 142.542 35.7822 142.542 36.6761C142.542 37.5625 142.379 38.3447 142.053 39.0227C141.728 39.697 141.275 40.2254 140.695 40.608C140.12 40.9905 139.455 41.1818 138.701 41.1818ZM138.701 40.2557C139.307 40.2557 139.82 40.0928 140.241 39.767C140.661 39.4413 140.979 39.0076 141.195 38.4659C141.415 37.9242 141.525 37.3277 141.525 36.6761C141.525 36.0246 141.415 35.4261 141.195 34.8807C140.979 34.3352 140.661 33.8977 140.241 33.5682C139.82 33.2386 139.307 33.0739 138.701 33.0739C138.099 33.0739 137.585 33.2386 137.161 33.5682C136.741 33.8977 136.421 34.3352 136.201 34.8807C135.985 35.4261 135.877 36.0246 135.877 36.6761C135.877 37.3277 135.985 37.9242 136.201 38.4659C136.421 39.0076 136.741 39.4413 137.161 39.767C137.582 40.0928 138.095 40.2557 138.701 40.2557ZM150.27 32.2727V33.2273H146.093V41H145.082V32.2727H150.27ZM155.654 41.1818C154.9 41.1818 154.233 40.9905 153.654 40.608C153.078 40.2254 152.627 39.697 152.301 39.0227C151.975 38.3447 151.813 37.5625 151.813 36.6761C151.813 35.7822 151.975 34.9962 152.301 34.3182C152.627 33.6364 153.078 33.1061 153.654 32.7273C154.233 32.3447 154.9 32.1534 155.654 32.1534C156.407 32.1534 157.072 32.3447 157.648 32.7273C158.224 33.1098 158.674 33.6402 159 34.3182C159.33 34.9962 159.494 35.7822 159.494 36.6761C159.494 37.5625 159.332 38.3447 159.006 39.0227C158.68 39.697 158.227 40.2254 157.648 40.608C157.072 40.9905 156.407 41.1818 155.654 41.1818ZM155.654 40.2557C156.26 40.2557 156.773 40.0928 157.193 39.767C157.614 39.4413 157.932 39.0076 158.148 38.4659C158.368 37.9242 158.477 37.3277 158.477 36.6761C158.477 36.0246 158.368 35.4261 158.148 34.8807C157.932 34.3352 157.614 33.8977 157.193 33.5682C156.773 33.2386 156.26 33.0739 155.654 33.0739C155.051 33.0739 154.538 33.2386 154.114 33.5682C153.693 33.8977 153.373 34.3352 153.154 34.8807C152.938 35.4261 152.83 36.0246 152.83 36.6761C152.83 37.3277 152.938 37.9242 153.154 38.4659C153.373 39.0076 153.693 39.4413 154.114 39.767C154.534 40.0928 155.047 40.2557 155.654 40.2557ZM161.001 43.483V40.0455H161.756C161.946 39.8333 162.11 39.6042 162.251 39.358C162.391 39.1117 162.512 38.8314 162.614 38.517C162.72 38.1989 162.809 37.8295 162.881 37.4091C162.953 36.9848 163.014 36.4905 163.063 35.9261L163.381 32.2727H168.546V40.0455H169.841V43.483H168.83V41H162.018V43.483H161.001ZM162.921 40.0455H167.535V33.2273H164.324L164.063 35.9261C163.972 36.8428 163.843 37.642 163.677 38.3239C163.51 39.0057 163.258 39.5795 162.921 40.0455ZM172.941 35.642H175.498C176.479 35.642 177.237 35.8807 177.771 36.358C178.305 36.8352 178.572 37.4811 178.572 38.2955C178.572 38.8371 178.451 39.3106 178.208 39.7159C177.97 40.1212 177.621 40.4375 177.163 40.6648C176.705 40.8883 176.15 41 175.498 41H172.1V32.2727H173.117V40.0455H175.498C176.115 40.0455 176.612 39.8977 176.987 39.6023C177.365 39.3068 177.555 38.8864 177.555 38.3409C177.555 37.7841 177.365 37.3542 176.987 37.0511C176.612 36.7481 176.115 36.5966 175.498 36.5966H172.941V35.642ZM180.044 41V32.2727H181.055V41H180.044Z" fill="#333B3F"/>
<g clip-path="url(#clip0_140_2)">
<path d="M18.5315 3.77824L14.0176 11.5964H24.7119L20.198 3.77824C19.8277 3.13674 18.9017 3.13674 18.5315 3.77824Z" fill="#E18C36"/>
<path d="M5.42272 9.89836L7.75921 18.6183L15.3212 11.0564L6.6012 8.71987C5.88573 8.52818 5.23103 9.18288 5.42272 9.89836Z" fill="#EC8560"/>
<path d="M0.481122 23.4951L8.29928 28.0089V17.3147L0.481122 21.8285C-0.160374 22.1989 -0.160374 23.1247 0.481122 23.4951Z" fill="#E18C36"/>
<path d="M6.6012 36.6037L15.3212 34.2672L7.75921 26.7052L5.42272 35.4254C5.23103 36.1408 5.88573 36.7954 6.6012 36.6037Z" fill="#EC8560"/>
<path d="M20.1979 41.5454L24.7117 33.7272H14.0175L18.5313 41.5454C18.9017 42.1868 19.8276 42.1868 20.1979 41.5454Z" fill="#E18C36"/>
<path d="M33.3066 35.4253L30.97 26.7053L23.4081 34.2673L32.128 36.6038C32.8436 36.7954 33.4983 36.1408 33.3066 35.4253Z" fill="#EC7E45"/>
<path d="M38.2483 21.8285L30.4301 17.3147V28.0089L38.2483 23.4951C38.8898 23.1247 38.8898 22.1989 38.2483 21.8285Z" fill="#E18C36"/>
<path d="M32.1282 8.71987L23.4082 11.0564L30.9702 18.6183L33.3068 9.89836C33.4984 9.18288 32.8437 8.52818 32.1282 8.71987Z" fill="#EC8560"/>
<path opacity="0.1" d="M7.31726 16.9689L7.75922 18.6184L14.7624 11.6153C11.6682 12.4268 9.0314 14.3668 7.31726 16.9689Z" fill="black"/>
<path opacity="0.1" d="M6.53401 18.3339C5.68828 20.0436 5.21216 21.9688 5.21216 24.0054C5.21216 24.8065 5.28642 25.5903 5.4272 26.3507L8.29944 28.0089V17.3147L6.53401 18.3339Z" fill="black"/>
<path opacity="0.1" d="M7.75923 26.7052L6.81799 30.2181C7.98155 32.3118 9.71463 34.0449 11.8083 35.2084L15.3212 34.2672L7.75923 26.7052Z" fill="black"/>
<path opacity="0.1" d="M14.0175 33.7272L15.6758 36.5995C16.4361 36.7402 17.2199 36.8145 18.0211 36.8145C20.0576 36.8145 21.9829 36.3384 23.6925 35.4927L24.7117 33.7274H14.0175V33.7272Z" fill="black"/>
<path opacity="0.1" d="M23.4081 34.2672L25.0576 34.7092C27.6598 32.9951 29.5997 30.3584 30.4112 27.264L23.4081 34.2672Z" fill="black"/>
<path d="M19.3649 35.4713C26.4391 35.4713 32.1739 29.7365 32.1739 22.6623C32.1739 15.5881 26.4391 9.8533 19.3649 9.8533C12.2907 9.8533 6.55591 15.5881 6.55591 22.6623C6.55591 29.7365 12.2907 35.4713 19.3649 35.4713Z" fill="#F7D64C"/>
<path opacity="0.3" d="M21.8251 10.0899C21.4354 10.8609 21.2145 11.7317 21.2145 12.6545C21.2145 15.7998 23.7643 18.3497 26.9097 18.3497C28.402 18.3497 29.7595 17.7751 30.7749 16.8358C29.0128 13.3916 25.7369 10.851 21.8251 10.0899Z" fill="white"/>
<path d="M17.5946 24.0953C16.487 24.0953 15.491 23.3187 15.2573 22.1926C15.1693 21.7688 15.4415 21.354 15.8653 21.2661C16.2889 21.1784 16.7038 21.4504 16.7917 21.8742C16.8838 22.3172 17.3192 22.603 17.7618 22.5108C17.9764 22.4663 18.1608 22.3409 18.2811 22.1576C18.4014 21.9744 18.4431 21.7553 18.3986 21.5407C18.3874 21.4869 18.3821 21.4333 18.3821 21.3804C18.3822 21.0169 18.6366 20.691 19.0066 20.6143C19.4302 20.5268 19.845 20.7986 19.9331 21.2224C19.9776 21.437 20.1029 21.6214 20.2862 21.7417C20.4694 21.862 20.6885 21.9037 20.9031 21.8591C21.1177 21.8146 21.3021 21.6893 21.4224 21.506C21.5427 21.3227 21.5843 21.1037 21.5398 20.8891C21.452 20.4653 21.7241 20.0505 22.1479 19.9626C22.5713 19.8747 22.9865 20.1469 23.0744 20.5707C23.3419 21.8597 22.5108 23.1262 21.2217 23.3937C20.6176 23.5189 20.0185 23.4031 19.525 23.1121C19.1879 23.5757 18.6845 23.9203 18.0804 24.0457C17.9174 24.0791 17.7548 24.0953 17.5946 24.0953Z" fill="#394049"/>
<path d="M11.4234 21.3239C11.0598 21.3239 10.7337 21.0695 10.6569 20.6994L10.5185 20.0323C10.4306 19.6086 10.7028 19.1938 11.1266 19.1058C11.5503 19.0183 11.965 19.2902 12.0531 19.7139L12.1915 20.381C12.2793 20.8048 12.0072 21.2195 11.5834 21.3075C11.5297 21.3186 11.4761 21.3239 11.4234 21.3239Z" fill="#394049"/>
<path d="M25.9325 18.3127C25.5689 18.3127 25.2429 18.0582 25.1661 17.6882L25.0277 17.0212C24.9398 16.5974 25.212 16.1826 25.6357 16.0947C26.0599 16.0065 26.4743 16.2789 26.5622 16.7027L26.7006 17.3697C26.7886 17.7935 26.5164 18.2083 26.0926 18.2962C26.0388 18.3072 25.9852 18.3127 25.9325 18.3127Z" fill="#394049"/>
<path d="M45.3568 31.3727C45.3961 31.1138 45.4168 30.8486 45.4168 30.5787C45.4168 27.6825 43.0689 25.3346 40.1726 25.3346C39.5621 25.3346 38.9765 25.44 38.4316 25.6318C36.8497 22.8799 33.8806 21.0268 30.4788 21.0268C26.4014 21.0268 22.9463 23.6893 21.7557 27.3704C16.7301 27.4135 12.6691 31.5002 12.6691 36.5361C12.6691 41.5988 16.7733 45.7029 21.8358 45.7029H41.2454C45.5281 45.7029 49 42.231 49 37.9483C48.9999 35.1758 47.5447 32.7436 45.3568 31.3727Z" fill="#D5EBEF"/>
<path opacity="0.1" d="M43.0109 43.9372H23.6014C18.5387 43.9372 14.4346 39.8331 14.4346 34.7705C14.4346 33.4155 14.5715 31.9696 14.869 30.5789C13.4975 32.1811 12.6689 34.2618 12.6689 36.5362C12.6689 41.5989 16.773 45.703 21.8356 45.703H41.2451C43.8371 45.703 46.1318 44.431 47.5399 42.4774C46.2658 43.3957 44.7016 43.9372 43.0109 43.9372Z" fill="black"/>
<path d="M32.3802 39.5874C31.7876 39.5874 31.246 39.365 30.8343 38.9992C30.4228 39.365 29.881 39.5874 29.2885 39.5874C28.004 39.5874 26.959 38.5424 26.959 37.258C26.959 36.8252 27.3099 36.4744 27.7427 36.4744C28.1754 36.4744 28.5263 36.8252 28.5263 37.258C28.5263 37.6783 28.8682 38.0203 29.2886 38.0203C29.7089 38.0203 30.0508 37.6783 30.0508 37.258C30.0508 36.8252 30.4017 36.4744 30.8344 36.4744C31.2672 36.4744 31.6181 36.8252 31.6181 37.258C31.6181 37.6783 31.96 38.0203 32.3803 38.0203C32.8007 38.0203 33.1426 37.6783 33.1426 37.258C33.1426 36.8252 33.4934 36.4744 33.9262 36.4744C34.359 36.4744 34.7098 36.8252 34.7098 37.258C34.7096 38.5424 33.6647 39.5874 32.3802 39.5874Z" fill="#394049"/>
<path d="M38.9103 35.8674C38.4775 35.8674 38.1267 35.5165 38.1267 35.0837C38.1267 34.9998 38.0584 34.9317 37.9746 34.9317C37.8907 34.9317 37.8224 34.9999 37.8224 35.0837C37.8224 35.5165 37.4716 35.8674 37.0388 35.8674C36.606 35.8674 36.2552 35.5165 36.2552 35.0837C36.2552 34.1357 37.0265 33.3644 37.9745 33.3644C38.9225 33.3644 39.6938 34.1357 39.6938 35.0837C39.6938 35.5165 39.3429 35.8674 38.9103 35.8674Z" fill="#394049"/>
<path d="M23.6943 35.8633C23.2615 35.8633 22.9106 35.5125 22.9106 35.0797V34.1952C22.9106 33.7625 23.2615 33.4116 23.6943 33.4116C24.127 33.4116 24.4779 33.7625 24.4779 34.1952V35.0797C24.4779 35.5125 24.1271 35.8633 23.6943 35.8633Z" fill="#394049"/>
</g>
<defs>
<clipPath id="clip0_140_2">
<rect width="49" height="49" fill="white"/>
</clipPath>
</defs>
</svg>
