<svg width="17" height="29" viewBox="0 0 17 29" fill="none" xmlns="http://www.w3.org/2000/svg">
<path d="M8.50011 0C3.81311 0 0 3.75353 0 8.3673C0 9.62554 0.276869 10.8348 0.822698 11.9623C0.833684 11.9864 0.845221 12.0101 0.857526 12.0338L7.2798 24.2743C7.51558 24.7236 7.98636 25.0059 8.5 25.0059C9.01375 25.0059 9.48453 24.7237 9.7202 24.2743L16.1407 12.0371C16.1518 12.016 16.1621 11.9947 16.172 11.9732C16.7215 10.8425 17 9.62954 17 8.3673C17.0002 3.75353 13.1871 0 8.50011 0ZM8.50011 12.7469C6.04685 12.7469 4.05097 10.7822 4.05097 8.3673C4.05097 5.95248 6.04685 3.98778 8.50011 3.98778C10.9534 3.98778 12.9492 5.95248 12.9492 8.3673C12.9492 10.7822 10.9534 12.7469 8.50011 12.7469Z" fill="white"/>
<path d="M11.7743 26.9318H5.22593C4.77075 26.9318 4.40192 27.2949 4.40192 27.743C4.40192 28.191 4.77075 28.5541 5.22593 28.5541H11.7743C12.2295 28.5541 12.5983 28.191 12.5983 27.743C12.5983 27.2949 12.2294 26.9318 11.7743 26.9318Z" fill="white"/>
</svg>
